<svg width="41" height="41" viewBox="0 0 41 41" fill="none" xmlns="http://www.w3.org/2000/svg">
<path d="M31.7778 7.48279L20.62 16.1905L9.20703 7.48279V7.48514L9.22082 7.49691V19.6901L20.4913 28.5861L31.7778 20.0337V7.48279Z" fill="#EA4335"/>
<path d="M34.7076 5.36461L31.7773 7.48271V20.0336L40.9978 12.9544V8.69002C40.9978 8.69002 39.8785 2.59933 34.7076 5.36461Z" fill="#FBBC05"/>
<path d="M31.7773 20.0338V36.3126H38.8443C38.8443 36.3126 40.8553 36.1055 41.0001 33.8132V12.9547L31.7773 20.0338Z" fill="#34A853"/>
<path d="M9.22134 36.3263V19.6899L9.20703 19.6781L9.22134 36.3263Z" fill="#C5221F"/>
<path d="M9.20664 7.48531L6.29251 5.37899C1.12153 2.6137 0 8.70204 0 8.70204V12.9665L9.20664 19.6785V7.48531Z" fill="#C5221F"/>
<path d="M9.20703 7.48499V19.6781L9.22134 19.6899V7.49675L9.20703 7.48499Z" fill="#C5221F"/>
<path d="M0 12.9686V33.8271C0.142489 36.1217 2.15572 36.3265 2.15572 36.3265H9.22273L9.20664 19.6783L0 12.9686Z" fill="#4285F4"/>
</svg>
