<svg width="41" height="41" viewBox="0 0 41 41" fill="none" xmlns="http://www.w3.org/2000/svg">
<path d="M37.9734 0H3.0266C2.22389 0 1.45407 0.318873 0.88647 0.88647C0.318873 1.45407 0 2.22389 0 3.0266V37.9734C0 38.7761 0.318873 39.5459 0.88647 40.1135C1.45407 40.6811 2.22389 41 3.0266 41H37.9734C38.7761 41 39.5459 40.6811 40.1135 40.1135C40.6811 39.5459 41 38.7761 41 37.9734V3.0266C41 2.22389 40.6811 1.45407 40.1135 0.88647C39.5459 0.318873 38.7761 0 37.9734 0ZM12.2203 34.9269H6.05604V15.3465H12.2203V34.9269ZM9.13389 12.6331C8.43466 12.6292 7.75227 12.4182 7.17284 12.0268C6.5934 11.6354 6.14289 11.0812 5.87817 10.434C5.61344 9.78678 5.54636 9.07568 5.68539 8.3904C5.82442 7.70513 6.16333 7.07639 6.65935 6.58354C7.15537 6.0907 7.78627 5.75583 8.47242 5.6212C9.15858 5.48658 9.86924 5.55822 10.5147 5.8271C11.1602 6.09598 11.7115 6.55004 12.0992 7.13197C12.4869 7.71391 12.6935 8.39764 12.6929 9.09688C12.6995 9.56502 12.6118 10.0297 12.435 10.4632C12.2582 10.8967 11.9959 11.2902 11.6638 11.6202C11.3316 11.9502 10.9365 12.2099 10.5019 12.384C10.0672 12.558 9.60198 12.6427 9.13389 12.6331ZM34.9411 34.944H28.7797V24.2469C28.7797 21.0922 27.4387 20.1185 25.7076 20.1185C23.8797 20.1185 22.0859 21.4965 22.0859 24.3267V34.944H15.9217V15.3608H21.8496V18.0742H21.9293C22.5244 16.8698 24.6085 14.8113 27.7889 14.8113C31.2283 14.8113 34.944 16.8527 34.944 22.8319L34.9411 34.944Z" fill="white"/>
</svg>
