<svg width="140" height="93" viewBox="0 0 140 93" fill="none" xmlns="http://www.w3.org/2000/svg">
<rect width="140" height="93" rx="10" fill="#75AADB"/>
<rect width="140" height="31" transform="translate(0 31)" fill="white"/>
<path d="M69.373 47.1602L74.6035 58.5154C74.6573 58.6323 74.6922 58.7734 74.8022 58.8402C74.8363 58.8609 74.877 58.8694 74.9232 58.8504C74.9702 58.8311 74.9929 58.7955 75.002 58.756C75.0307 58.6321 74.9568 58.5097 74.9124 58.3905L70.5523 46.6734M70.4253 51.1598C70.3607 52.9133 71.4431 53.8778 71.3016 55.4437C71.1603 57.0098 72.0235 57.8952 72.2236 58.5042C72.424 59.1132 72.0071 59.4774 72.1867 59.564C72.3665 59.6507 72.7597 59.1696 72.6315 58.3038C72.5033 57.4379 71.8437 57.1809 71.9988 55.2682C72.1537 53.3556 71.2137 52.9101 71.4425 51.1655" fill="#F6B40E"/>
<path d="M69.3244 46.9168L69.7958 59.4018C69.8007 59.5305 69.7785 59.6745 69.8549 59.7783C69.8785 59.8102 69.9127 59.8335 69.9625 59.8336C70.0133 59.8336 70.0479 59.8094 70.0715 59.7765C70.1457 59.6731 70.1244 59.5315 70.1292 59.4043L70.6009 46.9167M68.7606 51.0132C68.0274 52.6086 68.6571 53.9124 67.9249 55.3052C67.1929 56.6982 67.6504 57.8453 67.6014 58.4842C67.5526 59.1233 67.0276 59.3008 67.1603 59.4493C67.2931 59.598 67.8412 59.3034 68.0553 58.4546C68.2693 57.6059 67.7587 57.1169 68.6365 55.4089C69.5141 53.7009 68.8167 52.9309 69.6982 51.4063" fill="#F6B40E"/>
<path d="M69.3728 46.6732L65.0135 58.3879C64.9686 58.5085 64.8929 58.6329 64.9235 58.7579C64.933 58.7965 64.9557 58.8311 65.0017 58.8501C65.0488 58.8696 65.0902 58.8604 65.1247 58.8388C65.2325 58.7714 65.2673 58.6329 65.3205 58.5175L70.5521 47.16M67.2788 50.2429C65.9886 51.4372 66.0697 52.8819 64.8583 53.8895C63.6471 54.8973 63.6292 56.1316 63.3386 56.7032C63.048 57.275 62.4948 57.2388 62.5603 57.4266C62.6259 57.6146 63.2454 57.5514 63.7692 56.8489C64.293 56.1464 64.0089 55.4999 65.4759 54.2566C66.9427 53.0134 66.5941 52.036 67.994 50.9636" fill="#F6B40E"/>
<path d="M69.5112 46.4668L60.9842 55.6279C60.8967 55.7219 60.7797 55.8075 60.7596 55.9343C60.7533 55.9738 60.7609 56.0146 60.7963 56.05C60.8326 56.0861 60.8746 56.0932 60.915 56.0863C61.0399 56.0646 61.1249 55.9507 61.218 55.8646L70.4138 47.3662M66.2056 48.9662C64.555 49.5777 64.0751 50.9433 62.569 51.4122C61.0629 51.8815 60.5723 53.0149 60.0843 53.4322C59.5963 53.8497 59.0991 53.6053 59.0875 53.8038C59.0759 54.0025 59.6725 54.1804 60.4262 53.7311C61.1799 53.2817 61.1658 52.5761 62.9985 51.9869C64.8311 51.3976 64.8844 50.3617 66.5896 49.9048" fill="#F6B40E"/>
<path d="M69.7185 46.3288L58.3216 51.5413C58.2052 51.5946 58.0651 51.629 57.9976 51.7378C57.9763 51.772 57.9674 51.8128 57.9867 51.8593C58.0064 51.9068 58.0428 51.9294 58.083 51.9382C58.2065 51.9654 58.3282 51.893 58.4468 51.8491L70.207 47.5039M65.7047 47.3774C63.9449 47.313 62.977 48.3916 61.4055 48.2505C59.8338 48.1098 58.9453 48.9699 58.3342 49.1693C57.723 49.3689 57.3575 48.9536 57.2705 49.1325C57.1835 49.3117 57.6664 49.7035 58.5353 49.5758C59.4042 49.448 59.6621 48.7908 61.5816 48.9453C63.5011 49.0997 63.9481 48.163 65.699 48.391" fill="#F6B40E"/>
<path d="M69.9628 46.2803L57.4313 46.7501C57.3034 46.7549 57.1611 46.7335 57.057 46.8078C57.0241 46.8313 57.0001 46.8657 57 46.9162C57 46.9676 57.025 47.0024 57.0588 47.0259C57.1625 47.098 57.3025 47.0775 57.4287 47.0822L69.9628 47.5522M65.8518 45.7185C64.2507 44.9879 62.9422 45.6154 61.5445 44.8858C60.1465 44.1564 58.9953 44.6122 58.3541 44.5634C57.7128 44.5148 57.5347 43.9917 57.3856 44.1238C57.2364 44.2562 57.532 44.8023 58.3838 45.0157C59.2356 45.229 59.7264 44.7201 61.4404 45.5948C63.1545 46.4694 63.9272 45.7744 65.4573 46.6528" fill="#F6B40E"/>
<path d="M70.2072 46.3287L58.4494 41.9843C58.3293 41.9399 58.2058 41.8657 58.0811 41.8948C58.0417 41.904 58.0063 41.9266 57.987 41.9731C57.9672 42.0204 57.9769 42.062 57.9989 42.0966C58.067 42.2032 58.2046 42.2375 58.3196 42.2901L69.7188 47.5038M66.6249 44.242C65.4263 42.9565 63.9764 43.0372 62.9653 41.8302C61.9538 40.6233 60.7152 40.6054 60.1416 40.3158C59.5677 40.0263 59.6041 39.4751 59.4156 39.5404C59.2269 39.6057 59.2903 40.223 59.9953 40.7449C60.7004 41.2668 61.3492 40.9838 62.5968 42.4455C63.8445 43.9072 64.8253 43.5598 65.9016 44.9547" fill="#F6B40E"/>
<path d="M70.4144 46.4665L61.2205 37.9697C61.1263 37.8826 61.0402 37.7663 60.9135 37.746C60.8738 37.7397 60.8327 37.7472 60.7971 37.7826C60.7609 37.8186 60.7537 37.8603 60.7606 37.9005C60.7821 38.0255 60.8967 38.11 60.9831 38.2029L69.5118 47.3659M67.9061 43.1727C67.2924 41.5279 65.9219 41.0497 65.4513 39.549C64.9804 38.0482 63.8429 37.5594 63.4241 37.0731C63.0051 36.5868 63.2504 36.0914 63.0512 36.0798C62.8518 36.0683 62.6733 36.6627 63.1242 37.4138C63.5752 38.1648 64.2833 38.1507 64.8746 39.9769C65.466 41.8031 66.5055 41.8562 66.9641 43.5553" fill="#F6B40E"/>
<path d="M70.5523 46.6734L65.3222 35.318C65.2684 35.2012 65.2335 35.0604 65.1237 34.9935C65.0896 34.9727 65.0488 34.9641 65.0026 34.9831C64.9557 35.0025 64.9329 35.0379 64.9238 35.0773C64.8949 35.2013 64.969 35.324 65.0134 35.4432L69.373 47.1602M69.5004 42.6738C69.5651 40.9202 68.4826 39.9558 68.6242 38.3898C68.7655 36.8237 67.9023 35.9384 67.7021 35.3294C67.5018 34.7204 67.9187 34.3562 67.7391 34.2695C67.5593 34.1828 67.166 34.664 67.2942 35.5298C67.4224 36.3956 68.082 36.6526 67.927 38.5653C67.772 40.4779 68.7121 40.9234 68.4832 42.6681" fill="#F6B40E"/>
<path d="M70.6009 46.9167L70.1299 34.4316C70.1251 34.303 70.1471 34.1592 70.0709 34.0554C70.0474 34.0234 70.0131 34.0001 69.9632 34C69.9125 34 69.8779 34.024 69.8543 34.0569C69.78 34.1603 69.8013 34.3022 69.7965 34.4295L69.3244 46.9168M71.1651 42.8204C71.8983 41.225 71.2687 39.9212 72.0008 38.5284C72.7328 37.1354 72.2754 35.9882 72.3243 35.3493C72.3731 34.7102 72.8981 34.5328 72.7655 34.3842C72.6327 34.2355 72.0846 34.5301 71.8705 35.3789C71.6564 36.2277 72.1671 36.7167 71.2893 38.4246C70.4116 40.1326 71.109 40.9026 70.2275 42.4272" fill="#F6B40E"/>
<path d="M70.553 47.1603L74.9123 35.4457C74.9572 35.325 75.0329 35.2006 75.0022 35.0756C74.9928 35.0371 74.9701 35.0025 74.924 34.9834C74.8769 34.9639 74.8356 34.9732 74.801 34.9948C74.6933 35.0622 74.6585 35.2007 74.6053 35.3161L69.3736 46.6736M72.647 43.5907C73.9371 42.3963 73.8561 40.9516 75.0674 39.9441C76.2787 38.9362 76.2966 37.702 76.5872 37.1304C76.8777 36.5585 77.4309 36.5948 77.3654 36.407C77.2998 36.2189 76.6803 36.2821 76.1565 36.9846C75.6328 37.6872 75.9168 38.3337 74.4499 39.5769C72.9831 40.8202 73.3317 41.7975 71.9318 42.87" fill="#F6B40E"/>
<path d="M70.4146 47.3668L78.9416 38.2056C79.029 38.1117 79.146 38.026 79.1662 37.8992C79.1724 37.8598 79.1648 37.8189 79.1294 37.7836C79.0932 37.7474 79.0511 37.7403 79.0107 37.7473C78.8858 37.7689 78.8008 37.8829 78.7077 37.9689L69.512 46.4674M73.7201 44.8674C75.3707 44.2559 75.8507 42.8903 77.3568 42.4213C78.8629 41.9521 79.3534 40.8186 79.8415 40.4013C80.3295 39.9838 80.8267 40.2282 80.8383 40.0297C80.8499 39.831 80.2533 39.6531 79.4996 40.1025C78.7459 40.5518 78.76 41.2574 76.9273 41.8466C75.0946 42.4359 75.0413 43.4718 73.3361 43.9288" fill="#F6B40E"/>
<path d="M70.2069 47.5048L81.6038 42.2922C81.7203 42.239 81.8604 42.2045 81.9279 42.0957C81.9491 42.0616 81.958 42.0207 81.9388 41.9742C81.9191 41.9268 81.8827 41.9042 81.8425 41.8953C81.7189 41.8682 81.5973 41.9406 81.4786 41.9844L69.7184 46.3297M74.2207 46.4561C75.9805 46.5206 76.9484 45.442 78.5199 45.583C80.0916 45.7238 80.9801 44.8637 81.5913 44.6642C82.2025 44.4646 82.568 44.88 82.6549 44.7011C82.7419 44.5219 82.2591 44.13 81.3902 44.2578C80.5213 44.3855 80.2633 45.0428 78.3438 44.8883C76.4244 44.7339 75.9773 45.6706 74.2264 45.4426" fill="#F6B40E"/>
<path d="M69.9627 47.5533L82.4942 47.0834C82.622 47.0786 82.7643 47.1001 82.8684 47.0257C82.9013 47.0022 82.9254 46.9678 82.9255 46.9174C82.9255 46.866 82.9005 46.8312 82.8667 46.8077C82.7629 46.7355 82.623 46.7561 82.4967 46.7513L69.9626 46.2813M74.0737 48.115C75.6748 48.8456 76.9832 48.2182 78.3809 48.9478C79.7789 49.6771 80.9301 49.2213 81.5713 49.2701C82.2127 49.3187 82.3908 49.8419 82.5399 49.7097C82.6891 49.5774 82.3934 49.0312 81.5416 48.8179C80.6898 48.6046 80.1991 49.1134 78.485 48.2388C76.771 47.3642 75.9982 48.0591 74.4682 47.1808" fill="#F6B40E"/>
<path d="M69.7182 47.5049L81.4761 51.8493C81.5962 51.8937 81.7197 51.9679 81.8443 51.9388C81.8837 51.9296 81.9191 51.907 81.9385 51.8605C81.9582 51.8131 81.9486 51.7716 81.9265 51.737C81.8584 51.6304 81.7209 51.596 81.6059 51.5434L70.2067 46.3298M73.3006 49.5915C74.4992 50.877 75.949 50.7963 76.9602 52.0033C77.9716 53.2103 79.2102 53.2281 79.7839 53.5177C80.3578 53.8072 80.3214 54.3584 80.5099 54.2932C80.6986 54.2278 80.6352 53.6105 79.9301 53.0886C79.2251 52.5667 78.5763 52.8497 77.3286 51.388C76.0809 49.9264 75.1001 50.2737 74.0239 48.8788" fill="#F6B40E"/>
<path d="M69.5111 47.3671L78.7049 55.8638C78.7992 55.951 78.8852 56.0673 79.012 56.0875C79.0516 56.0939 79.0928 56.0864 79.1284 56.051C79.1646 56.015 79.1718 55.9732 79.1649 55.9331C79.1434 55.8081 79.0287 55.7235 78.9423 55.6307L70.4137 46.4676M72.0194 50.6609C72.6331 52.3056 74.0035 52.7839 74.4741 54.2846C74.9451 55.7854 76.0826 56.2742 76.5013 56.7605C76.9203 57.2468 76.6751 57.7422 76.8742 57.7538C77.0737 57.7653 77.2522 57.1708 76.8012 56.4198C76.3503 55.6688 75.6422 55.6828 75.0509 53.8566C74.4595 52.0305 73.4199 51.9774 72.9613 50.2782" fill="#F6B40E"/>
<path d="M70.4253 51.1598C70.3607 52.9133 71.4431 53.8778 71.3016 55.4437C71.1603 57.0098 72.0235 57.8952 72.2236 58.5042C72.424 59.1132 72.0071 59.4774 72.1867 59.564C72.3665 59.6507 72.7597 59.1696 72.6315 58.3038C72.5033 57.4379 71.8437 57.1809 71.9988 55.2682C72.1537 53.3556 71.2137 52.9101 71.4425 51.1655M68.7606 51.0132C68.0274 52.6086 68.6571 53.9124 67.9249 55.3052C67.1929 56.6982 67.6504 57.8453 67.6014 58.4842C67.5526 59.1233 67.0276 59.3008 67.1603 59.4493C67.2931 59.598 67.8412 59.3034 68.0553 58.4546C68.2693 57.6059 67.7587 57.1169 68.6365 55.4089C69.5141 53.7009 68.8167 52.9309 69.6982 51.4063M69.3728 46.6732L64.9461 58.5689C64.9461 58.5689 64.8543 58.7891 65.0017 58.8501C65.1491 58.9111 65.2407 58.6906 65.2407 58.6906L70.5521 47.16M67.2788 50.2429C65.9886 51.4372 66.0697 52.8819 64.8583 53.8895C63.6471 54.8973 63.6292 56.1316 63.3386 56.7032C63.048 57.275 62.4948 57.2388 62.5603 57.4266C62.6259 57.6146 63.2454 57.5514 63.7692 56.8489C64.293 56.1464 64.0089 55.4999 65.4759 54.2566C66.9427 53.0134 66.5941 52.036 67.994 50.9636M69.5112 46.4668L60.853 55.7689C60.853 55.7689 60.6836 55.9374 60.7963 56.05C60.9091 56.1625 61.0784 55.9937 61.0784 55.9937L70.4138 47.3662M66.2056 48.9662C64.555 49.5777 64.0751 50.9433 62.569 51.4122C61.0629 51.8815 60.5723 53.0149 60.0843 53.4322C59.5963 53.8497 59.0991 53.6053 59.0875 53.8038C59.0759 54.0025 59.6725 54.1804 60.4262 53.7311C61.1799 53.2817 61.1658 52.5761 62.9985 51.9869C64.8311 51.3976 64.8844 50.3617 66.5896 49.9048M69.7185 46.3288L58.147 51.6212C58.147 51.6212 57.9258 51.7123 57.9867 51.8593C58.0477 52.0063 58.2688 51.9149 58.2688 51.9149L70.207 47.5039M65.7047 47.3774C63.9449 47.313 62.977 48.3916 61.4055 48.2505C59.8338 48.1098 58.9453 48.9699 58.3342 49.1693C57.723 49.3689 57.3575 48.9536 57.2705 49.1325C57.1835 49.3117 57.6664 49.7035 58.5353 49.5758C59.4042 49.448 59.6621 48.7908 61.5816 48.9453C63.5011 49.0997 63.9481 48.163 65.699 48.391M69.9628 46.2803L57.2395 46.7573C57.2395 46.7573 57.0002 46.7571 57 46.9162C56.9999 47.0752 57.2393 47.0751 57.2393 47.0751L69.9628 47.5522M65.8518 45.7185C64.2507 44.9879 62.9422 45.6154 61.5445 44.8858C60.1465 44.1564 58.9953 44.6122 58.3541 44.5634C57.7128 44.5148 57.5347 43.9917 57.3856 44.1238C57.2364 44.2562 57.532 44.8023 58.3838 45.0157C59.2356 45.229 59.7264 44.7201 61.4404 45.5948C63.1545 46.4694 63.9272 45.7744 65.4573 46.6528M70.2072 46.3287L58.2692 41.9177C58.2692 41.9177 58.0482 41.8262 57.987 41.9731C57.9258 42.12 58.147 42.2112 58.147 42.2112L69.7188 47.5038M66.6249 44.242C65.4263 42.9565 63.9764 43.0372 62.9653 41.8302C61.9538 40.6233 60.7152 40.6054 60.1416 40.3158C59.5677 40.0263 59.6041 39.4751 59.4156 39.5404C59.2269 39.6057 59.2903 40.223 59.9953 40.7449C60.7004 41.2668 61.3492 40.9838 62.5968 42.4455C63.8445 43.9072 64.8253 43.5598 65.9016 44.9547M70.4144 46.4665L61.0791 37.839C61.0791 37.839 60.91 37.6702 60.7971 37.7826C60.6841 37.895 60.8535 38.0636 60.8535 38.0636L69.5118 47.3659M67.9061 43.1727C67.2924 41.5279 65.9219 41.0497 65.4513 39.549C64.9804 38.0482 63.8429 37.5594 63.4241 37.0731C63.0051 36.5868 63.2504 36.0914 63.0512 36.0798C62.8518 36.0683 62.6733 36.6627 63.1242 37.4138C63.5752 38.1648 64.2833 38.1507 64.8746 39.9769C65.466 41.8031 66.5055 41.8562 66.9641 43.5553M69.5004 42.6738C69.5651 40.9202 68.4826 39.9558 68.6242 38.3898C68.7655 36.8237 67.9023 35.9384 67.7021 35.3294C67.5018 34.7204 67.9187 34.3562 67.7391 34.2695C67.5593 34.1828 67.166 34.664 67.2942 35.5298C67.4224 36.3956 68.082 36.6526 67.927 38.5653C67.772 40.4779 68.7121 40.9234 68.4832 42.6681M71.1651 42.8204C71.8983 41.225 71.2687 39.9212 72.0008 38.5284C72.7328 37.1354 72.2754 35.9882 72.3243 35.3493C72.3731 34.7102 72.8981 34.5328 72.7655 34.3842C72.6327 34.2355 72.0846 34.5301 71.8705 35.3789C71.6564 36.2277 72.1671 36.7167 71.2893 38.4246C70.4116 40.1326 71.109 40.9026 70.2275 42.4272M70.553 47.1603L74.9796 35.2647C74.9796 35.2647 75.0714 35.0444 74.924 34.9834C74.7766 34.9224 74.6851 35.1429 74.6851 35.1429L69.3736 46.6736M72.647 43.5907C73.9371 42.3963 73.8561 40.9516 75.0674 39.9441C76.2787 38.9362 76.2966 37.702 76.5872 37.1304C76.8777 36.5585 77.4309 36.5948 77.3654 36.407C77.2998 36.2189 76.6803 36.2821 76.1565 36.9846C75.6328 37.6872 75.9168 38.3337 74.4499 39.5769C72.9831 40.8202 73.3317 41.7975 71.9318 42.87M70.4146 47.3668L79.0728 38.0646C79.0728 38.0646 79.2422 37.8962 79.1294 37.7836C79.0166 37.671 78.8474 37.8398 78.8474 37.8398L69.512 46.4674M73.7201 44.8674C75.3707 44.2559 75.8507 42.8903 77.3568 42.4213C78.8629 41.9521 79.3534 40.8186 79.8415 40.4013C80.3295 39.9838 80.8267 40.2282 80.8383 40.0297C80.8499 39.831 80.2533 39.6531 79.4996 40.1025C78.7459 40.5518 78.76 41.2574 76.9273 41.8466C75.0946 42.4359 75.0413 43.4718 73.3361 43.9288M70.2069 47.5048L81.7785 42.2123C81.7785 42.2123 81.9997 42.1213 81.9388 41.9742C81.8778 41.8273 81.6566 41.9187 81.6566 41.9187L69.7184 46.3297M74.2207 46.4561C75.9805 46.5206 76.9484 45.442 78.5199 45.583C80.0916 45.7238 80.9801 44.8637 81.5913 44.6642C82.2025 44.4646 82.568 44.88 82.6549 44.7011C82.7419 44.5219 82.2591 44.13 81.3902 44.2578C80.5213 44.3855 80.2633 45.0428 78.3438 44.8883C76.4244 44.7339 75.9773 45.6706 74.2264 45.4426M69.9627 47.5533L82.6859 47.0762C82.6859 47.0762 82.9253 47.0764 82.9255 46.9174C82.9256 46.7583 82.6861 46.7584 82.6861 46.7584L69.9626 46.2813M74.0737 48.115C75.6748 48.8456 76.9832 48.2182 78.3809 48.9478C79.7789 49.6771 80.9301 49.2213 81.5713 49.2701C82.2127 49.3187 82.3908 49.8419 82.5399 49.7097C82.6891 49.5774 82.3934 49.0312 81.5416 48.8179C80.6898 48.6046 80.1991 49.1134 78.485 48.2388C76.771 47.3642 75.9982 48.0591 74.4682 47.1808M69.7182 47.5049L81.6562 51.9159C81.6562 51.9159 81.8773 52.0073 81.9385 51.8605C81.9997 51.7136 81.7784 51.6223 81.7784 51.6223L70.2067 46.3298M73.3006 49.5915C74.4992 50.877 75.949 50.7963 76.9602 52.0033C77.9716 53.2103 79.2102 53.2281 79.7839 53.5177C80.3578 53.8072 80.3214 54.3584 80.5099 54.2932C80.6986 54.2278 80.6352 53.6105 79.9301 53.0886C79.2251 52.5667 78.5763 52.8497 77.3286 51.388C76.0809 49.9264 75.1001 50.2737 74.0239 48.8788M69.5111 47.3671L78.8463 55.9945C78.8463 55.9945 79.0154 56.1633 79.1284 56.051C79.2413 55.9386 79.0719 55.7699 79.0719 55.7699L70.4137 46.4676M72.0194 50.6609C72.6331 52.3056 74.0035 52.7839 74.4741 54.2846C74.9451 55.7854 76.0825 56.2742 76.5013 56.7605C76.9203 57.2468 76.6751 57.7422 76.8742 57.7538C77.0737 57.7653 77.2522 57.1708 76.8012 56.4198C76.3503 55.6688 75.6422 55.6828 75.0509 53.8566C74.4595 52.0305 73.4199 51.9774 72.9613 50.2782M69.373 47.1602L74.6843 58.6907C74.6843 58.6907 74.7756 58.9111 74.9232 58.8504C75.0707 58.7897 74.979 58.5693 74.979 58.5693L70.5523 46.6734L65.2415 35.1428C65.2415 35.1428 65.1501 34.9224 65.0026 34.9831C64.8551 35.0439 64.9468 35.2643 64.9468 35.2643L69.373 47.1602ZM69.3244 46.9168L69.8031 59.5949C69.8031 59.5949 69.8029 59.8334 69.9625 59.8336C70.1221 59.8337 70.122 59.5951 70.122 59.5951L70.6009 46.9167L70.1226 34.2387C70.1226 34.2387 70.1228 34.0002 69.9632 34C69.8036 33.9999 69.8037 34.2385 69.8037 34.2385L69.3244 46.9168Z" stroke="#85340A" stroke-width="0.327544"/>
<path d="M70.5549 51.2593C70.5559 51.2795 70.557 51.2995 70.5583 51.3195C70.59 51.8201 70.8673 51.7782 70.8832 51.2768M69.4554 46.858L73.0929 54.7773L70.0449 46.6143" fill="#85340A"/>
<path d="M68.75 51.2205C68.7433 51.2393 68.7367 51.2579 68.7303 51.2766C68.5676 51.7502 68.8399 51.818 69.0466 51.3618M69.4246 46.735L69.7438 55.4385L70.0628 46.7346" fill="#85340A"/>
<path d="M67.0975 50.4964C67.0842 50.511 67.071 50.5256 67.0581 50.5403C66.7267 50.9148 66.952 51.0817 67.3172 50.74M69.4433 46.6095L66.3957 54.7723L70.033 46.8525" fill="#85340A"/>
<path d="M65.8488 49.1972C65.8308 49.2056 65.813 49.2142 65.7954 49.2228C65.3461 49.4421 65.4903 49.6822 65.9582 49.5061M69.5088 46.5007L63.5582 52.88L69.9603 46.9501" fill="#85340A"/>
<path d="M65.1941 47.5207C65.1741 47.5217 65.1542 47.5228 65.1344 47.5241C64.6349 47.5554 64.6764 47.8321 65.1766 47.8478M69.6111 46.4252L61.6636 50.0497L69.8557 47.0125" fill="#85340A"/>
<path d="M65.2331 45.7222C65.2139 45.7154 65.1948 45.7087 65.1757 45.7022C64.7013 45.5405 64.6341 45.812 65.0912 46.0177M69.7346 46.3944L61 46.7124L69.7349 47.0303" fill="#85340A"/>
<path d="M65.9598 44.0754C65.9445 44.0617 65.9293 44.0482 65.9141 44.0348C65.5369 43.7037 65.371 43.9291 65.7152 44.2944M69.8605 46.413L61.6686 43.3761L69.6166 47.0006" fill="#85340A"/>
<path d="M67.2637 42.8312C67.2549 42.8127 67.246 42.7944 67.2371 42.7763C67.0154 42.3258 66.7756 42.4707 66.9536 42.9402M69.9697 46.4782L63.5677 40.5488L69.5187 46.9281" fill="#85340A"/>
<path d="M68.9459 42.1792C68.9449 42.159 68.9438 42.139 68.9425 42.1191C68.9108 41.6184 68.6335 41.6603 68.6177 42.1617M70.0454 46.5805L66.4079 38.6612L69.4559 46.8242" fill="#85340A"/>
<path d="M70.7508 42.218C70.7575 42.1993 70.7641 42.1806 70.7705 42.162C70.9332 41.6883 70.661 41.6205 70.4542 42.0767M70.0763 46.7036L69.757 38L69.4381 46.7039" fill="#85340A"/>
<path d="M72.4034 42.9422C72.4167 42.9275 72.4298 42.9129 72.4427 42.8983C72.7742 42.5237 72.5489 42.3568 72.1837 42.6985M70.0575 46.829L73.1052 38.6663L69.4678 46.586" fill="#85340A"/>
<path d="M73.6521 44.2414C73.67 44.2329 73.6878 44.2244 73.7054 44.2158C74.1547 43.9965 74.0105 43.7563 73.5427 43.9325M69.992 46.9378L75.9426 40.5586L69.5405 46.4884" fill="#85340A"/>
<path d="M74.3064 45.9178C74.3264 45.9168 74.3464 45.9157 74.3662 45.9145C74.8656 45.8831 74.8241 45.6064 74.3239 45.5907M69.8894 47.0134L77.8369 43.3888L69.6449 46.426" fill="#85340A"/>
<path d="M74.2675 47.7163C74.2867 47.7232 74.3058 47.7298 74.3248 47.7363C74.7992 47.898 74.8664 47.6265 74.4093 47.4208M69.766 47.0442L78.5005 46.7261L69.7656 46.4083" fill="#85340A"/>
<path d="M73.5408 49.3631C73.556 49.3768 73.5712 49.3904 73.5864 49.4037C73.9637 49.7349 74.1295 49.5095 73.7853 49.1441M69.64 47.0255L77.8319 50.0624L69.884 46.4379" fill="#85340A"/>
<path d="M72.2369 50.6073C72.2457 50.6258 72.2545 50.6441 72.2634 50.6622C72.4851 51.1128 72.7249 50.9678 72.5469 50.4983M69.5308 46.9603L75.9328 52.8897L69.9818 46.5104" fill="#85340A"/>
<path d="M69.7505 51.8861C72.6141 51.8861 74.9356 49.5729 74.9356 46.7194C74.9356 43.8659 72.6141 41.5527 69.7505 41.5527C66.8868 41.5527 64.5654 43.8659 64.5654 46.7194C64.5654 49.5729 66.8868 51.8861 69.7505 51.8861Z" fill="#F6B40E"/>
<path fill-rule="evenodd" clip-rule="evenodd" d="M69.7505 41.6925C66.9638 41.6925 64.7054 43.9434 64.7054 46.7194C64.7054 49.4954 66.9638 51.7463 69.7505 51.7463C72.5371 51.7463 74.7956 49.4954 74.7956 46.7194C74.7956 43.9434 72.5371 41.6925 69.7505 41.6925ZM64.4254 46.7194C64.4254 43.7884 66.8098 41.4129 69.7505 41.4129C72.6912 41.4129 75.0756 43.7884 75.0756 46.7194C75.0756 49.6504 72.6912 52.0259 69.7505 52.0259C66.8098 52.0259 64.4254 49.6504 64.4254 46.7194Z" fill="#85340A"/>
<path d="M71.5182 45.6146C71.4523 45.6146 71.387 45.6199 71.3231 45.6305C70.8336 45.7119 70.9257 46.3431 71.4215 46.3618C71.4358 46.3624 71.4502 46.3627 71.4647 46.3629C72.0526 46.3709 72.1062 45.6146 71.5182 45.6146ZM71.5123 45.6959C71.5824 45.6947 71.6515 45.7002 71.7176 45.7111C72.0909 45.7727 72.0753 46.2238 71.7056 46.3044C71.668 46.3127 71.63 46.3187 71.5919 46.3226C71.1057 46.3724 71.0237 45.7048 71.5123 45.6959Z" fill="#843511"/>
<path d="M71.5854 45.369C71.0671 45.369 70.9472 45.4884 70.7079 45.6871C70.4684 45.8858 70.3489 45.8459 70.3091 45.8858C70.2694 45.9256 70.3091 46.0446 70.3887 46.0048C70.4683 45.965 70.6283 45.8858 70.8672 45.687C71.1067 45.4881 71.3457 45.4883 71.5851 45.4883C72.3031 45.4883 72.7019 46.0844 72.7815 46.0446C72.8612 46.0047 72.3829 45.369 71.5854 45.369Z" fill="#85340A"/>
<path d="M70.4343 44.9595C70.777 44.7667 70.6199 45.0094 70.3274 45.2721C70.313 45.285 70.3026 45.2971 70.2912 45.3128C70.1449 45.5145 70.0507 45.7294 70.0111 45.9533C69.9355 46.3792 70.0569 46.8374 70.3681 47.3077C70.3928 47.3449 70.3717 47.4072 70.3326 47.4289C70.3002 47.4469 70.2512 47.4419 70.2347 47.4088C69.944 46.8264 69.8438 46.2304 69.9439 45.6626C69.9654 45.541 69.9964 45.421 70.0356 45.3034C70.0563 45.2415 70.0952 45.1874 70.1472 45.1481C70.2399 45.0779 70.3358 45.0149 70.4343 44.9595Z" fill="#85340A"/>
<path d="M71.5054 46.361C71.7036 46.361 71.8643 46.2008 71.8643 46.0033C71.8643 45.8058 71.7036 45.6456 71.5054 45.6456C71.3071 45.6456 71.1464 45.8058 71.1464 46.0033C71.1464 46.2008 71.3071 46.361 71.5054 46.361Z" fill="#85340A"/>
<path d="M70.9473 46.4022C71.182 46.5192 71.2438 46.6644 70.9962 46.5782C70.9206 46.5519 70.8509 46.5193 70.7881 46.4817C70.3892 46.2432 70.3892 46.1639 70.4689 46.1639C70.5485 46.1639 70.6281 46.2432 70.9473 46.4022Z" fill="#85340A"/>
<path d="M68.7998 47.6603C68.7998 47.6316 68.7363 47.5702 68.721 47.5946C68.6857 47.651 68.6655 47.7178 68.6655 47.7882C68.6655 47.9856 68.8293 48.1427 69.0272 48.1427C69.2141 48.1427 69.4522 48.0821 69.638 48.1015C69.681 48.1059 69.7198 48.1073 69.7505 48.1078C69.7663 48.1082 69.7866 48.1078 69.7972 48.1078C69.8279 48.1073 69.8667 48.1059 69.9097 48.1014C70.0955 48.0821 70.3336 48.1427 70.5205 48.1427C70.7184 48.1427 70.8822 47.9856 70.8822 47.7882C70.8822 47.7178 70.8621 47.6511 70.8267 47.5946C70.8115 47.5703 70.748 47.6316 70.748 47.6603C70.748 47.7919 70.6414 47.8986 70.5088 47.8986C70.4092 47.8986 70.106 47.8793 70.0181 47.9263C69.9509 47.9621 69.8699 47.9879 69.7739 47.9916C69.6779 47.9879 69.5968 47.9621 69.5296 47.9263C69.4417 47.8793 69.1386 47.8986 69.0389 47.8986C68.9064 47.8986 68.7998 47.7919 68.7998 47.6603Z" fill="#85340A"/>
<path d="M69.3472 48.492C68.9481 48.492 68.7904 48.8522 68.4314 49.0907C68.6309 49.0114 68.7878 48.8546 69.0672 48.6954C69.3464 48.5365 69.5846 48.7303 69.7438 48.7303H69.7497C69.9089 48.7303 70.1471 48.5366 70.4263 48.6954C70.7057 48.8546 70.8685 49.0114 71.068 49.0907C70.709 48.8522 70.5454 48.492 70.1463 48.492C70.0671 48.492 69.9107 48.5344 69.7523 48.6127C69.7506 48.6136 69.7487 48.614 69.7468 48.614C69.7448 48.614 69.7429 48.6136 69.7412 48.6127C69.5828 48.5343 69.4264 48.492 69.3472 48.492Z" fill="#85340A"/>
<path d="M69.2128 48.9626C69.0553 48.9696 68.847 49.0011 68.5478 49.0907C69.266 48.9315 69.4245 49.1723 69.7436 49.1723H69.7495C70.0687 49.1723 70.2271 48.9314 70.9453 49.0907C70.1474 48.8518 69.9888 49.0092 69.7495 49.0092H69.7436C69.5941 49.0092 69.4754 48.9509 69.2128 48.9626Z" fill="#85340A"/>
<path d="M68.5838 49.0853C68.5375 49.0859 68.4862 49.0858 68.4314 49.0907C69.2691 49.1702 68.8672 49.6491 69.7446 49.6491H69.7504C70.6279 49.6491 70.2302 49.1702 71.068 49.0907C70.1905 49.0113 70.4687 49.5271 69.7504 49.5271H69.7446C69.0712 49.5271 69.2787 49.0767 68.5838 49.0853Z" fill="#85340A"/>
<path d="M69.7511 49.8108C69.8883 49.8108 70.0251 49.7006 69.8905 49.6741C69.8454 49.6653 69.7988 49.6607 69.7511 49.6607C69.7034 49.6607 69.6568 49.6653 69.6117 49.6742C69.4769 49.7006 69.6138 49.8108 69.7511 49.8108Z" fill="#85340A"/>
<path d="M69.1134 44.9595C68.7707 44.7667 68.9278 45.0094 69.2203 45.2721C69.2347 45.285 69.245 45.2971 69.2564 45.3128C69.4028 45.5145 69.497 45.7294 69.5365 45.9533C69.6121 46.3792 69.4908 46.8374 69.1796 47.3077C69.1549 47.3449 69.176 47.4072 69.2151 47.4289C69.2474 47.4469 69.2965 47.4419 69.313 47.4088C69.6036 46.8264 69.7039 46.2304 69.6038 45.6626C69.5823 45.541 69.5513 45.421 69.512 45.3034C69.4914 45.2415 69.4525 45.1874 69.4005 45.1481C69.3078 45.0779 69.2118 45.0149 69.1134 44.9595Z" fill="#85340A"/>
<path d="M67.9623 45.369C68.4806 45.369 68.6004 45.4884 68.8397 45.6871C69.0793 45.8858 69.1987 45.8459 69.2386 45.8858C69.2782 45.9256 69.2386 46.0446 69.1589 46.0048C69.0793 45.965 68.9194 45.8858 68.6805 45.687C68.4409 45.4881 68.202 45.4883 67.9625 45.4883C67.2446 45.4883 66.8457 46.0844 66.7661 46.0446C66.6865 46.0047 67.1647 45.369 67.9623 45.369Z" fill="#85340A"/>
<path d="M67.9378 45.6146C67.872 45.6146 67.8067 45.6199 67.7427 45.6305C67.2533 45.7119 67.3453 46.3431 67.8411 46.3618C67.8554 46.3624 67.8698 46.3627 67.8843 46.3629C68.4722 46.3709 68.5258 45.6146 67.9378 45.6146ZM67.932 45.6959C68.002 45.6947 68.0712 45.7002 68.1372 45.7111C68.5105 45.7727 68.4949 46.2238 68.1253 46.3044C68.0876 46.3127 68.0496 46.3187 68.0115 46.3226C67.5254 46.3724 67.4434 45.7048 67.932 45.6959Z" fill="#843511"/>
<path d="M67.9847 46.361C68.183 46.361 68.3437 46.2008 68.3437 46.0033C68.3437 45.8058 68.183 45.6456 67.9847 45.6456C67.7865 45.6456 67.6258 45.8058 67.6258 46.0033C67.6258 46.2008 67.7865 46.361 67.9847 46.361Z" fill="#85340A"/>
<path d="M68.6003 46.4022C68.3656 46.5192 68.3038 46.6644 68.5515 46.5782C68.6271 46.5519 68.6968 46.5193 68.7596 46.4817C69.1584 46.2432 69.1584 46.1639 69.0788 46.1639C68.9992 46.1639 68.9195 46.2432 68.6003 46.4022Z" fill="#85340A"/>
</svg>
