<svg width="158" height="111" viewBox="0 0 158 111" fill="none" xmlns="http://www.w3.org/2000/svg">
<g filter="url(#filter0_d_41_3011)">
<g clip-path="url(#clip0_41_3011)">
<rect x="9" y="5" width="140" height="93" rx="10" fill="#0B7FFB" shape-rendering="crispEdges"/>
<g clip-path="url(#clip1_41_3011)">
<path d="M149 4.99994H9V97.9999H149V4.99994Z" fill="white"/>
<path d="M149 84.4628L29.0737 5.00009H9V18.2385L129.376 98H149V84.4628Z" fill="#0099CC"/>
<path d="M78.2091 75.9613C64.1779 75.9613 64.6335 62.8067 64.6335 62.8067V42.6165H91.7842V62.8067C91.7842 62.8067 92.2595 75.9613 78.2091 75.9613Z" fill="#005BBF"/>
<path d="M78.2091 75.9613C64.1779 75.9613 64.6335 62.8067 64.6335 62.8067V42.6165H91.7842V62.8067C91.7842 62.8067 92.2595 75.9613 78.2091 75.9613Z" stroke="black" stroke-width="1.0064"/>
<path d="M78.0897 29.9098C78.0897 29.9098 75.1949 28.5064 72.4564 30.5727C72.4564 30.5727 67.5288 29.864 67.1662 34.5674C67.1516 34.7578 67.1219 35.1085 67.2099 35.2107C67.2979 35.3129 67.3859 35.5034 67.3859 35.6341C67.3859 35.7659 67.4739 35.839 67.5036 35.8971C67.5327 35.9557 67.6062 36.0434 67.6207 36.2919C67.6353 36.5405 67.5916 36.6572 67.8264 36.9057C68.0607 37.1542 68.0753 37.8707 68.0753 38.0751C68.0753 38.2795 68.2221 38.8497 68.3247 38.967C68.4272 39.0837 68.6032 39.3758 68.6032 39.6243C68.6032 39.8728 68.7058 40.5597 68.6615 40.7345C68.6178 40.9099 68.9255 41.1293 69.2046 41.217C69.4832 41.3047 72.9452 42.43 77.991 42.3423C83.0375 42.2547 84.8545 41.9872 86.9395 41.2316C87.2617 41.1148 87.3206 40.8518 87.2914 40.7055C87.2617 40.5597 87.2914 40.0923 87.3794 39.975C87.4674 39.8583 88.0542 38.9229 87.9365 38.7475C87.8194 38.5721 87.8194 38.1918 87.9365 38.0461C88.0542 37.8998 88.4213 37.1966 88.4936 36.9057C88.5665 36.6142 88.576 36.2707 88.7105 36.1691C88.8456 36.0674 88.891 35.7379 88.9168 35.6692C88.9431 35.6 89.0412 35.3855 89.178 35.2878C89.178 35.2878 89.4324 34.0994 89.2755 33.5152C89.1197 32.9305 88.2392 30.4163 84.66 30.943C84.66 30.943 82.0001 28.9353 78.0886 29.9098" fill="#D81126"/>
<path d="M78.0897 29.9098C78.0897 29.9098 75.1949 28.5064 72.4564 30.5727C72.4564 30.5727 67.5288 29.864 67.1662 34.5674C67.1516 34.7578 67.1219 35.1085 67.2099 35.2107C67.2979 35.3129 67.3859 35.5034 67.3859 35.6341C67.3859 35.7659 67.4739 35.839 67.5036 35.8971C67.5327 35.9557 67.6062 36.0434 67.6207 36.2919C67.6353 36.5405 67.5916 36.6572 67.8264 36.9057C68.0607 37.1542 68.0753 37.8707 68.0753 38.0751C68.0753 38.2795 68.2221 38.8497 68.3247 38.967C68.4272 39.0837 68.6032 39.3758 68.6032 39.6243C68.6032 39.8728 68.7058 40.5597 68.6615 40.7345C68.6178 40.9099 68.9255 41.1293 69.2046 41.217C69.4832 41.3047 72.9452 42.43 77.991 42.3423C83.0375 42.2547 84.8545 41.9872 86.9395 41.2316C87.2617 41.1148 87.3206 40.8518 87.2914 40.7055C87.2617 40.5597 87.2914 40.0923 87.3794 39.975C87.4674 39.8583 88.0542 38.9229 87.9365 38.7475C87.8194 38.5721 87.8194 38.1918 87.9365 38.0461C88.0542 37.8998 88.4213 37.1966 88.4936 36.9057C88.5665 36.6142 88.576 36.2707 88.7105 36.1691C88.8456 36.0674 88.891 35.7379 88.9168 35.6692C88.9431 35.6 89.0412 35.3855 89.178 35.2878C89.178 35.2878 89.4324 34.0994 89.2755 33.5152C89.1197 32.9305 88.2392 30.4163 84.66 30.943C84.66 30.943 82.0001 28.9353 78.0886 29.9098H78.0897Z" stroke="black" stroke-width="1.5084"/>
<path d="M87.7748 38.6654C76.783 35.1962 68.3115 38.4934 68.3115 38.4934C68.3115 38.4934 68.39 38.876 68.4875 38.9927C68.5856 39.1094 68.7223 39.3825 68.7223 39.5874C68.7223 39.7918 68.742 40.0845 68.742 40.2403C68.742 40.3955 68.622 41.0947 69.2492 41.0864C69.2492 41.0864 76.8889 38.1003 86.8372 41.2399C86.8372 41.2399 87.1096 40.9964 87.1197 40.6457C87.1292 40.295 87.1875 39.9248 87.3248 39.7299C87.4615 39.5349 87.7743 38.9262 87.7743 38.6654" fill="#BCAC0B"/>
<path d="M77.5838 56.9211H72.8114C72.8114 56.9211 72.3418 61.1693 76.019 62.456V62.8458H76.8014V63.3523C76.8014 63.3523 75.4518 64.5603 76.6249 65.9442V66.3731H76.821V67.0549H77.0357V68.1652C77.0357 68.1652 76.8597 72.1314 72.9577 74.0313V74.2653H83.3762V74.0313C79.4748 72.1314 79.2983 68.1652 79.2983 68.1652V67.0549H79.5129V66.3731H79.7085V65.9442C80.8822 64.5603 79.5325 63.3523 79.5325 63.3523V62.8458H80.315V62.456C83.9922 61.1693 83.5225 56.9211 83.5225 56.9211H77.5832" fill="#C8B100" fill-opacity="0.941176"/>
<path d="M77.5838 56.9211H72.8114C72.8114 56.9211 72.3418 61.1693 76.019 62.456V62.8458H76.8014V63.3523C76.8014 63.3523 75.4518 64.5603 76.6249 65.9442V66.3731H76.821V67.0549H77.0357V68.1652C77.0357 68.1652 76.8597 72.1314 72.9577 74.0313V74.2653H83.3762V74.0313C79.4748 72.1314 79.2983 68.1652 79.2983 68.1652V67.0549H79.5129V66.3731H79.7085V65.9442C80.8822 64.5603 79.5325 63.3523 79.5325 63.3523V62.8458H80.315V62.456C83.9922 61.1693 83.5225 56.9211 83.5225 56.9211H77.5832H77.5838Z" stroke="black" stroke-width="1.0064"/>
<path d="M75.8615 62.3973H80.468M76.0184 62.7481H80.3116M76.8008 63.3328H79.5M76.6243 65.9927H79.7052M76.83 66.3194H79.5197M76.83 66.9823H79.5096M75.1873 72.3659H81.1428M73.5053 73.7397H82.8348M73.1533 73.9441H83.1963" stroke="black" stroke-width="0.2522"/>
<path d="M78.2068 56.6703C79.8871 56.6703 81.2496 55.3127 81.2496 53.6384C81.2496 51.9641 79.8871 50.6065 78.2068 50.6065C76.5266 50.6065 75.1641 51.9641 75.1641 53.6384C75.1641 55.3127 76.5266 56.6703 78.2068 56.6703Z" fill="#CCCCCC"/>
<path d="M78.2068 56.6703C79.8871 56.6703 81.2496 55.3127 81.2496 53.6384C81.2496 51.9641 79.8871 50.6065 78.2068 50.6065C76.5266 50.6065 75.1641 51.9641 75.1641 53.6384C75.1641 55.3127 76.5266 56.6703 78.2068 56.6703Z" stroke="black" stroke-width="1.0064"/>
<path d="M71.1267 47.7617H69.2295V45.8707H67.5476V47.7617H65.6504V49.4371H67.5476V51.3275H69.2295V49.4371H71.1267V47.7617Z" fill="#CCCCCC"/>
<path d="M71.1267 47.7617H69.2295V45.8707H67.5476V47.7617H65.6504V49.4371H67.5476V51.3275H69.2295V49.4371H71.1267V47.7617Z" stroke="black" stroke-width="1.0064"/>
<path d="M90.8445 47.7617H88.9473V45.8707H87.2648V47.7617H85.3682V49.4371H87.2648V51.3275H88.9473V49.4371H90.8445V47.7617Z" fill="#CCCCCC"/>
<path d="M90.8445 47.7617H88.9473V45.8707H87.2648V47.7617H85.3682V49.4371H87.2648V51.3275H88.9473V49.4371H90.8445V47.7617Z" stroke="black" stroke-width="1.0064"/>
<path d="M80.8523 45.386H78.9551V43.4956H77.2732V45.386H75.376V47.0619H77.2732V48.9523H78.9551V47.0619H80.8523V45.386Z" fill="#CCCCCC"/>
<path d="M80.8523 45.386H78.9551V43.4956H77.2732V45.386H75.376V47.0619H77.2732V48.9523H78.9551V47.0619H80.8523V45.386Z" stroke="black" stroke-width="1.0064"/>
<path d="M71.1267 55.9465H69.2295V54.0561H67.5476V55.9465H65.6504V57.6225H67.5476V59.5129H69.2295V57.6225H71.1267V55.9465Z" fill="#CCCCCC"/>
<path d="M71.1267 55.9465H69.2295V54.0561H67.5476V55.9465H65.6504V57.6225H67.5476V59.5129H69.2295V57.6225H71.1267V55.9465Z" stroke="black" stroke-width="1.0064"/>
<path d="M90.8445 55.9465H88.9473V54.0561H87.2648V55.9465H85.3682V57.6225H87.2648V59.5129H88.9473V57.6225H90.8445V55.9465Z" fill="#CCCCCC"/>
<path d="M90.8445 55.9465H88.9473V54.0561H87.2648V55.9465H85.3682V57.6225H87.2648V59.5129H88.9473V57.6225H90.8445V55.9465Z" stroke="black" stroke-width="1.0064"/>
<path d="M71.1267 64.2124H69.2295V62.3214H67.5476V64.2124H65.6504V65.8883H67.5476V67.7782H69.2295V65.8883H71.1267V64.2124Z" fill="#CCCCCC"/>
<path d="M71.1267 64.2124H69.2295V62.3214H67.5476V64.2124H65.6504V65.8883H67.5476V67.7782H69.2295V65.8883H71.1267V64.2124Z" stroke="black" stroke-width="1.0064"/>
<path d="M90.8445 64.2124H88.9473V62.3214H87.2648V64.2124H85.3682V65.8883H87.2648V67.7782H88.9473V65.8883H90.8445V64.2124Z" fill="#CCCCCC"/>
<path d="M90.8445 64.2124H88.9473V62.3214H87.2648V64.2124H85.3682V65.8883H87.2648V67.7782H88.9473V65.8883H90.8445V64.2124Z" stroke="black" stroke-width="1.0064"/>
<path d="M78.1819 25.8626C79.1902 25.8626 80.0079 25.0484 80.0079 24.0437C80.0079 23.039 79.1902 22.2248 78.1819 22.2248C77.1736 22.2248 76.3564 23.039 76.3564 24.0437C76.3564 25.0484 77.1736 25.8626 78.1819 25.8626Z" fill="#005BBF"/>
<path d="M78.1819 25.8626C79.1902 25.8626 80.0079 25.0484 80.0079 24.0437C80.0079 23.039 79.1902 22.2248 78.1819 22.2248C77.1736 22.2248 76.3564 23.039 76.3564 24.0437C76.3564 25.0484 77.1736 25.8626 78.1819 25.8626Z" stroke="black" stroke-width="1.0064"/>
<path d="M79.8842 23.722H78.3877V21.3106H78.9594V20.8281H78.3877V20.2579H77.9035V20.8281H77.3313V21.3106H77.9035V23.722H76.4805V24.0437H77.9035V24.0582H78.3877V24.0437H79.8842V23.722Z" fill="#FFCC00"/>
<path d="M79.8842 23.722H78.3877V21.3106H78.9594V20.8281H78.3877V20.2579H77.9035V20.8281H77.3313V21.3106H77.9035V23.722H76.4805V24.0437H77.9035V24.0582H78.3877V24.0437H79.8842V23.722Z" fill="#BCAC0B" stroke="black" stroke-width="0.501998"/>
<path d="M70.8724 28.0389C70.8724 28.0389 72.222 27.8831 73.0038 28.1948C73.0038 28.1948 72.1076 29.2106 72.2999 30.5526C72.398 31.235 72.5347 31.5857 72.7303 31.9169C72.9259 32.2486 73.1406 32.9305 73.0234 33.4761H73.2779C73.2779 33.4761 73.5323 32.3654 73.1019 31.7416C72.6715 31.1183 72.4562 30.2605 72.8867 29.3642C73.3166 28.4678 73.9426 28.1171 73.9426 28.1171C74.6662 28.4092 76.1923 28.1361 76.6222 27.8245C77.0521 27.5123 77.2673 27.084 76.4658 27.0449C75.6644 27.0058 74.2951 27.0253 73.3564 27.7273C73.3564 27.7273 72.8671 27.1616 70.4223 27.4347C67.9776 27.7078 66.2104 28.7482 65.6696 30.943C65.3961 32.0537 66.4324 34.392 67.3908 34.9572C67.3908 34.9572 67.3616 34.5774 67.4591 34.3044C67.4591 34.3044 65.8259 32.4821 66.3152 30.7866C66.8039 29.0911 68.76 27.9803 70.8724 28.0389Z" fill="#FFCC00"/>
<path d="M70.8724 28.0389C70.8724 28.0389 72.222 27.8831 73.0038 28.1948C73.0038 28.1948 72.1076 29.2106 72.2999 30.5526C72.398 31.235 72.5347 31.5857 72.7303 31.9169C72.9259 32.2486 73.1406 32.9305 73.0234 33.4761H73.2779C73.2779 33.4761 73.5323 32.3654 73.1019 31.7416C72.6715 31.1183 72.4562 30.2605 72.8867 29.3642C73.3166 28.4678 73.9426 28.1171 73.9426 28.1171C74.6662 28.4092 76.1923 28.1361 76.6222 27.8245C77.0521 27.5123 77.2673 27.084 76.4658 27.0449C75.6644 27.0058 74.2951 27.0253 73.3564 27.7273C73.3564 27.7273 72.8671 27.1616 70.4223 27.4347C67.9776 27.7078 66.2104 28.7482 65.6696 30.943C65.3961 32.0537 66.4324 34.392 67.3908 34.9572C67.3908 34.9572 67.3616 34.5774 67.4591 34.3044C67.4591 34.3044 65.8259 32.4821 66.3152 30.7866C66.8039 29.0911 68.76 27.9803 70.8724 28.0389Z" fill="#BCAC0B" stroke="black" stroke-width="0.653319"/>
<path d="M75.4668 27.7033C75.8894 27.6693 76.228 27.5961 76.2235 27.5386C76.219 27.4822 75.8726 27.4632 75.45 27.4972C75.0274 27.5313 74.6889 27.605 74.6934 27.662C74.6979 27.719 75.0443 27.7374 75.4668 27.7033Z" fill="white"/>
<path d="M73.9279 28.1071C74.4121 27.6542 75.4243 27.347 75.9965 27.4788C76.5682 27.6101 75.8934 27.6832 75.7029 27.6977C75.5123 27.7123 75.1306 27.7854 74.5735 27.6977" stroke="black" stroke-width="0.653319"/>
<path d="M85.4626 28.1847C85.4626 28.1847 84.1135 28.0295 83.3311 28.3411C83.3311 28.3411 84.2278 29.3564 84.035 30.6989C83.9375 31.3814 83.8008 31.7321 83.6052 32.0632C83.409 32.3939 83.1943 33.0769 83.3115 33.6225H83.057C83.057 33.6225 82.8031 32.5117 83.233 31.8879C83.6635 31.2641 83.8787 30.4068 83.4482 29.5105C83.0184 28.6136 82.3923 28.2629 82.3923 28.2629C81.6688 28.5555 80.1432 28.2824 79.7127 27.9708C79.2834 27.6586 79.0676 27.2303 79.8691 27.1912C80.6711 27.1521 82.0403 27.1717 82.9791 27.8731C82.9791 27.8731 83.4679 27.3079 85.9126 27.581C88.3579 27.8535 90.1245 28.8945 90.6654 31.0887C90.9394 32.1995 89.9026 34.5384 88.9442 35.1035C88.9442 35.1035 88.9739 34.7238 88.8758 34.4507C88.8758 34.4507 90.509 32.6284 90.0203 30.9329C89.531 29.2374 87.5755 28.1266 85.4626 28.1847Z" fill="#FFCC00"/>
<path d="M85.4626 28.1847C85.4626 28.1847 84.1135 28.0295 83.3311 28.3411C83.3311 28.3411 84.2278 29.3564 84.035 30.6989C83.9375 31.3814 83.8008 31.7321 83.6052 32.0632C83.409 32.3939 83.1943 33.0769 83.3115 33.6225H83.057C83.057 33.6225 82.8031 32.5117 83.233 31.8879C83.6635 31.2641 83.8787 30.4068 83.4482 29.5105C83.0184 28.6136 82.3923 28.2629 82.3923 28.2629C81.6688 28.5555 80.1432 28.2824 79.7127 27.9708C79.2834 27.6586 79.0676 27.2303 79.8691 27.1912C80.6711 27.1521 82.0403 27.1717 82.9791 27.8731C82.9791 27.8731 83.4679 27.3079 85.9126 27.581C88.3579 27.8535 90.1245 28.8945 90.6654 31.0887C90.9394 32.1995 89.9026 34.5384 88.9442 35.1035C88.9442 35.1035 88.9739 34.7238 88.8758 34.4507C88.8758 34.4507 90.509 32.6284 90.0203 30.9329C89.531 29.2374 87.5755 28.1266 85.4626 28.1847Z" fill="#BCAC0B" stroke="black" stroke-width="0.653319"/>
<path d="M80.868 27.8496C80.446 27.8156 80.1069 27.7418 80.1114 27.6849C80.1164 27.6279 80.4622 27.6095 80.8848 27.6436C81.3074 27.6776 81.6465 27.7513 81.642 27.8083C81.637 27.8653 81.2906 27.8837 80.868 27.8496Z" fill="white"/>
<path d="M82.4069 28.2534C81.9232 27.7999 80.911 27.4934 80.3388 27.6246C79.7665 27.7564 80.4413 27.8295 80.6319 27.8441C80.823 27.8586 81.2041 27.9317 81.7618 27.8441" stroke="black" stroke-width="0.653319"/>
<path d="M76.9157 26.6942V31.8784C76.8568 32.3849 77.5411 33.1059 78.0304 33.3204C78.0304 33.3204 79.1844 32.9306 79.2623 31.8784V26.4016H78.8711V31.1373C78.8521 31.6249 78.5388 32.5017 78.1083 32.6385C78.1083 32.6385 77.2676 32.5017 77.2284 31.1569V26.5389L76.9157 26.6942Z" fill="#FFCC00"/>
<path d="M76.9157 26.6942V31.8784C76.8568 32.3849 77.5411 33.1059 78.0304 33.3204C78.0304 33.3204 79.1844 32.9306 79.2623 31.8784V26.4016H78.8711V31.1373C78.8521 31.6249 78.5388 32.5017 78.1083 32.6385C78.1083 32.6385 77.2676 32.5017 77.2284 31.1569V26.5389L76.9157 26.6942Z" fill="#BCAC0B" stroke="black" stroke-width="0.653319"/>
<path d="M65.4053 33.7844C65.7489 33.7844 66.0274 33.5069 66.0274 33.1645C66.0274 32.8228 65.7489 32.5446 65.4053 32.5446C65.0618 32.5446 64.7832 32.8222 64.7832 33.1645C64.7832 33.5069 65.0618 33.7844 65.4053 33.7844Z" fill="white"/>
<path d="M65.4053 33.7844C65.7489 33.7844 66.0274 33.5069 66.0274 33.1645C66.0274 32.8228 65.7489 32.5446 65.4053 32.5446C65.0618 32.5446 64.7832 32.8222 64.7832 33.1645C64.7832 33.5069 65.0618 33.7844 65.4053 33.7844Z" stroke="black" stroke-width="1.0064"/>
<path d="M65.0166 32.3592C65.3608 32.3592 65.6393 32.0817 65.6393 31.7393C65.6393 31.3976 65.3608 31.1194 65.0166 31.1194C64.6731 31.1194 64.3945 31.397 64.3945 31.7393C64.3945 32.0817 64.6731 32.3592 65.0166 32.3592Z" fill="white"/>
<path d="M65.0166 32.3592C65.3608 32.3592 65.6393 32.0817 65.6393 31.7393C65.6393 31.3976 65.3608 31.1194 65.0166 31.1194C64.6731 31.1194 64.3945 31.397 64.3945 31.7393C64.3945 32.0817 64.6731 32.3592 65.0166 32.3592Z" stroke="black" stroke-width="1.0064"/>
<path d="M65.2227 30.6347C65.5663 30.6347 65.8448 30.3571 65.8448 30.0142C65.8448 29.6719 65.5663 29.3943 65.2227 29.3943C64.8791 29.3943 64.6006 29.6719 64.6006 30.0142C64.6006 30.3571 64.8791 30.6347 65.2227 30.6347Z" fill="white"/>
<path d="M65.2227 30.6347C65.5663 30.6347 65.8448 30.3571 65.8448 30.0142C65.8448 29.6719 65.5663 29.3943 65.2227 29.3943C64.8791 29.3943 64.6006 29.6719 64.6006 30.0142C64.6006 30.3571 64.8791 30.6347 65.2227 30.6347Z" stroke="black" stroke-width="1.0064"/>
<path d="M66.1905 29.2022C66.5346 29.2022 66.8132 28.9247 66.8132 28.5823C66.8132 28.2394 66.5346 27.9619 66.1905 27.9619C65.8469 27.9619 65.5684 28.2394 65.5684 28.5823C65.5684 28.9247 65.8469 29.2022 66.1905 29.2022Z" fill="white"/>
<path d="M66.1905 29.2022C66.5346 29.2022 66.8132 28.9247 66.8132 28.5823C66.8132 28.2394 66.5346 27.9619 66.1905 27.9619C65.8469 27.9619 65.5684 28.2394 65.5684 28.5823C65.5684 28.9247 65.8469 29.2022 66.1905 29.2022Z" stroke="black" stroke-width="1.0064"/>
<path d="M67.3346 28.1573C67.6782 28.1573 67.9567 27.8798 67.9567 27.5369C67.9567 27.1945 67.6782 26.917 67.3346 26.917C66.991 26.917 66.7119 27.1945 66.7119 27.5369C66.7119 27.8798 66.991 28.1573 67.3346 28.1573Z" fill="white"/>
<path d="M67.3346 28.1573C67.6782 28.1573 67.9567 27.8798 67.9567 27.5369C67.9567 27.1945 67.6782 26.917 67.3346 26.917C66.991 26.917 66.7119 27.1945 66.7119 27.5369C66.7119 27.8798 66.991 28.1573 67.3346 28.1573Z" stroke="black" stroke-width="1.0064"/>
<path d="M68.8086 27.5726C69.1522 27.5726 69.4308 27.2951 69.4308 26.9522C69.4308 26.6098 69.1522 26.3323 68.8086 26.3323C68.4651 26.3323 68.1865 26.6098 68.1865 26.9522C68.1865 27.2951 68.4651 27.5726 68.8086 27.5726Z" fill="white"/>
<path d="M68.8086 27.5726C69.1522 27.5726 69.4308 27.2951 69.4308 26.9522C69.4308 26.6098 69.1522 26.3323 68.8086 26.3323C68.4651 26.3323 68.1865 26.6098 68.1865 26.9522C68.1865 27.2951 68.4651 27.5726 68.8086 27.5726Z" stroke="black" stroke-width="1.0064"/>
<path d="M70.3487 27.2951C70.6922 27.2951 70.9708 27.017 70.9708 26.6746C70.9708 26.3323 70.6922 26.0547 70.3487 26.0547C70.0051 26.0547 69.7266 26.3323 69.7266 26.6746C69.7266 27.017 70.0051 27.2951 70.3487 27.2951Z" fill="white"/>
<path d="M70.3487 27.2951C70.6922 27.2951 70.9708 27.017 70.9708 26.6746C70.9708 26.3323 70.6922 26.0547 70.3487 26.0547C70.0051 26.0547 69.7266 26.3323 69.7266 26.6746C69.7266 27.017 70.0051 27.2951 70.3487 27.2951Z" stroke="black" stroke-width="1.0064"/>
<path d="M71.816 27.2074C72.1596 27.2074 72.4382 26.9293 72.4382 26.5869C72.4382 26.2446 72.1596 25.967 71.816 25.967C71.4719 25.967 71.1934 26.2446 71.1934 26.5869C71.1934 26.9293 71.4719 27.2074 71.816 27.2074Z" fill="white"/>
<path d="M71.816 27.2074C72.1596 27.2074 72.4382 26.9293 72.4382 26.5869C72.4382 26.2446 72.1596 25.967 71.816 25.967C71.4719 25.967 71.1934 26.2446 71.1934 26.5869C71.1934 26.9293 71.4719 27.2074 71.816 27.2074Z" stroke="black" stroke-width="1.0064"/>
<path d="M73.1358 27.3241C73.4794 27.3241 73.7579 27.0466 73.7579 26.7042C73.7579 26.3613 73.4794 26.0838 73.1358 26.0838C72.7922 26.0838 72.5137 26.3613 72.5137 26.7042C72.5137 27.0466 72.7922 27.3241 73.1358 27.3241Z" fill="white"/>
<path d="M73.1358 27.3241C73.4794 27.3241 73.7579 27.0466 73.7579 26.7042C73.7579 26.3613 73.4794 26.0838 73.1358 26.0838C72.7922 26.0838 72.5137 26.3613 72.5137 26.7042C72.5137 27.0466 72.7922 27.3241 73.1358 27.3241Z" stroke="black" stroke-width="1.0064"/>
<path d="M76.8995 26.8561C77.243 26.8561 77.5221 26.5786 77.5221 26.2362C77.5221 25.8944 77.243 25.6163 76.8995 25.6163C76.5559 25.6163 76.2773 25.8939 76.2773 26.2362C76.2773 26.5786 76.5559 26.8561 76.8995 26.8561Z" fill="white"/>
<path d="M76.8995 26.8561C77.243 26.8561 77.5221 26.5786 77.5221 26.2362C77.5221 25.8944 77.243 25.6163 76.8995 25.6163C76.5559 25.6163 76.2773 25.8939 76.2773 26.2362C76.2773 26.5786 76.5559 26.8561 76.8995 26.8561Z" stroke="black" stroke-width="1.0064"/>
<path d="M78.1026 27.1778C78.4461 27.1778 78.7253 26.9003 78.7253 26.5579C78.7253 26.2156 78.4461 25.938 78.1026 25.938C77.759 25.938 77.4805 26.2156 77.4805 26.5579C77.4805 26.9003 77.759 27.1778 78.1026 27.1778Z" fill="white"/>
<path d="M78.1026 27.1778C78.4461 27.1778 78.7253 26.9003 78.7253 26.5579C78.7253 26.2156 78.4461 25.938 78.1026 25.938C77.759 25.938 77.4805 26.2156 77.4805 26.5579C77.4805 26.9003 77.759 27.1778 78.1026 27.1778Z" stroke="black" stroke-width="1.0064"/>
<path d="M78.1026 31.7673C78.4461 31.7673 78.7253 31.4897 78.7253 31.1474C78.7253 30.805 78.4461 30.5275 78.1026 30.5275C77.759 30.5275 77.4805 30.805 77.4805 31.1474C77.4805 31.4897 77.759 31.7673 78.1026 31.7673Z" fill="white"/>
<path d="M78.1026 31.7673C78.4461 31.7673 78.7253 31.4897 78.7253 31.1474C78.7253 30.805 78.4461 30.5275 78.1026 30.5275C77.759 30.5275 77.4805 30.805 77.4805 31.1474C77.4805 31.4897 77.759 31.7673 78.1026 31.7673Z" stroke="black" stroke-width="1.0064"/>
<path d="M90.9674 34.1793C91.311 34.1793 91.5895 33.9017 91.5895 33.5588C91.5895 33.2165 91.311 32.9389 90.9674 32.9389C90.6233 32.9389 90.3447 33.2165 90.3447 33.5588C90.3447 33.9017 90.6233 34.1793 90.9674 34.1793Z" fill="white"/>
<path d="M90.9674 34.1793C91.311 34.1793 91.5895 33.9017 91.5895 33.5588C91.5895 33.2165 91.311 32.9389 90.9674 32.9389C90.6233 32.9389 90.3447 33.2165 90.3447 33.5588C90.3447 33.9017 90.6233 34.1793 90.9674 34.1793Z" stroke="black" stroke-width="1.0064"/>
<path d="M91.2901 32.6368C91.6342 32.6368 91.9128 32.3592 91.9128 32.0169C91.9128 31.6746 91.6342 31.397 91.2901 31.397C90.9465 31.397 90.668 31.6746 90.668 32.0169C90.668 32.3592 90.9465 32.6368 91.2901 32.6368Z" fill="white"/>
<path d="M91.2901 32.6368C91.6342 32.6368 91.9128 32.3592 91.9128 32.0169C91.9128 31.6746 91.6342 31.397 91.2901 31.397C90.9465 31.397 90.668 31.6746 90.668 32.0169C90.668 32.3592 90.9465 32.6368 91.2901 32.6368Z" stroke="black" stroke-width="1.0064"/>
<path d="M91.0254 31.0295C91.3696 31.0295 91.6481 30.752 91.6481 30.4091C91.6481 30.0667 91.3696 29.7892 91.0254 29.7892C90.6819 29.7892 90.4033 30.0667 90.4033 30.4091C90.4033 30.752 90.6819 31.0295 91.0254 31.0295Z" fill="white"/>
<path d="M91.0254 31.0295C91.3696 31.0295 91.6481 30.752 91.6481 30.4091C91.6481 30.0667 91.3696 29.7892 91.0254 29.7892C90.6819 29.7892 90.4033 30.0667 90.4033 30.4091C90.4033 30.752 90.6819 31.0295 91.0254 31.0295Z" stroke="black" stroke-width="1.0064"/>
<path d="M90.3506 29.5094C90.6948 29.5094 90.9733 29.2313 90.9733 28.8889C90.9733 28.5472 90.6948 28.269 90.3506 28.269C90.0071 28.269 89.7285 28.5466 89.7285 28.8889C89.7285 29.2313 90.0071 29.5094 90.3506 29.5094Z" fill="white"/>
<path d="M90.3506 29.5094C90.6948 29.5094 90.9733 29.2313 90.9733 28.8889C90.9733 28.5472 90.6948 28.269 90.3506 28.269C90.0071 28.269 89.7285 28.5466 89.7285 28.8889C89.7285 29.2313 90.0071 29.5094 90.3506 29.5094Z" stroke="black" stroke-width="1.0064"/>
<path d="M89.2067 28.4567C89.5502 28.4567 89.8288 28.1791 89.8288 27.8368C89.8288 27.4944 89.5502 27.2169 89.2067 27.2169C88.8631 27.2169 88.584 27.4944 88.584 27.8368C88.584 28.1791 88.8631 28.4567 89.2067 28.4567Z" fill="white"/>
<path d="M89.2067 28.4567C89.5502 28.4567 89.8288 28.1791 89.8288 27.8368C89.8288 27.4944 89.5502 27.2169 89.2067 27.2169C88.8631 27.2169 88.584 27.4944 88.584 27.8368C88.584 28.1791 88.8631 28.4567 89.2067 28.4567Z" stroke="black" stroke-width="1.0064"/>
<path d="M87.8278 27.7843C88.1713 27.7843 88.4499 27.5067 88.4499 27.1644C88.4499 26.8221 88.1713 26.5445 87.8278 26.5445C87.4836 26.5445 87.2051 26.8221 87.2051 27.1644C87.2051 27.5067 87.4836 27.7843 87.8278 27.7843Z" fill="white"/>
<path d="M87.8278 27.7843C88.1713 27.7843 88.4499 27.5067 88.4499 27.1644C88.4499 26.8221 88.1713 26.5445 87.8278 26.5445C87.4836 26.5445 87.2051 26.8221 87.2051 27.1644C87.2051 27.5067 87.4836 27.7843 87.8278 27.7843Z" stroke="black" stroke-width="1.0064"/>
<path d="M86.2579 27.4263C86.602 27.4263 86.8805 27.1488 86.8805 26.8064C86.8805 26.4646 86.602 26.1865 86.2579 26.1865C85.9143 26.1865 85.6357 26.4641 85.6357 26.8064C85.6357 27.1488 85.9143 27.4263 86.2579 27.4263Z" fill="white"/>
<path d="M86.2579 27.4263C86.602 27.4263 86.8805 27.1488 86.8805 26.8064C86.8805 26.4646 86.602 26.1865 86.2579 26.1865C85.9143 26.1865 85.6357 26.4641 85.6357 26.8064C85.6357 27.1488 85.9143 27.4263 86.2579 27.4263Z" stroke="black" stroke-width="1.0064"/>
<path d="M84.8204 27.3096C85.1645 27.3096 85.443 27.032 85.443 26.6891C85.443 26.3474 85.1645 26.0692 84.8204 26.0692C84.4768 26.0692 84.1982 26.3468 84.1982 26.6891C84.1982 27.032 84.4768 27.3096 84.8204 27.3096Z" fill="white"/>
<path d="M84.8204 27.3096C85.1645 27.3096 85.443 27.032 85.443 26.6891C85.443 26.3474 85.1645 26.0692 84.8204 26.0692C84.4768 26.0692 84.1982 26.3468 84.1982 26.6891C84.1982 27.032 84.4768 27.3096 84.8204 27.3096Z" stroke="black" stroke-width="1.0064"/>
<path d="M83.5176 27.1387C83.8618 27.1387 84.1403 26.8612 84.1403 26.5188C84.1403 26.1765 83.8618 25.8989 83.5176 25.8989C83.1741 25.8989 82.8955 26.1765 82.8955 26.5188C82.8955 26.8612 83.1741 27.1387 83.5176 27.1387Z" fill="white"/>
<path d="M83.5176 27.1387C83.8618 27.1387 84.1403 26.8612 84.1403 26.5188C84.1403 26.1765 83.8618 25.8989 83.5176 25.8989C83.1741 25.8989 82.8955 26.1765 82.8955 26.5188C82.8955 26.8612 83.1741 27.1387 83.5176 27.1387Z" stroke="black" stroke-width="1.0064"/>
<path d="M84.3584 32.2135C84.702 32.2135 84.9806 31.9354 84.9806 31.593C84.9806 31.2512 84.702 30.9731 84.3584 30.9731C84.0149 30.9731 83.7363 31.2507 83.7363 31.593C83.7363 31.9354 84.0149 32.2135 84.3584 32.2135Z" fill="white"/>
<path d="M84.3584 32.2135C84.702 32.2135 84.9806 31.9354 84.9806 31.593C84.9806 31.2512 84.702 30.9731 84.3584 30.9731C84.0149 30.9731 83.7363 31.2507 83.7363 31.593C83.7363 31.9354 84.0149 32.2135 84.3584 32.2135Z" stroke="black" stroke-width="1.0064"/>
<path d="M84.6813 31.0144C85.0248 31.0144 85.3034 30.7369 85.3034 30.3946C85.3034 30.0522 85.0248 29.7747 84.6813 29.7747C84.3371 29.7747 84.0586 30.0522 84.0586 30.3946C84.0586 30.7369 84.3371 31.0144 84.6813 31.0144Z" fill="white"/>
<path d="M84.6813 31.0144C85.0248 31.0144 85.3034 30.7369 85.3034 30.3946C85.3034 30.0522 85.0248 29.7747 84.6813 29.7747C84.3371 29.7747 84.0586 30.0522 84.0586 30.3946C84.0586 30.7369 84.3371 31.0144 84.6813 31.0144Z" stroke="black" stroke-width="1.0064"/>
<path d="M79.4522 27.0466C79.7963 27.0466 80.0749 26.7684 80.0749 26.4261C80.0749 26.0838 79.7963 25.8062 79.4522 25.8062C79.1086 25.8062 78.8301 26.0838 78.8301 26.4261C78.8301 26.7684 79.1086 27.0466 79.4522 27.0466Z" fill="white"/>
<path d="M79.4522 27.0466C79.7963 27.0466 80.0749 26.7684 80.0749 26.4261C80.0749 26.0838 79.7963 25.8062 79.4522 25.8062C79.1086 25.8062 78.8301 26.0838 78.8301 26.4261C78.8301 26.7684 79.1086 27.0466 79.4522 27.0466Z" stroke="black" stroke-width="1.0064"/>
<path d="M76.4073 26.8785C76.7514 26.8785 77.03 26.6009 77.03 26.258C77.03 25.9162 76.7514 25.6387 76.4073 25.6387C76.0637 25.6387 75.7852 25.9157 75.7852 26.258C75.7852 26.6009 76.0637 26.8785 76.4073 26.8785Z" fill="white"/>
<path d="M76.4073 26.8785C76.7514 26.8785 77.03 26.6009 77.03 26.258C77.03 25.9162 76.7514 25.6387 76.4073 25.6387C76.0637 25.6387 75.7852 25.9157 75.7852 26.258C75.7852 26.6009 76.0637 26.8785 76.4073 26.8785Z" stroke="black" stroke-width="1.0064"/>
<path d="M75.6739 26.8489C76.0174 26.8489 76.296 26.5713 76.296 26.229C76.296 25.8866 76.0174 25.6091 75.6739 25.6091C75.3303 25.6091 75.0518 25.8866 75.0518 26.229C75.0518 26.5713 75.3303 26.8489 75.6739 26.8489Z" fill="white"/>
<path d="M75.6739 26.8489C76.0174 26.8489 76.296 26.5713 76.296 26.229C76.296 25.8866 76.0174 25.6091 75.6739 25.6091C75.3303 25.6091 75.0518 25.8866 75.0518 26.229C75.0518 26.5713 75.3303 26.8489 75.6739 26.8489Z" stroke="black" stroke-width="1.0064"/>
<path d="M71.7208 32.228C72.0643 32.228 72.3434 31.9504 72.3434 31.6075C72.3434 31.2652 72.0643 30.9876 71.7208 30.9876C71.3772 30.9876 71.0986 31.2652 71.0986 31.6075C71.0986 31.9504 71.3772 32.228 71.7208 32.228Z" fill="white"/>
<path d="M71.7208 32.228C72.0643 32.228 72.3434 31.9504 72.3434 31.6075C72.3434 31.2652 72.0643 30.9876 71.7208 30.9876C71.3772 30.9876 71.0986 31.2652 71.0986 31.6075C71.0986 31.9504 71.3772 32.228 71.7208 32.228Z" stroke="black" stroke-width="1.0064"/>
<path d="M71.5372 30.7442C71.8807 30.7442 72.1598 30.4666 72.1598 30.1243C72.1598 29.7819 71.8807 29.5044 71.5372 29.5044C71.1936 29.5044 70.915 29.7819 70.915 30.1243C70.915 30.4666 71.1936 30.7442 71.5372 30.7442Z" fill="white"/>
<path d="M71.5372 30.7442C71.8807 30.7442 72.1598 30.4666 72.1598 30.1243C72.1598 29.7819 71.8807 29.5044 71.5372 29.5044C71.1936 29.5044 70.915 29.7819 70.915 30.1243C70.915 30.4666 71.1936 30.7442 71.5372 30.7442Z" stroke="black" stroke-width="1.0064"/>
<path d="M71.9766 29.3117C72.3207 29.3117 72.5993 29.0341 72.5993 28.6918C72.5993 28.3495 72.3207 28.0719 71.9766 28.0719C71.633 28.0719 71.3545 28.3495 71.3545 28.6918C71.3545 29.0341 71.633 29.3117 71.9766 29.3117Z" fill="white"/>
<path d="M71.9766 29.3117C72.3207 29.3117 72.5993 29.0341 72.5993 28.6918C72.5993 28.3495 72.3207 28.0719 71.9766 28.0719C71.633 28.0719 71.3545 28.3495 71.3545 28.6918C71.3545 29.0341 71.633 29.3117 71.9766 29.3117Z" stroke="black" stroke-width="1.0064"/>
<path d="M74.7129 26.9879C75.0571 26.9879 75.3356 26.7104 75.3356 26.368C75.3356 26.0251 75.0571 25.7476 74.7129 25.7476C74.3694 25.7476 74.0908 26.0251 74.0908 26.368C74.0908 26.7104 74.3694 26.9879 74.7129 26.9879Z" fill="white"/>
<path d="M74.7129 26.9879C75.0571 26.9879 75.3356 26.7104 75.3356 26.368C75.3356 26.0251 75.0571 25.7476 74.7129 25.7476C74.3694 25.7476 74.0908 26.0251 74.0908 26.368C74.0908 26.7104 74.3694 26.9879 74.7129 26.9879Z" stroke="black" stroke-width="1.0064"/>
<path d="M73.6788 27.4118C74.0229 27.4118 74.3014 27.1342 74.3014 26.7919C74.3014 26.449 74.0229 26.1714 73.6788 26.1714C73.3352 26.1714 73.0566 26.449 73.0566 26.7919C73.0566 27.1342 73.3352 27.4118 73.6788 27.4118Z" fill="white"/>
<path d="M73.6788 27.4118C74.0229 27.4118 74.3014 27.1342 74.3014 26.7919C74.3014 26.449 74.0229 26.1714 73.6788 26.1714C73.3352 26.1714 73.0566 26.449 73.0566 26.7919C73.0566 27.1342 73.3352 27.4118 73.6788 27.4118Z" stroke="black" stroke-width="1.0064"/>
<path d="M72.6891 28.245C73.0326 28.245 73.3112 27.9669 73.3112 27.6246C73.3112 27.2822 73.0326 27.0047 72.6891 27.0047C72.345 27.0047 72.0664 27.2822 72.0664 27.6246C72.0664 27.9669 72.345 28.245 72.6891 28.245Z" fill="white"/>
<path d="M72.6891 28.245C73.0326 28.245 73.3112 27.9669 73.3112 27.6246C73.3112 27.2822 73.0326 27.0047 72.6891 27.0047C72.345 27.0047 72.0664 27.2822 72.0664 27.6246C72.0664 27.9669 72.345 28.245 72.6891 28.245Z" stroke="black" stroke-width="1.0064"/>
<path d="M78.1026 27.8798C78.4461 27.8798 78.7253 27.6017 78.7253 27.2593C78.7253 26.9175 78.4461 26.6394 78.1026 26.6394C77.759 26.6394 77.4805 26.917 77.4805 27.2593C77.4805 27.6017 77.759 27.8798 78.1026 27.8798Z" fill="white"/>
<path d="M78.1026 27.8798C78.4461 27.8798 78.7253 27.6017 78.7253 27.2593C78.7253 26.9175 78.4461 26.6394 78.1026 26.6394C77.759 26.6394 77.4805 26.917 77.4805 27.2593C77.4805 27.6017 77.759 27.8798 78.1026 27.8798Z" stroke="black" stroke-width="1.0064"/>
<path d="M78.1026 29.0487C78.4461 29.0487 78.7253 28.7711 78.7253 28.4288C78.7253 28.0864 78.4461 27.8089 78.1026 27.8089C77.759 27.8089 77.4805 28.0864 77.4805 28.4288C77.4805 28.7711 77.759 29.0487 78.1026 29.0487Z" fill="white"/>
<path d="M78.1026 29.0487C78.4461 29.0487 78.7253 28.7711 78.7253 28.4288C78.7253 28.0864 78.4461 27.8089 78.1026 27.8089C77.759 27.8089 77.4805 28.0864 77.4805 28.4288C77.4805 28.7711 77.759 29.0487 78.1026 29.0487Z" stroke="black" stroke-width="1.0064"/>
<path d="M78.1026 30.3058C78.4461 30.3058 78.7253 30.0282 78.7253 29.6859C78.7253 29.3441 78.4461 29.066 78.1026 29.066C77.759 29.066 77.4805 29.3435 77.4805 29.6859C77.4805 30.0282 77.759 30.3058 78.1026 30.3058Z" fill="white"/>
<path d="M78.1026 30.3058C78.4461 30.3058 78.7253 30.0282 78.7253 29.6859C78.7253 29.3441 78.4461 29.066 78.1026 29.066C77.759 29.066 77.4805 29.3435 77.4805 29.6859C77.4805 30.0282 77.759 30.3058 78.1026 30.3058Z" stroke="black" stroke-width="1.0064"/>
<path d="M80.2594 26.8857C80.603 26.8857 80.8815 26.6076 80.8815 26.2653C80.8815 25.9235 80.603 25.6454 80.2594 25.6454C79.9153 25.6454 79.6367 25.9229 79.6367 26.2653C79.6367 26.6076 79.9153 26.8857 80.2594 26.8857Z" fill="white"/>
<path d="M80.2594 26.8857C80.603 26.8857 80.8815 26.6076 80.8815 26.2653C80.8815 25.9235 80.603 25.6454 80.2594 25.6454C79.9153 25.6454 79.6367 25.9229 79.6367 26.2653C79.6367 26.6076 79.9153 26.8857 80.2594 26.8857Z" stroke="black" stroke-width="1.0064"/>
<path d="M81.11 26.7104C81.4535 26.7104 81.7321 26.4323 81.7321 26.0899C81.7321 25.7481 81.4535 25.47 81.11 25.47C80.7659 25.47 80.4873 25.7476 80.4873 26.0899C80.4873 26.4323 80.7659 26.7104 81.11 26.7104Z" fill="white"/>
<path d="M81.11 26.7104C81.4535 26.7104 81.7321 26.4323 81.7321 26.0899C81.7321 25.7481 81.4535 25.47 81.11 25.47C80.7659 25.47 80.4873 25.7476 80.4873 26.0899C80.4873 26.4323 80.7659 26.7104 81.11 26.7104Z" stroke="black" stroke-width="1.0064"/>
<path d="M82.0704 26.8639C82.4139 26.8639 82.6925 26.5858 82.6925 26.2435C82.6925 25.9012 82.4139 25.6236 82.0704 25.6236C81.7268 25.6236 81.4482 25.9012 81.4482 26.2435C81.4482 26.5858 81.7268 26.8639 82.0704 26.8639Z" fill="white"/>
<path d="M82.0704 26.8639C82.4139 26.8639 82.6925 26.5858 82.6925 26.2435C82.6925 25.9012 82.4139 25.6236 82.0704 25.6236C81.7268 25.6236 81.4482 25.9012 81.4482 26.2435C81.4482 26.5858 81.7268 26.8639 82.0704 26.8639Z" stroke="black" stroke-width="1.0064"/>
<path d="M84.4756 29.4943C84.8192 29.4943 85.0983 29.2168 85.0983 28.8744C85.0983 28.5321 84.8192 28.2545 84.4756 28.2545C84.1321 28.2545 83.8535 28.5321 83.8535 28.8744C83.8535 29.2168 84.1321 29.4943 84.4756 29.4943Z" fill="white"/>
<path d="M84.4756 29.4943C84.8192 29.4943 85.0983 29.2168 85.0983 28.8744C85.0983 28.5321 84.8192 28.2545 84.4756 28.2545C84.1321 28.2545 83.8535 28.5321 83.8535 28.8744C83.8535 29.2168 84.1321 29.4943 84.4756 29.4943Z" stroke="black" stroke-width="1.0064"/>
<path d="M83.0381 27.4191C83.3823 27.4191 83.6608 27.1415 83.6608 26.7992C83.6608 26.4563 83.3823 26.1787 83.0381 26.1787C82.6946 26.1787 82.416 26.4563 82.416 26.7992C82.416 27.1415 82.6946 27.4191 83.0381 27.4191Z" fill="white"/>
<path d="M83.0381 27.4191C83.3823 27.4191 83.6608 27.1415 83.6608 26.7992C83.6608 26.4563 83.3823 26.1787 83.0381 26.1787C82.6946 26.1787 82.416 26.4563 82.416 26.7992C82.416 27.1415 82.6946 27.4191 83.0381 27.4191Z" stroke="black" stroke-width="1.0064"/>
<path d="M83.9186 28.2668C84.2621 28.2668 84.5407 27.9893 84.5407 27.6464C84.5407 27.304 84.2621 27.0265 83.9186 27.0265C83.5744 27.0265 83.2959 27.304 83.2959 27.6464C83.2959 27.9893 83.5744 28.2668 83.9186 28.2668Z" fill="white"/>
<path d="M83.9186 28.2668C84.2621 28.2668 84.5407 27.9893 84.5407 27.6464C84.5407 27.304 84.2621 27.0265 83.9186 27.0265C83.5744 27.0265 83.2959 27.304 83.2959 27.6464C83.2959 27.9893 83.5744 28.2668 83.9186 28.2668Z" stroke="black" stroke-width="1.0064"/>
<path d="M78.0626 37.5529L76.4199 38.3717L77.8984 39.2993L79.651 38.4264L78.0626 37.5529Z" fill="white"/>
<path d="M78.0626 37.5529L76.4199 38.3717L77.8984 39.2993L79.651 38.4264L78.0626 37.5529Z" stroke="black" stroke-width="0.501998"/>
<path d="M74.4716 37.7249L72.0072 38.1047C72.0072 38.1047 71.9775 39.4204 72.0952 39.7421L74.6179 39.3908C74.6179 39.3908 74.7356 38.1633 74.4716 37.7249Z" fill="white"/>
<path d="M74.4716 37.7249L72.0072 38.1047C72.0072 38.1047 71.9775 39.4204 72.0952 39.7421L74.6179 39.3908C74.6179 39.3908 74.7356 38.1633 74.4716 37.7249Z" stroke="black" stroke-width="0.501998"/>
<path d="M74.1968 38.1924C74.1968 38.1924 72.7105 38.3286 72.3389 38.4655L72.3585 39.3618C72.3585 39.3618 73.3365 39.1864 74.236 39.1083L74.1968 38.1924Z" fill="#058E6E" fill-opacity="0.941176"/>
<path d="M74.1968 38.1924C74.1968 38.1924 72.7105 38.3286 72.3389 38.4655L72.3585 39.3618C72.3585 39.3618 73.3365 39.1864 74.236 39.1083L74.1968 38.1924Z" stroke="black" stroke-width="0.501998"/>
<path d="M81.4981 37.7953L83.9619 38.1756C83.9619 38.1756 83.9916 39.4908 83.8739 39.8125L81.3513 39.4618C81.3513 39.4618 81.2336 38.2337 81.4981 37.7953Z" fill="white"/>
<path d="M81.4981 37.7953L83.9619 38.1756C83.9619 38.1756 83.9916 39.4908 83.8739 39.8125L81.3513 39.4618C81.3513 39.4618 81.2336 38.2337 81.4981 37.7953Z" stroke="black" stroke-width="0.501998"/>
<path d="M81.7717 38.2633C81.7717 38.2633 83.258 38.3996 83.6296 38.5358L83.61 39.4322C83.61 39.4322 82.632 39.2568 81.7324 39.1792L81.7717 38.2633Z" fill="#058E6E" fill-opacity="0.941176"/>
<path d="M81.7717 38.2633C81.7717 38.2633 83.258 38.3996 83.6296 38.5358L83.61 39.4322C83.61 39.4322 82.632 39.2568 81.7324 39.1792L81.7717 38.2633Z" stroke="black" stroke-width="0.501998"/>
<path d="M68.3096 38.8944C68.3096 38.8944 76.9542 35.6955 87.9466 39.1647M68.6615 40.7357C68.6615 40.7357 77.0231 37.6194 87.3352 40.8742M68.7008 38.7771L70.3827 39.2641L69.2091 40.5117" stroke="black" stroke-width="0.501998"/>
<path d="M68.7403 40.2777L69.6987 39.4785L68.6035 39.2641C68.6035 39.2641 68.7526 39.4327 68.7218 39.5874C68.6915 39.7421 68.7307 40.1414 68.7403 40.2777Z" fill="#FF0000"/>
<path d="M68.7403 40.2777L69.6987 39.4785L68.6035 39.2641C68.6035 39.2641 68.7526 39.4327 68.7218 39.5874C68.6915 39.7421 68.7307 40.1414 68.7403 40.2777Z" stroke="black" stroke-width="0.501998"/>
<path d="M87.7612 39.0988L85.9717 39.4205L87.1744 40.8233" stroke="black" stroke-width="0.501998"/>
<path d="M87.2334 40.3268L86.5586 39.6249L87.5265 39.5372C87.5265 39.5372 87.2625 39.7125 87.2625 39.8588C87.2625 40.0052 87.2922 40.2096 87.2334 40.3268Z" fill="#FF0000"/>
<path d="M87.2334 40.3268L86.5586 39.6249L87.5265 39.5372C87.5265 39.5372 87.2625 39.7125 87.2625 39.8588C87.2625 40.0052 87.2922 40.2096 87.2334 40.3268Z" stroke="black" stroke-width="0.501998"/>
<path d="M70.8921 38.9005C71.0446 38.9005 71.1684 38.8017 71.1684 38.6794C71.1684 38.5582 71.0446 38.4593 70.8921 38.4593C70.7391 38.4593 70.6152 38.5582 70.6152 38.6794C70.6152 38.8017 70.7391 38.9005 70.8921 38.9005ZM75.7003 38.3544C75.8534 38.3544 75.9772 38.2555 75.9772 38.1343C75.9772 38.012 75.8534 37.9137 75.7003 37.9137C75.5479 37.9137 75.424 38.012 75.424 38.1343C75.424 38.2555 75.5479 38.3544 75.7003 38.3544ZM75.7003 39.134C75.8534 39.134 75.9772 39.0351 75.9772 38.9134C75.9772 38.7916 75.8534 38.6933 75.7003 38.6933C75.5479 38.6933 75.424 38.7916 75.424 38.9134C75.424 39.0351 75.5479 39.134 75.7003 39.134ZM80.4335 38.3934C80.5865 38.3934 80.7104 38.2952 80.7104 38.1729C80.7104 38.0517 80.5865 37.9528 80.4335 37.9528C80.281 37.9528 80.1572 38.0511 80.1572 38.1729C80.1572 38.2952 80.281 38.3934 80.4335 38.3934ZM85.1274 39.2512C85.2804 39.2512 85.4043 39.1524 85.4043 39.0301C85.4043 38.9089 85.2804 38.8101 85.1274 38.8101C84.9749 38.8101 84.8511 38.9089 84.8511 39.0301C84.8511 39.1524 84.9749 39.2512 85.1274 39.2512ZM85.0495 39.8745C85.2025 39.8745 85.3264 39.7756 85.3264 39.6545C85.3264 39.5333 85.2025 39.4333 85.0495 39.4333C84.8965 39.4333 84.7726 39.5327 84.7726 39.6545C84.7726 39.7756 84.8965 39.8745 85.0495 39.8745ZM80.4335 39.1731C80.5865 39.1731 80.7104 39.0742 80.7104 38.9525C80.7104 38.8313 80.5865 38.7324 80.4335 38.7324C80.281 38.7324 80.1572 38.8307 80.1572 38.9525C80.1572 39.0742 80.281 39.1731 80.4335 39.1731ZM71.1241 39.8745C71.2766 39.8745 71.4004 39.7756 71.4004 39.6545C71.4004 39.5333 71.2766 39.4333 71.1241 39.4333C70.9711 39.4333 70.8473 39.5327 70.8473 39.6545C70.8473 39.7756 70.9711 39.8745 71.1241 39.8745Z" stroke="black" stroke-width="0.501998"/>
<path d="M68.154 36.3802C68.154 36.3802 68.1933 38.0561 69.2884 37.8221C70.3836 37.5881 70.2664 36.2238 70.3449 36.1462C70.4228 36.068 70.5399 36.068 70.5399 36.068C70.5399 36.068 70.6963 37.3932 71.713 37.2374C72.7303 37.0816 72.691 35.4447 72.5739 35.1717L72.8087 35.0935C72.8087 35.0935 73.1994 37.0034 74.373 36.7309C75.5466 36.4578 75.4295 35.2498 75.4295 35.2498H75.5197C75.5197 35.2498 75.7814 36.536 76.7202 36.4578C77.6584 36.3802 77.8546 36.068 77.7369 34.7819L78.3629 34.6651C78.3629 34.6651 78.1281 36.536 79.2619 36.4969C80.3969 36.4578 80.4355 35.5615 80.514 35.4057H80.6849C80.6849 35.4057 80.7488 36.7309 81.6876 36.7309C82.6264 36.7309 82.8214 35.6006 82.8214 35.1717L83.7384 35.2124C83.7384 35.2124 82.7828 36.9649 84.1912 37.1989C85.5991 37.4323 85.6384 36.068 85.6384 36.068H85.9119C85.9119 36.068 85.8726 37.8221 86.655 37.8612C87.4369 37.9003 87.9066 37.6272 87.9845 36.3411L88.4149 36.4969C88.4149 36.4969 88.0416 38.5761 86.5766 38.2114C85.7942 38.017 85.5593 37.1207 85.5986 36.8867C85.5986 36.8867 85.0515 37.8607 83.9951 37.549C82.9391 37.2374 83.0563 36.4969 83.0563 36.2629C83.0563 36.2629 82.4213 37.4251 81.5307 37.1587C80.7488 36.9252 80.4355 36.6521 80.4355 36.1065C80.4355 36.1065 80.0443 37.0029 79.2619 36.9643C78.4795 36.9252 78.0889 36.4572 78.0496 36.0289C78.0496 36.0289 77.8944 36.8666 76.8368 36.9252C76.1328 36.9643 75.7416 36.6142 75.5853 36.1456C75.5853 36.1456 75.3829 36.9945 74.373 37.1201C73.7475 37.1983 73.1215 36.8476 72.9645 36.2629C72.9645 36.2629 72.8087 37.3927 71.7915 37.549C70.7742 37.7049 70.5394 37.0034 70.5394 37.0034C70.5394 37.0034 70.3443 37.9003 69.5227 38.0947C68.7011 38.2896 68.1535 37.9394 67.9579 37.1207C67.7623 36.302 67.8407 35.9513 67.8407 35.9513L68.1535 36.3796" fill="#FFCC00"/>
<path d="M68.154 36.3802C68.154 36.3802 68.1933 38.0561 69.2884 37.8221C70.3836 37.5881 70.2664 36.2238 70.3449 36.1462C70.4228 36.068 70.5399 36.068 70.5399 36.068C70.5399 36.068 70.6963 37.3932 71.713 37.2374C72.7303 37.0816 72.691 35.4447 72.5739 35.1717L72.8087 35.0935C72.8087 35.0935 73.1994 37.0034 74.373 36.7309C75.5466 36.4578 75.4295 35.2498 75.4295 35.2498H75.5197C75.5197 35.2498 75.7814 36.536 76.7202 36.4578C77.6584 36.3802 77.8546 36.068 77.7369 34.7819L78.3629 34.6651C78.3629 34.6651 78.1281 36.536 79.2619 36.4969C80.3969 36.4578 80.4355 35.5615 80.514 35.4057H80.6849C80.6849 35.4057 80.7488 36.7309 81.6876 36.7309C82.6264 36.7309 82.8214 35.6006 82.8214 35.1717L83.7384 35.2124C83.7384 35.2124 82.7828 36.9649 84.1912 37.1989C85.5991 37.4323 85.6384 36.068 85.6384 36.068H85.9119C85.9119 36.068 85.8726 37.8221 86.655 37.8612C87.4369 37.9003 87.9066 37.6272 87.9845 36.3411L88.4149 36.4969C88.4149 36.4969 88.0416 38.5761 86.5766 38.2114C85.7942 38.017 85.5593 37.1207 85.5986 36.8867C85.5986 36.8867 85.0515 37.8607 83.9951 37.549C82.9391 37.2374 83.0563 36.4969 83.0563 36.2629C83.0563 36.2629 82.4213 37.4251 81.5307 37.1587C80.7488 36.9252 80.4355 36.6521 80.4355 36.1065C80.4355 36.1065 80.0443 37.0029 79.2619 36.9643C78.4795 36.9252 78.0889 36.4572 78.0496 36.0289C78.0496 36.0289 77.8944 36.8666 76.8368 36.9252C76.1328 36.9643 75.7416 36.6142 75.5853 36.1456C75.5853 36.1456 75.3829 36.9945 74.373 37.1201C73.7475 37.1983 73.1215 36.8476 72.9645 36.2629C72.9645 36.2629 72.8087 37.3927 71.7915 37.549C70.7742 37.7049 70.5394 37.0034 70.5394 37.0034C70.5394 37.0034 70.3443 37.9003 69.5227 38.0947C68.7011 38.2896 68.1535 37.9394 67.9579 37.1207C67.7623 36.302 67.8407 35.9513 67.8407 35.9513L68.1535 36.3796L68.154 36.3802Z" fill="#BCAC0B" stroke="black" stroke-width="0.653319"/>
<path d="M70.4224 36.4539C70.6365 36.4539 70.8097 36.2813 70.8097 36.068C70.8097 35.8552 70.6365 35.6821 70.4224 35.6821C70.2083 35.6821 70.0352 35.8552 70.0352 36.068C70.0352 36.2813 70.2083 36.4539 70.4224 36.4539Z" fill="#FFCC00"/>
<path d="M70.4224 36.4539C70.6365 36.4539 70.8097 36.2813 70.8097 36.068C70.8097 35.8552 70.6365 35.6821 70.4224 35.6821C70.2083 35.6821 70.0352 35.8552 70.0352 36.068C70.0352 36.2813 70.2083 36.4539 70.4224 36.4539Z" fill="#BCAC0B" stroke="black" stroke-width="0.653319"/>
<path d="M75.5201 35.6408C75.7342 35.6408 75.9074 35.4676 75.9074 35.2549C75.9074 35.0415 75.7342 34.869 75.5201 34.869C75.306 34.869 75.1328 35.0415 75.1328 35.2549C75.1328 35.4676 75.306 35.6408 75.5201 35.6408Z" fill="#FFCC00"/>
<path d="M75.5201 35.6408C75.7342 35.6408 75.9074 35.4676 75.9074 35.2549C75.9074 35.0415 75.7342 34.869 75.5201 34.869C75.306 34.869 75.1328 35.0415 75.1328 35.2549C75.1328 35.4676 75.306 35.6408 75.5201 35.6408Z" fill="#BCAC0B" stroke="black" stroke-width="0.653319"/>
<path d="M80.6851 35.7915C80.8992 35.7915 81.0724 35.6184 81.0724 35.4056C81.0724 35.1923 80.8992 35.0197 80.6851 35.0197C80.471 35.0197 80.2979 35.1923 80.2979 35.4056C80.2979 35.6184 80.471 35.7915 80.6851 35.7915Z" fill="#FFCC00"/>
<path d="M80.6851 35.7915C80.8992 35.7915 81.0724 35.6184 81.0724 35.4056C81.0724 35.1923 80.8992 35.0197 80.6851 35.0197C80.471 35.0197 80.2979 35.1923 80.2979 35.4056C80.2979 35.6184 80.471 35.7915 80.6851 35.7915Z" fill="#BCAC0B" stroke="black" stroke-width="0.653319"/>
<path d="M85.8125 36.6125C86.0266 36.6125 86.1998 36.4394 86.1998 36.2266C86.1998 36.0133 86.0266 35.8407 85.8125 35.8407C85.599 35.8407 85.4258 36.0133 85.4258 36.2266C85.4258 36.4394 85.599 36.6125 85.8125 36.6125Z" fill="#FFCC00"/>
<path d="M85.8125 36.6125C86.0266 36.6125 86.1998 36.4394 86.1998 36.2266C86.1998 36.0133 86.0266 35.8407 85.8125 35.8407C85.599 35.8407 85.4258 36.0133 85.4258 36.2266C85.4258 36.4394 85.599 36.6125 85.8125 36.6125Z" fill="#BCAC0B" stroke="black" stroke-width="0.653319"/>
<path d="M77.8738 35.2108H77.5219C77.4339 35.5615 76.6856 35.781 76.6856 35.781C76.5977 35.5034 76.7882 35.1086 76.7882 35.1086C75.9228 34.8891 75.9229 34.5819 75.9229 34.5819C76.0546 34.2899 76.8471 34.2463 76.8471 34.2463C76.6414 33.9833 76.6856 33.5594 76.6856 33.5594C77.2136 33.589 77.6536 34.1145 77.6536 34.1145C77.6536 34.1145 77.1256 33.852 77.1845 32.916C77.1845 32.916 77.4776 32.9021 77.6536 33.0914C77.6536 33.0914 77.6536 32.0834 78.079 31.9666H78.1227C78.5481 32.0834 78.5481 33.0914 78.5481 33.0914C78.7241 32.9021 79.0172 32.916 79.0172 32.916C79.076 33.8515 78.5481 34.1145 78.5481 34.1145C78.5481 34.1145 78.988 33.589 79.516 33.5594C79.516 33.5594 79.5603 33.9827 79.3546 34.2463C79.3546 34.2463 80.1471 34.2899 80.2788 34.5819C80.2788 34.5819 80.2788 34.8891 79.4134 35.1086C79.4134 35.1086 79.604 35.5034 79.516 35.781C79.516 35.781 78.7678 35.5615 78.6798 35.2108H77.8733" fill="#FFCC00"/>
<path d="M77.8738 35.2108H77.5219C77.4339 35.5615 76.6856 35.781 76.6856 35.781C76.5977 35.5034 76.7882 35.1086 76.7882 35.1086C75.9228 34.8891 75.9229 34.5819 75.9229 34.5819C76.0546 34.2899 76.8471 34.2463 76.8471 34.2463C76.6414 33.9833 76.6856 33.5594 76.6856 33.5594C77.2136 33.589 77.6536 34.1145 77.6536 34.1145C77.6536 34.1145 77.1256 33.852 77.1845 32.916C77.1845 32.916 77.4776 32.9021 77.6536 33.0914C77.6536 33.0914 77.6536 32.0834 78.079 31.9666H78.1227C78.5481 32.0834 78.5481 33.0914 78.5481 33.0914C78.7241 32.9021 79.0172 32.916 79.0172 32.916C79.076 33.8515 78.5481 34.1145 78.5481 34.1145C78.5481 34.1145 78.988 33.589 79.516 33.5594C79.516 33.5594 79.5603 33.9827 79.3546 34.2463C79.3546 34.2463 80.1471 34.2899 80.2788 34.5819C80.2788 34.5819 80.2788 34.8891 79.4134 35.1086C79.4134 35.1086 79.604 35.5034 79.516 35.781C79.516 35.781 78.7678 35.5615 78.6798 35.2108H77.8733H77.8738Z" fill="#BCAC0B" stroke="black" stroke-width="0.653319"/>
<path d="M78.0746 35.4101C78.4664 35.4101 78.7836 35.094 78.7836 34.7037C78.7836 34.3139 78.4664 33.9978 78.0746 33.9978C77.6834 33.9978 77.3662 34.3139 77.3662 34.7037C77.3662 35.094 77.6834 35.4101 78.0746 35.4101Z" fill="white"/>
<path d="M78.0746 35.4101C78.4664 35.4101 78.7836 35.094 78.7836 34.7037C78.7836 34.3139 78.4664 33.9978 78.0746 33.9978C77.6834 33.9978 77.3662 34.3139 77.3662 34.7037C77.3662 35.094 77.6834 35.4101 78.0746 35.4101Z" stroke="black" stroke-width="0.40352"/>
<path d="M78.0742 35.0896C78.2883 35.0896 78.4621 34.917 78.4621 34.7037C78.4621 34.4909 78.2883 34.3183 78.0742 34.3183C77.8607 34.3183 77.6875 34.4909 77.6875 34.7037C77.6875 34.917 77.8607 35.0896 78.0742 35.0896Z" fill="white"/>
<path d="M78.0742 35.0896C78.2883 35.0896 78.4621 34.917 78.4621 34.7037C78.4621 34.4909 78.2883 34.3183 78.0742 34.3183C77.8607 34.3183 77.6875 34.4909 77.6875 34.7037C77.6875 34.917 77.8607 35.0896 78.0742 35.0896Z" stroke="black" stroke-width="0.2522"/>
<path d="M83.4496 35.6681L83.7937 35.7424C83.8044 36.1037 84.4904 36.4751 84.4904 36.4751C84.6344 36.2221 84.5319 35.7966 84.5319 35.7966C85.4241 35.7642 85.4886 35.4643 85.4886 35.4643C85.4219 35.1504 84.6569 34.941 84.6569 34.941C84.913 34.7271 84.9601 34.3032 84.9601 34.3032C84.4377 34.2212 83.8958 34.6428 83.8958 34.6428C83.8958 34.6428 84.468 34.497 84.6087 33.57C84.6087 33.57 84.3245 33.4946 84.1132 33.6426C84.1132 33.6426 84.3262 32.6569 83.9355 32.4536L83.8924 32.4441C83.4519 32.4693 83.2383 33.4549 83.2383 33.4549C83.1066 33.2321 82.8169 33.1846 82.8169 33.1846C82.5613 34.0866 83.022 34.4552 83.022 34.4552C83.022 34.4552 82.7031 33.8481 82.1931 33.7085C82.1931 33.7085 82.0602 34.1134 82.2054 34.4138C82.2054 34.4138 81.4219 34.2904 81.2307 34.5484C81.2307 34.5484 81.1663 34.8483 81.9655 35.2448C81.9655 35.2448 81.6954 35.5905 81.7228 35.8804C81.7228 35.8804 82.5007 35.8234 82.661 35.4989L83.0046 35.5726L83.4496 35.6681Z" fill="#FFCC00"/>
<path d="M83.4496 35.6681L83.7937 35.7424C83.8044 36.1037 84.4904 36.4751 84.4904 36.4751C84.6344 36.2221 84.5319 35.7966 84.5319 35.7966C85.4241 35.7642 85.4886 35.4643 85.4886 35.4643C85.4219 35.1504 84.6569 34.941 84.6569 34.941C84.913 34.7271 84.9601 34.3032 84.9601 34.3032C84.4377 34.2212 83.8958 34.6428 83.8958 34.6428C83.8958 34.6428 84.468 34.497 84.6087 33.57C84.6087 33.57 84.3245 33.4946 84.1132 33.6426C84.1132 33.6426 84.3262 32.6569 83.9355 32.4536L83.8924 32.4441C83.4519 32.4693 83.2383 33.4549 83.2383 33.4549C83.1066 33.2321 82.8169 33.1846 82.8169 33.1846C82.5613 34.0866 83.022 34.4552 83.022 34.4552C83.022 34.4552 82.7031 33.8481 82.1931 33.7085C82.1931 33.7085 82.0602 34.1134 82.2054 34.4138C82.2054 34.4138 81.4219 34.2904 81.2307 34.5484C81.2307 34.5484 81.1663 34.8483 81.9655 35.2448C81.9655 35.2448 81.6954 35.5905 81.7228 35.8804C81.7228 35.8804 82.5007 35.8234 82.661 35.4989L83.0046 35.5726L83.4496 35.6681Z" fill="#BCAC0B" stroke="black" stroke-width="0.653319"/>
<path d="M83.2105 35.8212C82.8283 35.7391 82.585 35.3632 82.6674 34.9818C82.7498 34.6009 83.127 34.358 83.5098 34.4406C83.8926 34.5227 84.1358 34.8986 84.0534 35.28C83.9705 35.6609 83.5933 35.9038 83.2105 35.8212Z" fill="white"/>
<path d="M83.2105 35.8212C82.8283 35.7391 82.585 35.3632 82.6674 34.9818C82.7498 34.6009 83.127 34.358 83.5098 34.4406C83.8926 34.5227 84.1358 34.8986 84.0534 35.28C83.9705 35.6609 83.5933 35.9038 83.2105 35.8212Z" stroke="black" stroke-width="0.40352"/>
<path d="M83.2786 35.5079C83.069 35.4632 82.9362 35.2577 82.9816 35.0494C83.0264 34.8416 83.2326 34.7087 83.4417 34.7539C83.6507 34.7986 83.7836 35.0047 83.7387 35.2124C83.6933 35.4207 83.4871 35.5531 83.2786 35.5079Z" fill="white"/>
<path d="M83.2786 35.5079C83.069 35.4632 82.9362 35.2577 82.9816 35.0494C83.0264 34.8416 83.2326 34.7087 83.4417 34.7539C83.6507 34.7986 83.7836 35.0047 83.7387 35.2124C83.6933 35.4207 83.4871 35.5531 83.2786 35.5079Z" stroke="black" stroke-width="0.2522"/>
<path d="M72.5196 35.5994L72.1705 35.6452C72.1295 36.0049 71.4166 36.3204 71.4166 36.3204C71.2928 36.0568 71.4295 35.6408 71.4295 35.6408C70.5429 35.5369 70.502 35.2325 70.502 35.2325C70.5944 34.9259 71.3735 34.7779 71.3735 34.7779C71.1353 34.5445 71.1229 34.1184 71.1229 34.1184C71.6503 34.0787 72.1564 34.5417 72.1564 34.5417C72.1564 34.5417 71.5982 34.3502 71.5326 33.4153C71.5326 33.4153 71.8218 33.3622 72.0214 33.5275C72.0214 33.5275 71.888 32.5279 72.2932 32.3559L72.3369 32.3509C72.7741 32.4101 72.9075 33.4103 72.9075 33.4103C73.0571 33.1992 73.3497 33.1746 73.3497 33.1746C73.5318 34.0944 73.0431 34.4239 73.0431 34.4239C73.0431 34.4239 73.4097 33.8453 73.9292 33.747C73.9292 33.747 74.029 34.1608 73.8603 34.4485C73.8603 34.4485 74.6511 34.3876 74.8209 34.6601C74.8209 34.6601 74.8613 34.9645 74.0323 35.2956C74.0323 35.2956 74.2739 35.6614 74.2234 35.9485C74.2234 35.9485 73.4528 35.8295 73.3189 35.4933L72.9697 35.5397L72.5196 35.5994Z" fill="#FFCC00"/>
<path d="M72.5196 35.5994L72.1705 35.6452C72.1295 36.0049 71.4166 36.3204 71.4166 36.3204C71.2928 36.0568 71.4295 35.6408 71.4295 35.6408C70.5429 35.5369 70.502 35.2325 70.502 35.2325C70.5944 34.9259 71.3735 34.7779 71.3735 34.7779C71.1353 34.5445 71.1229 34.1184 71.1229 34.1184C71.6503 34.0787 72.1564 34.5417 72.1564 34.5417C72.1564 34.5417 71.5982 34.3502 71.5326 33.4153C71.5326 33.4153 71.8218 33.3622 72.0214 33.5275C72.0214 33.5275 71.888 32.5279 72.2932 32.3559L72.3369 32.3509C72.7741 32.4101 72.9075 33.4103 72.9075 33.4103C73.0571 33.1992 73.3497 33.1746 73.3497 33.1746C73.5318 34.0944 73.0431 34.4239 73.0431 34.4239C73.0431 34.4239 73.4097 33.8453 73.9292 33.747C73.9292 33.747 74.029 34.1608 73.8603 34.4485C73.8603 34.4485 74.6511 34.3876 74.8209 34.6601C74.8209 34.6601 74.8613 34.9645 74.0323 35.2956C74.0323 35.2956 74.2739 35.6614 74.2234 35.9485C74.2234 35.9485 73.4528 35.8295 73.3189 35.4933L72.9697 35.5397L72.5196 35.5994Z" fill="#BCAC0B" stroke="black" stroke-width="0.653319"/>
<path d="M72.7445 35.7709C73.1329 35.7195 73.4059 35.3643 73.3537 34.9773C73.3022 34.5909 72.9457 34.3189 72.5579 34.3708C72.1695 34.4222 71.8971 34.7774 71.9486 35.1638C72.0002 35.5503 72.3567 35.8223 72.7445 35.7709Z" fill="white"/>
<path d="M72.7445 35.7709C73.1329 35.7195 73.4059 35.3643 73.3537 34.9773C73.3022 34.5909 72.9457 34.3189 72.5579 34.3708C72.1695 34.4222 71.8971 34.7774 71.9486 35.1638C72.0002 35.5503 72.3567 35.8223 72.7445 35.7709Z" stroke="black" stroke-width="0.40352"/>
<path d="M72.7021 35.4531C72.914 35.4252 73.0631 35.2314 73.0345 35.0198C73.0064 34.8087 72.812 34.6607 72.6001 34.688C72.3877 34.7165 72.2386 34.9103 72.2672 35.1214C72.2952 35.3331 72.4902 35.4811 72.7021 35.4531Z" fill="white"/>
<path d="M72.7021 35.4531C72.914 35.4252 73.0631 35.2314 73.0345 35.0198C73.0064 34.8087 72.812 34.6607 72.6001 34.688C72.3877 34.7165 72.2386 34.9103 72.2672 35.1214C72.2952 35.3331 72.4902 35.4811 72.7021 35.4531Z" stroke="black" stroke-width="0.2522"/>
<path d="M88.3614 37.1006C88.3614 37.1006 88.1837 36.636 87.7914 36.8029C87.3991 36.9699 87.4394 37.0308 87.0886 37.0096C87.0886 37.0096 86.9518 36.5918 87.1245 36.4115C87.1245 36.4115 86.564 36.2026 86.4463 35.7123C86.4463 35.7123 86.7467 35.3649 87.4585 35.4945C87.4585 35.4945 87.4361 35.1421 87.5336 34.9868C87.5336 34.9868 88.2981 35.2225 88.302 35.6475C88.302 35.6475 88.0728 34.8137 88.4763 34.2083C88.4763 34.2083 88.8344 34.3613 88.8115 34.7411C88.8115 34.7411 88.9762 33.9598 90.0361 34.1698C90.0361 34.1698 89.4616 34.6774 89.433 34.9097C89.4044 35.1421 88.9252 35.538 88.9168 35.6698C88.9095 35.8011 88.8513 36.0317 88.7106 36.1696C88.5699 36.3076 88.5559 36.5416 88.5671 36.6147C88.5766 36.689 88.543 37.009 88.3614 37.1006Z" fill="#FFCC00"/>
<path d="M88.3614 37.1006C88.3614 37.1006 88.1837 36.636 87.7914 36.8029C87.3991 36.9699 87.4394 37.0308 87.0886 37.0096C87.0886 37.0096 86.9518 36.5918 87.1245 36.4115C87.1245 36.4115 86.564 36.2026 86.4463 35.7123C86.4463 35.7123 86.7467 35.3649 87.4585 35.4945C87.4585 35.4945 87.4361 35.1421 87.5336 34.9868C87.5336 34.9868 88.2981 35.2225 88.302 35.6475C88.302 35.6475 88.0728 34.8137 88.4763 34.2083C88.4763 34.2083 88.8344 34.3613 88.8115 34.7411C88.8115 34.7411 88.9762 33.9598 90.0361 34.1698C90.0361 34.1698 89.4616 34.6774 89.433 34.9097C89.4044 35.1421 88.9252 35.538 88.9168 35.6698C88.9095 35.8011 88.8513 36.0317 88.7106 36.1696C88.5699 36.3076 88.5559 36.5416 88.5671 36.6147C88.5766 36.689 88.543 37.009 88.3614 37.1006Z" fill="#BCAC0B" stroke="black" stroke-width="0.653319"/>
<path d="M87.7883 36.1736C87.8634 35.791 88.2356 35.5408 88.6195 35.6156C88.7288 35.6363 88.8263 35.6821 88.9093 35.7447C88.888 35.877 88.8285 36.0552 88.712 36.1696C88.5713 36.3076 88.5573 36.5416 88.5679 36.6147C88.5758 36.6728 88.555 36.8817 88.4586 37.014C88.4222 37.0124 88.3852 37.009 88.3488 37.0018C87.9654 36.9275 87.7143 36.5567 87.7883 36.1736Z" fill="white"/>
<path d="M87.7883 36.1736C87.8634 35.791 88.2356 35.5408 88.6195 35.6156C88.7288 35.6363 88.8263 35.6821 88.9093 35.7447C88.888 35.877 88.8285 36.0552 88.712 36.1696C88.5713 36.3076 88.5573 36.5416 88.5679 36.6147C88.5758 36.6728 88.555 36.8817 88.4586 37.014C88.4222 37.0124 88.3852 37.009 88.3488 37.0018C87.9654 36.9275 87.7143 36.5567 87.7883 36.1736Z" stroke="black" stroke-width="0.40352"/>
<path d="M88.1039 36.235C88.1443 36.0261 88.3477 35.8893 88.5579 35.93C88.6532 35.9485 88.7322 36.0015 88.7882 36.073C88.7658 36.1076 88.7406 36.1411 88.7115 36.1696C88.5708 36.3076 88.5568 36.5416 88.5674 36.6147C88.5691 36.6298 88.5691 36.6555 88.5663 36.6856C88.5164 36.6963 88.4632 36.6979 88.4099 36.6873C88.1998 36.6466 88.063 36.4444 88.1039 36.235Z" fill="white"/>
<path d="M88.1039 36.235C88.1443 36.0261 88.3477 35.8893 88.5579 35.93C88.6532 35.9485 88.7322 36.0015 88.7882 36.073C88.7658 36.1076 88.7406 36.1411 88.7115 36.1696C88.5708 36.3076 88.5568 36.5416 88.5674 36.6147C88.5691 36.6298 88.5691 36.6555 88.5663 36.6856C88.5164 36.6963 88.4632 36.6979 88.4099 36.6873C88.1998 36.6466 88.063 36.4444 88.1039 36.235Z" stroke="black" stroke-width="0.2522"/>
<path d="M67.8265 36.9062C67.8265 36.9062 68.0317 36.4533 68.4128 36.6432C68.7944 36.8331 68.7502 36.8917 69.1027 36.8917C69.1027 36.8917 69.2636 36.4824 69.1027 36.2925C69.1027 36.2925 69.6744 36.1171 69.8212 35.6346C69.8212 35.6346 69.5427 35.2694 68.8236 35.3571C68.8236 35.3571 68.8679 35.0058 68.7799 34.8455C68.7799 34.8455 68.0025 35.0354 67.9728 35.4593C67.9728 35.4593 68.2519 34.6405 67.8848 34.0123C67.8848 34.0123 67.5183 34.1435 67.5183 34.5238C67.5183 34.5238 67.4011 33.7342 66.3301 33.8805C66.3301 33.8805 66.8726 34.4216 66.8877 34.6551C66.9023 34.8891 67.3569 35.3129 67.3569 35.4447C67.3569 35.576 67.4011 35.81 67.5328 35.9563C67.6651 36.1026 67.6651 36.336 67.65 36.4092C67.6354 36.4818 67.65 36.8035 67.8265 36.9062Z" fill="#FFCC00"/>
<path d="M67.8265 36.9062C67.8265 36.9062 68.0317 36.4533 68.4128 36.6432C68.7944 36.8331 68.7502 36.8917 69.1027 36.8917C69.1027 36.8917 69.2636 36.4824 69.1027 36.2925C69.1027 36.2925 69.6744 36.1171 69.8212 35.6346C69.8212 35.6346 69.5427 35.2694 68.8236 35.3571C68.8236 35.3571 68.8679 35.0058 68.7799 34.8455C68.7799 34.8455 68.0025 35.0354 67.9728 35.4593C67.9728 35.4593 68.2519 34.6405 67.8848 34.0123C67.8848 34.0123 67.5183 34.1435 67.5183 34.5238C67.5183 34.5238 67.4011 33.7342 66.3301 33.8805C66.3301 33.8805 66.8726 34.4216 66.8877 34.6551C66.9023 34.8891 67.3569 35.3129 67.3569 35.4447C67.3569 35.576 67.4011 35.81 67.5328 35.9563C67.6651 36.1026 67.6651 36.336 67.65 36.4092C67.6354 36.4818 67.65 36.8035 67.8265 36.9062Z" fill="#BCAC0B" stroke="black" stroke-width="0.653319"/>
<path d="M68.4542 36.0155C68.4027 35.6285 68.0468 35.3571 67.6584 35.4085C67.5485 35.423 67.4482 35.4626 67.3613 35.5202C67.3748 35.6536 67.423 35.8346 67.5328 35.9563C67.6651 36.1026 67.6651 36.3361 67.65 36.4092C67.6388 36.4662 67.6466 36.6762 67.7357 36.8136C67.7716 36.8141 67.8086 36.8136 67.8456 36.8085C68.2334 36.7572 68.5064 36.402 68.4542 36.0155Z" fill="white"/>
<path d="M68.4542 36.0155C68.4027 35.6285 68.0468 35.3571 67.6584 35.4085C67.5485 35.423 67.4482 35.4626 67.3613 35.5202C67.3748 35.6536 67.423 35.8346 67.5328 35.9563C67.6651 36.1026 67.6651 36.3361 67.65 36.4092C67.6388 36.4662 67.6466 36.6762 67.7357 36.8136C67.7716 36.8141 67.8086 36.8136 67.8456 36.8085C68.2334 36.7572 68.5064 36.402 68.4542 36.0155Z" stroke="black" stroke-width="0.40352"/>
<path d="M68.1356 36.0574C68.1076 35.8463 67.9125 35.6977 67.7007 35.7257C67.6037 35.7391 67.5219 35.7871 67.4619 35.8547C67.4827 35.891 67.5051 35.9256 67.5325 35.9563C67.6648 36.1026 67.6648 36.3361 67.6497 36.4092C67.6469 36.4237 67.6457 36.4489 67.6463 36.4796C67.6956 36.4935 67.7489 36.498 67.8027 36.4913C68.0145 36.4628 68.1636 36.269 68.1356 36.0574Z" fill="white"/>
<path d="M68.1356 36.0574C68.1076 35.8463 67.9125 35.6977 67.7007 35.7257C67.6037 35.7391 67.5219 35.7871 67.4619 35.8547C67.4827 35.891 67.5051 35.9256 67.5325 35.9563C67.6648 36.1026 67.6648 36.3361 67.6497 36.4092C67.6469 36.4237 67.6457 36.4489 67.6463 36.4796C67.6956 36.4935 67.7489 36.498 67.8027 36.4913C68.0145 36.4628 68.1636 36.269 68.1356 36.0574Z" stroke="black" stroke-width="0.2522"/>
<path d="M69.0137 41.174C69.0137 41.174 76.8882 38.1003 86.8365 41.2399" stroke="black" stroke-width="1.5084"/>
<path d="M87.9466 38.7263C76.9542 35.2571 68.1924 38.5314 68.1924 38.5314" stroke="black" stroke-width="0.501998"/>
<path d="M78.0504 37.959L77.1699 38.3973L77.9624 38.8944L78.9012 38.4264L78.0504 37.959Z" fill="#FF0000"/>
<path d="M78.0504 37.959L77.1699 38.3973L77.9624 38.8944L78.9012 38.4264L78.0504 37.959Z" stroke="black" stroke-width="0.501998"/>
</g>
</g>
<rect x="9" y="5" width="140" height="93" rx="10" stroke="black" stroke-opacity="0.5" stroke-width="0.5" shape-rendering="crispEdges"/>
</g>
<defs>
<filter id="filter0_d_41_3011" x="0.75" y="0.75" width="156.5" height="109.5" filterUnits="userSpaceOnUse" color-interpolation-filters="sRGB">
<feFlood flood-opacity="0" result="BackgroundImageFix"/>
<feColorMatrix in="SourceAlpha" type="matrix" values="0 0 0 0 0 0 0 0 0 0 0 0 0 0 0 0 0 0 127 0" result="hardAlpha"/>
<feOffset dy="4"/>
<feGaussianBlur stdDeviation="4"/>
<feComposite in2="hardAlpha" operator="out"/>
<feColorMatrix type="matrix" values="0 0 0 0 0.641667 0 0 0 0 0.641667 0 0 0 0 0.641667 0 0 0 0.25 0"/>
<feBlend mode="normal" in2="BackgroundImageFix" result="effect1_dropShadow_41_3011"/>
<feBlend mode="normal" in="SourceGraphic" in2="effect1_dropShadow_41_3011" result="shape"/>
</filter>
<clipPath id="clip0_41_3011">
<rect x="9" y="5" width="140" height="93" rx="10" fill="white"/>
</clipPath>
<clipPath id="clip1_41_3011">
<rect x="9" y="5" width="140" height="93" rx="10" fill="white"/>
</clipPath>
</defs>
</svg>
