<svg width="166" height="119" viewBox="0 0 166 119" fill="none" xmlns="http://www.w3.org/2000/svg">
<g filter="url(#filter0_dd_41_2811)">
<g clip-path="url(#clip0_41_2811)">
<rect x="13" y="5" width="140" height="93" rx="10" fill="white"/>
<path d="M153 5H13V98H153V5Z" fill="#FF0000"/>
<path d="M69 5H13V98H69V5Z" fill="#006600"/>
<path fill-rule="evenodd" clip-rule="evenodd" d="M87.2555 65.9243C80.2065 65.7127 47.8828 45.6084 47.6611 42.4069L49.446 39.4409C52.6523 44.083 85.6967 63.6349 88.9424 62.942L87.2554 65.9234" fill="#FFFF00"/>
<path d="M87.2555 65.9243C80.2065 65.7127 47.8828 45.6084 47.6611 42.4069L49.446 39.4409C52.6523 44.083 85.6967 63.6349 88.9424 62.942L87.2554 65.9234" stroke="#000008" stroke-width="0.211055" stroke-linecap="round" stroke-linejoin="round"/>
<path fill-rule="evenodd" clip-rule="evenodd" d="M49.0708 39.0379C48.4385 40.7337 57.5056 46.3193 68.4149 52.9307C79.3237 59.5416 88.73 63.6271 89.4272 63.0412C89.4698 62.9655 89.7703 62.4505 89.7427 62.4546C89.612 62.6508 89.2939 62.7127 88.7976 62.5702C85.8503 61.7231 78.1634 58.2073 68.6436 52.4551C59.1241 46.7023 50.8417 41.4011 49.5544 39.1486C49.4649 38.9926 49.4011 38.7078 49.4141 38.4863L49.3828 38.4858L49.1087 38.9632L49.071 39.0381L49.0708 39.0379ZM87.4215 66.0172C87.3019 66.2333 87.0791 66.2405 86.6558 66.1942C84.0191 65.9034 76.0184 62.0266 66.5513 56.3796C55.5357 49.8092 46.438 43.8223 47.425 42.2576L47.6935 41.7846L47.7464 41.801C46.8589 44.4526 65.701 55.1879 66.8102 55.8723C77.7125 62.6025 86.9037 66.5327 87.7171 65.5113L87.4212 66.0184V66.0179L87.4215 66.0172Z" fill="#FFFF00" stroke="#000008" stroke-width="0.211055" stroke-linecap="round" stroke-linejoin="round"/>
<path fill-rule="evenodd" clip-rule="evenodd" d="M69.0394 44.3461C76.0947 44.2906 84.801 43.3855 89.8114 41.3957L88.7319 39.6481C85.7704 41.2813 77.0162 42.3553 68.9797 42.516C59.4747 42.4288 52.7654 41.5469 49.4038 39.2993L48.3848 41.1604C54.5644 43.766 60.8967 44.3192 69.0394 44.3461Z" fill="#FFFF00" stroke="#000008" stroke-width="0.211055" stroke-linecap="round" stroke-linejoin="round"/>
<path fill-rule="evenodd" clip-rule="evenodd" d="M90.1027 41.4353C89.9303 41.7101 86.6627 42.8329 81.849 43.6615C78.5852 44.1573 74.3278 44.5812 69.0148 44.5863C63.9671 44.591 59.8436 44.233 56.7218 43.8114C51.6688 43.022 49.0608 41.9235 48.0967 41.5353C48.1889 41.3526 48.2481 41.2245 48.337 41.0539C51.1125 42.155 53.7326 42.819 56.8021 43.2896C59.9034 43.7081 63.9771 44.0712 68.9999 44.0665C74.2881 44.0612 78.4986 43.6051 81.7436 43.1241C86.6798 42.3308 89.3762 41.3098 89.7549 40.8357L90.1035 41.4353H90.103H90.1027ZM89.1553 39.663C88.6203 40.0912 85.9545 41.0332 81.2642 41.7796C78.1341 42.2266 74.1541 42.6266 69.0691 42.6316C64.2381 42.6363 60.2913 42.3119 57.2892 41.8761C52.526 41.2563 49.9908 40.1381 49.0768 39.8121C49.1678 39.6554 49.2604 39.5 49.3555 39.344C50.0666 39.7008 52.5132 40.6903 57.3415 41.3719C60.3095 41.7913 64.2624 42.1038 69.0693 42.0988C74.1303 42.0937 78.065 41.6859 81.1754 41.2413C85.8899 40.595 88.4267 39.3936 88.8119 39.0928L89.1556 39.6626L89.1553 39.663Z" fill="#FFFF00" stroke="#000008" stroke-width="0.211055" stroke-linecap="round" stroke-linejoin="round"/>
<path fill-rule="evenodd" clip-rule="evenodd" d="M45.872 52.8162C50.2115 55.1419 59.8498 56.3139 68.9706 56.3946C77.2751 56.4077 88.0941 55.1155 92.1399 52.9792L92.0285 50.6514C90.7628 52.6223 79.1688 54.513 68.8805 54.4355C58.5921 54.3582 49.0383 52.7748 45.8535 50.7251L45.872 52.8156" fill="#FFFF00"/>
<path d="M45.872 52.8162C50.2115 55.1419 59.8498 56.3139 68.9706 56.3946C77.2751 56.4077 88.0941 55.1155 92.1399 52.9792L92.0286 50.6514C90.7628 52.6223 79.1689 54.513 68.8805 54.4355C58.5921 54.3582 49.0383 52.7748 45.8535 50.7251L45.872 52.8156" stroke="#000008" stroke-width="0.211055" stroke-linecap="round" stroke-linejoin="round"/>
<path fill-rule="evenodd" clip-rule="evenodd" d="M92.3606 52.4811L92.3608 53.0362C91.7527 53.7606 87.9401 54.8556 83.1588 55.6267C79.52 56.1826 74.7759 56.6019 68.8644 56.6019C63.2483 56.6019 58.7697 56.2029 55.2965 55.6716C49.8064 54.875 46.2947 53.48 45.5898 53.0636L45.5929 52.4161C47.7104 53.8188 53.4472 54.845 55.3736 55.1591C58.8241 55.6869 63.2761 56.0829 68.8642 56.0829C74.7479 56.0829 79.4655 55.6664 83.0814 55.1142C86.5117 54.6205 91.3984 53.3364 92.3604 52.4814L92.3606 52.4811ZM92.3629 50.5067L92.3631 51.0617C91.7551 51.7858 87.9424 52.8808 83.1612 53.6518C79.5223 54.2077 74.7782 54.627 68.8667 54.627C63.2506 54.627 58.772 54.2284 55.2988 53.6967C49.8087 52.9005 46.2971 51.5055 45.5922 51.089L45.5953 50.4414C47.7127 51.844 53.4495 52.8703 55.3759 53.184C58.8264 53.7122 63.2784 54.1084 68.8665 54.1084C74.7503 54.1084 79.4678 53.6917 83.0838 53.1391C86.514 52.6453 91.4007 51.3612 92.3627 50.5062L92.3629 50.5067Z" fill="#FFFF00" stroke="#000008" stroke-width="0.211055" stroke-linecap="round" stroke-linejoin="round"/>
<path fill-rule="evenodd" clip-rule="evenodd" d="M68.9506 65.5248C58.9705 65.4656 50.419 62.8141 48.6133 62.3758L49.9301 64.4298C53.1197 65.7668 61.4623 67.7592 69.0464 67.5386C76.6306 67.3182 83.2587 66.7327 87.9296 64.467L89.2797 62.3384C86.0965 63.8322 75.2639 65.5095 68.9506 65.5248Z" fill="#FFFF00" stroke="#000008" stroke-width="0.211055" stroke-linecap="round" stroke-linejoin="round"/>
<path fill-rule="evenodd" clip-rule="evenodd" d="M88.4364 63.9903C88.238 64.2924 88.0357 64.5907 87.8306 64.8807C85.6275 65.6547 82.1562 66.4674 80.6913 66.7044C77.699 67.3187 73.0695 67.7725 68.9607 67.7746C60.1197 67.6456 52.8829 65.9211 49.4783 64.45L49.2036 63.9794L49.2484 63.9087L49.7143 64.0887C55.7689 66.2471 62.5689 67.1082 69.0105 67.2628C73.1027 67.2772 77.1994 66.7955 80.512 66.2052C85.5919 65.191 87.6459 64.4265 88.2761 64.08L88.4364 63.9903ZM89.6071 62.0663C89.6122 62.0723 89.6174 62.078 89.6223 62.0844C89.4739 62.3339 89.321 62.5878 89.1645 62.8428C87.9895 63.2613 84.8007 64.1911 80.144 64.8399C77.0759 65.2563 75.1689 65.6597 69.0656 65.7778C57.6288 65.4878 50.2239 63.2596 48.4648 62.7099L48.2041 62.2117C54.8322 63.9357 61.6026 65.1393 69.066 65.2623C74.6499 65.1438 77.0254 64.7341 80.0681 64.3207C85.498 63.4794 88.2338 62.5886 89.0549 62.3315C89.0446 62.3167 89.0325 62.3011 89.0189 62.2851L89.6076 62.0659L89.6071 62.0663Z" fill="#FFFF00" stroke="#000008" stroke-width="0.202583" stroke-linecap="round" stroke-linejoin="round"/>
<path fill-rule="evenodd" clip-rule="evenodd" d="M89.7263 50.9791C89.7587 57.521 86.399 63.3914 83.6928 65.9812C79.8642 69.6451 74.7881 72.002 68.86 72.1106C62.2403 72.2317 55.9987 67.9316 54.3245 66.0426C51.0513 62.3493 48.3864 57.6593 48.301 51.3386C48.7065 44.1987 51.5194 39.2253 55.5969 35.8148C59.6744 32.4042 65.1036 30.7432 69.6251 30.862C74.842 30.9992 80.936 33.5493 85.1467 38.6117C87.9054 41.9286 89.1 45.5281 89.7263 50.9791ZM68.9162 28.5796C81.6294 28.5796 92.0853 38.8882 92.0853 51.528C92.0853 64.1677 81.6294 74.4767 68.9162 74.4767C56.2031 74.4767 45.834 64.1679 45.834 51.528C45.834 38.8882 56.2031 28.5796 68.9162 28.5796Z" fill="#FFFF00" stroke="#000008" stroke-width="0.211055" stroke-linecap="round" stroke-linejoin="round"/>
<path fill-rule="evenodd" clip-rule="evenodd" d="M68.9785 28.5015C81.7031 28.5015 92.0811 38.8438 92.0811 51.5241C92.0811 64.2042 81.7029 74.5462 68.9785 74.5462C56.2539 74.5462 45.876 64.2044 45.876 51.5241C45.876 38.8438 56.2542 28.5015 68.9785 28.5015ZM46.3844 51.5242C46.3844 63.9071 56.5895 74.0399 68.9785 74.0399C81.3678 74.0399 91.5729 63.9071 91.5729 51.5242C91.5729 39.1408 81.3676 29.0079 68.9785 29.0079C56.5895 29.0079 46.3844 39.1412 46.3844 51.5242Z" fill="#FFFF00" stroke="#000008" stroke-width="0.211055" stroke-linecap="round" stroke-linejoin="round"/>
<path fill-rule="evenodd" clip-rule="evenodd" d="M68.9976 30.4146C80.6015 30.4146 90.1593 39.9054 90.1593 51.5032C90.1593 63.1013 80.6013 72.5917 68.9976 72.5917C57.394 72.5917 47.8359 63.1013 47.8359 51.5032C47.8359 39.9054 57.3942 30.4146 68.9976 30.4146ZM48.3441 51.5031C48.3441 62.8224 57.6726 72.0849 68.9976 72.0849C80.3227 72.0849 89.6511 62.8224 89.6511 51.5031C89.6511 40.1836 80.3229 30.921 68.9976 30.921C57.6726 30.921 48.3441 40.1836 48.3441 51.5031Z" fill="#FFFF00" stroke="#000008" stroke-width="0.211055" stroke-linecap="round" stroke-linejoin="round"/>
<path fill-rule="evenodd" clip-rule="evenodd" d="M69.9282 28.4082H67.9482L67.9506 74.6664H69.9373L69.9282 28.4082Z" fill="#FFFF00" stroke="#000008" stroke-width="0.211055" stroke-linecap="round" stroke-linejoin="round"/>
<path fill-rule="evenodd" clip-rule="evenodd" d="M69.7296 28.1445H70.2336L70.2379 74.9352H69.7335L69.7296 28.1445ZM67.7646 28.1449H68.2725L68.2732 74.9356H67.765V28.1449H67.7646Z" fill="#FFFF00" stroke="#000008" stroke-width="0.211055" stroke-linecap="round" stroke-linejoin="round"/>
<path fill-rule="evenodd" clip-rule="evenodd" d="M92.0968 52.4148V50.7047L90.6991 49.4073L82.7658 47.3148L71.3324 46.1523L57.5658 46.8498L47.7658 49.1748L45.7871 50.6349V52.3455L50.7991 50.1049L62.6991 48.2449H74.1324L82.5324 49.1749L88.3658 50.5699L92.0968 52.4148Z" fill="#FFFF00" stroke="#000008" stroke-width="0.211055" stroke-linecap="round" stroke-linejoin="round"/>
<path fill-rule="evenodd" clip-rule="evenodd" d="M68.988 47.9589C74.444 47.9489 79.7376 48.474 83.9365 49.2887C88.2692 50.1518 91.3184 51.2314 92.361 52.444L92.3598 53.0443C91.1025 51.5354 86.9994 50.4292 83.8389 49.7968C79.6721 48.9891 74.4139 48.4676 68.988 48.4777C63.2624 48.4883 57.931 49.0287 53.825 49.8269C50.5304 50.4784 46.1365 51.7725 45.5879 53.0489V52.4237C45.8891 51.5401 49.1609 50.2198 53.7508 49.3043C57.8876 48.5005 63.2288 47.9694 68.988 47.9589ZM68.9903 45.9845C74.4463 45.9747 79.74 46.5 83.9388 47.3143C88.2716 48.1778 91.3208 49.2569 92.3633 50.4695L92.3621 51.0699C91.1048 49.5613 87.0018 48.455 83.8413 47.8228C79.6744 47.0147 74.4162 46.4933 68.9903 46.5037C63.2648 46.514 57.9592 47.0547 53.8528 47.8525C50.6734 48.4531 46.1001 49.7985 45.59 51.075V50.4494C45.8912 49.5755 49.2293 48.2077 53.7532 47.3299C57.8899 46.5261 63.2312 45.9954 68.9903 45.9845Z" fill="#FFFF00" stroke="#000008" stroke-width="0.211055" stroke-linecap="round" stroke-linejoin="round"/>
<path fill-rule="evenodd" clip-rule="evenodd" d="M68.8783 35.9132C77.4764 35.8703 84.9759 37.1111 88.4071 38.8624L89.6586 41.0198C86.6764 39.4184 78.5856 37.7532 68.8908 38.0022C60.9915 38.0506 52.5512 38.8687 48.3164 41.12L49.8106 38.6302C53.2861 36.8343 61.4824 35.9232 68.8786 35.9137" fill="#FFFF00"/>
<path d="M68.8783 35.9132C77.4764 35.8703 84.9759 37.1111 88.4071 38.8624L89.6586 41.0198C86.6764 39.4184 78.5856 37.7532 68.8908 38.0022C60.9915 38.0506 52.5512 38.8687 48.3164 41.12L49.8106 38.6302C53.2861 36.8343 61.4824 35.9232 68.8786 35.9137" stroke="#000008" stroke-width="0.211055" stroke-linecap="round" stroke-linejoin="round"/>
<path fill-rule="evenodd" clip-rule="evenodd" d="M68.9927 37.6942C73.8967 37.6813 78.6352 37.9569 82.4038 38.6344C85.9134 39.2852 89.2603 40.2621 89.7388 40.7874L90.1099 41.4407C88.946 40.6835 86.0496 39.8403 82.3308 39.1376C78.596 38.4381 73.8608 38.2064 68.9841 38.2191C63.449 38.2003 59.1486 38.4914 55.458 39.1327C51.5548 39.8604 48.8467 40.9 48.1787 41.394L48.5423 40.7034C49.8404 40.0435 51.9 39.2481 55.361 38.6272C59.1776 37.9325 63.5237 37.7242 68.993 37.6942L68.9927 37.6942ZM68.9906 35.7216C73.6837 35.7093 78.3174 35.9699 81.9294 36.6169C84.7782 37.1695 87.5955 38.0321 88.627 38.7999L89.1697 39.659C88.2472 38.6373 84.7746 37.669 81.7091 37.1266C78.1248 36.5107 73.6836 36.2669 68.9905 36.2279C64.0653 36.2416 59.5137 36.5422 55.9817 37.183C52.6122 37.822 50.4377 38.5784 49.5177 39.1692L49.9949 38.4515C51.2645 37.7855 53.3157 37.1738 55.8989 36.6737C59.457 36.0282 64.0365 35.7353 68.9906 35.7216Z" fill="#FFFF00" stroke="#000008" stroke-width="0.211055" stroke-linecap="round" stroke-linejoin="round"/>
<path fill-rule="evenodd" clip-rule="evenodd" d="M80.4673 61.093C76.2164 60.3023 71.9579 60.1874 68.9833 60.2223C54.655 60.3896 50.0264 63.1539 49.4615 63.9909L48.3906 62.2515C52.0386 59.6168 59.841 58.1392 69.0609 58.2903C73.8485 58.3685 77.9799 58.6853 81.4554 59.356L80.467 61.0934" fill="#FFFF00"/>
<path d="M80.4673 61.093C76.2164 60.3023 71.9579 60.1874 68.9833 60.2223C54.655 60.3896 50.0264 63.1539 49.4615 63.9909L48.3906 62.2515C52.0386 59.6168 59.841 58.1392 69.0609 58.2903C73.8485 58.3685 77.9799 58.6853 81.4554 59.356L80.467 61.0934" stroke="#000008" stroke-width="0.211055" stroke-linecap="round" stroke-linejoin="round"/>
<path fill-rule="evenodd" clip-rule="evenodd" d="M68.9021 59.9772C72.8879 60.0364 76.8002 60.2005 80.5764 60.9022L80.303 61.3832C76.7957 60.7381 73.0568 60.4912 68.9156 60.5113C63.6276 60.4701 58.2791 60.9622 53.6227 62.2939C52.1534 62.7013 49.7211 63.6425 49.4731 64.4203L49.201 63.9732C49.2794 63.5135 50.7495 62.5594 53.4976 61.79C58.8312 60.2682 63.8201 60.0116 68.9021 59.9768L68.9021 59.9772ZM69.0829 57.9785C73.2125 58.0554 77.4771 58.2457 81.6223 59.0639L81.3375 59.5646C77.5943 58.8242 74.018 58.5773 69.1073 58.502C63.8025 58.5117 58.1754 58.8886 53.0591 60.3707C51.4073 60.8501 48.5565 61.8866 48.4615 62.7073L48.1895 62.2271C48.2514 61.4817 50.7193 60.5094 52.9397 59.8658C58.0954 58.3722 63.737 57.9882 69.0829 57.9785Z" fill="#FFFF00" stroke="#000008" stroke-width="0.202583" stroke-linecap="round" stroke-linejoin="round"/>
<path fill-rule="evenodd" clip-rule="evenodd" d="M89.4347 62.5158L87.713 65.1777L82.7661 60.8L69.9327 52.1975L55.4661 44.2925L47.9551 41.7327L49.5557 38.7753L50.0994 38.48L54.7661 39.6425L70.1661 47.5475L79.0327 53.1275L86.4994 58.475L89.5327 61.9625L89.4347 62.5158Z" fill="#FFFF00" stroke="#000008" stroke-width="0.211055" stroke-linecap="round" stroke-linejoin="round"/>
<path fill-rule="evenodd" clip-rule="evenodd" d="M47.6845 41.8024C49.0019 40.9121 58.6836 45.2097 68.814 51.2964C78.9176 57.4004 88.572 64.298 87.7005 65.5888L87.4138 66.0381L87.2823 66.1414C87.3105 66.1213 87.4558 65.9444 87.2681 65.4658C86.8376 64.0544 79.9893 58.6091 68.6262 51.7727C57.5487 45.1909 48.3166 41.2239 47.3936 42.3578L47.6845 41.8024ZM89.7872 62.478C90.6202 60.8384 81.6401 54.0977 70.5064 47.5347C59.1167 41.1024 50.9078 37.3161 49.4084 38.4452L49.0752 39.0494C49.0723 39.0827 49.0874 39.0082 49.1577 38.9541C49.4304 38.7171 49.8823 38.733 50.0862 38.7294C52.668 38.7679 60.0418 42.1492 70.3876 48.0591C74.9208 50.6898 89.5375 60.0308 89.4817 62.6576C89.4857 62.8833 89.5005 62.9299 89.4153 63.0416L89.7872 62.478Z" fill="#FFFF00"/>
<path d="M89.7872 62.478C90.6202 60.8384 81.6401 54.0977 70.5064 47.5347C59.1167 41.1024 50.9078 37.3161 49.4084 38.4452L49.0752 39.0494C49.0723 39.0827 49.0874 39.0082 49.1577 38.9541C49.4304 38.7171 49.8823 38.733 50.0862 38.7294C52.668 38.7679 60.0418 42.1492 70.3876 48.0591C74.9208 50.6898 89.5375 60.0308 89.4817 62.6576C89.4857 62.8833 89.5005 62.9299 89.4153 63.0416L89.7872 62.478ZM89.7872 62.478L89.7871 62.4777M47.6845 41.8024C49.0019 40.9121 58.6836 45.2097 68.814 51.2964C78.9176 57.4004 88.572 64.298 87.7005 65.5888L87.4138 66.0381L87.2823 66.1414C87.3105 66.1213 87.4558 65.9444 87.2681 65.4658C86.8376 64.0544 79.9893 58.6091 68.6262 51.7727C57.5487 45.1909 48.3166 41.2239 47.3936 42.3578L47.6845 41.8024Z" stroke="#000008" stroke-width="0.211055" stroke-linecap="round" stroke-linejoin="round"/>
<path d="M55.14 54.0596C55.14 57.8426 56.6946 61.2641 59.2133 63.7646C61.7368 66.2705 65.1661 67.8517 68.9687 67.8517C72.791 67.8517 76.2597 66.305 78.7724 63.8088C81.2852 61.3129 82.8425 57.868 82.8432 54.0717H82.8427V35.6603L55.1367 35.6274L55.1396 54.0596L55.14 54.0596Z" fill="white" stroke="#000008" stroke-width="0.24692"/>
<path d="M55.6576 54.0852V54.0957C55.6576 57.7127 57.1606 61.0065 59.5718 63.3978C61.9877 65.7937 65.3151 67.2833 68.9551 67.2833C72.614 67.2833 75.9345 65.8045 78.3402 63.4178C80.7454 61.0312 82.2362 57.7371 82.2366 54.1076H82.2362V36.2455L55.6735 36.2412L55.6572 54.0851M76.8957 41.5889L76.8966 52.9561L76.887 54.1585C76.887 54.4749 76.868 54.8356 76.831 55.1428C76.6151 56.9398 75.7856 58.5063 74.5571 59.7249C73.119 61.1514 71.1339 62.0362 68.9462 62.0362C66.7699 62.0362 64.8304 61.1207 63.3861 59.688C61.9045 58.2186 61.0457 56.2037 61.0457 54.1203L61.0427 41.56L76.8953 41.5885L76.8957 41.5889Z" fill="#FF0000"/>
<path d="M55.6576 54.0852V54.0957C55.6576 57.7127 57.1606 61.0065 59.5718 63.3978C61.9877 65.7937 65.3151 67.2833 68.9551 67.2833C72.614 67.2833 75.9345 65.8045 78.3402 63.4178C80.7454 61.0312 82.2362 57.7371 82.2366 54.1076H82.2362V36.2455L55.6735 36.2412L55.6572 54.0851M76.8957 41.5889L76.8966 52.9561L76.887 54.1585C76.887 54.4749 76.868 54.8356 76.831 55.1428C76.6151 56.9398 75.7856 58.5063 74.5571 59.7249C73.119 61.1514 71.1339 62.0362 68.9462 62.0362C66.7699 62.0362 64.8304 61.1207 63.3861 59.688C61.9045 58.2186 61.0457 56.2037 61.0457 54.1203L61.0427 41.56L76.8953 41.5885L76.8957 41.5889Z" stroke="#000008" stroke-width="0.18687"/>
<path d="M57.3789 40.9041C57.4104 39.6204 58.3245 39.3166 58.331 39.3121C58.3376 39.3078 59.3184 39.6393 59.3151 40.916L57.3789 40.9041Z" fill="#FFFF00"/>
<path d="M56.5907 39.3373L56.4316 40.8125L57.3978 40.8145C57.407 39.5941 58.325 39.3911 58.3472 39.3956C58.368 39.3944 59.278 39.6654 59.3022 40.8145H60.2708L60.0959 39.3281L56.5908 39.3369L56.5907 39.3373Z" fill="#FFFF00" stroke="#000008" stroke-width="0.184167"/>
<path d="M56.3663 40.8184H60.3204C60.4037 40.8184 60.4718 40.9004 60.4718 41.0006C60.4718 41.1007 60.4037 41.1823 60.3204 41.1823H56.3663C56.283 41.1823 56.2148 41.1007 56.2148 41.0006C56.2148 40.9004 56.283 40.8184 56.3663 40.8184Z" fill="#FFFF00" stroke="#000008" stroke-width="0.184167"/>
<path d="M57.8037 40.8115C57.808 40.0413 58.3315 39.8233 58.3342 39.8237C58.3344 39.8237 58.8808 40.0485 58.8851 40.8115H57.8037Z" fill="#FFFF00" stroke="#000008" stroke-width="0.184167"/>
<path d="M56.45 38.7236H60.2405C60.3203 38.7236 60.3857 38.7977 60.3857 38.8875C60.3857 38.9775 60.3203 39.0513 60.2405 39.0513H56.45C56.3701 39.0513 56.3047 38.9779 56.3047 38.8875C56.3047 38.7977 56.3701 38.7236 56.45 38.7236Z" fill="#FFFF00" stroke="#000008" stroke-width="0.184167"/>
<path d="M56.5295 39.0537H60.1551C60.2314 39.0537 60.294 39.1273 60.294 39.2173C60.294 39.3076 60.2314 39.3812 60.1551 39.3812H56.5295C56.4532 39.3812 56.3906 39.3076 56.3906 39.2173C56.3906 39.1273 56.4532 39.0537 56.5295 39.0537Z" fill="#FFFF00" stroke="#000008" stroke-width="0.184167"/>
<path d="M57.7006 36.5915L57.9868 36.5919V36.7945H58.1956V36.5874L58.4889 36.5883V36.7946H58.6984V36.5875H58.9918L58.9913 37.0552C58.9913 37.1286 58.9321 37.1762 58.8633 37.1762H57.834C57.7649 37.1762 57.7011 37.1211 57.7009 37.0538L57.7002 36.5916L57.7006 36.5915Z" fill="#FFFF00" stroke="#000008" stroke-width="0.184167"/>
<path d="M58.7792 37.2168L58.8438 38.7167L57.8398 38.713L57.9063 37.2129L58.7792 37.2168Z" fill="#FFFF00" stroke="#000008" stroke-width="0.184167"/>
<path d="M57.554 37.9121L57.5847 38.7206L56.6221 38.7211L56.6492 37.9122L57.554 37.9121Z" fill="#FFFF00" stroke="#000008" stroke-width="0.184167"/>
<path d="M60.0296 37.9121L60.0603 38.7206L59.0977 38.7211L59.1248 37.9122L60.0296 37.9121Z" fill="#FFFF00" stroke="#000008" stroke-width="0.184167"/>
<path d="M56.471 37.3263L56.7509 37.327V37.5298H56.9557V37.3223L57.2425 37.3232V37.5299H57.4477V37.3224L57.7347 37.3228L57.7343 37.7906C57.7343 37.8636 57.6762 37.9111 57.6091 37.9111H56.6019C56.5344 37.9111 56.4716 37.8564 56.4714 37.7889L56.4707 37.3265L56.471 37.3263Z" fill="#FFFF00" stroke="#000008" stroke-width="0.184167"/>
<path d="M58.9466 37.3263L59.2265 37.327V37.5298H59.4312V37.3223L59.7181 37.3232V37.5299H59.9233V37.3224L60.2103 37.3228L60.2098 37.7906C60.2098 37.8636 60.1518 37.9111 60.0847 37.9111H59.0775C59.01 37.9111 58.9472 37.8564 58.947 37.7889L58.9463 37.3265L58.9466 37.3263Z" fill="#FFFF00" stroke="#000008" stroke-width="0.184167"/>
<path d="M58.2453 37.691C58.2391 37.5452 58.4498 37.5436 58.4473 37.691V38.0482H58.2453L58.2453 37.691Z" fill="#000008"/>
<path d="M57.001 38.2098C57.0003 38.0689 57.1963 38.066 57.1938 38.2098V38.4858H57.0011L57.001 38.2098Z" fill="#000008"/>
<path d="M59.4834 38.2098C59.4827 38.0689 59.6787 38.066 59.6762 38.2098V38.4858H59.4835L59.4834 38.2098Z" fill="#000008"/>
<path d="M57.3789 51.6736C57.4104 50.39 58.3245 50.0861 58.331 50.0816C58.3376 50.0773 59.3184 50.4089 59.3151 51.6855L57.3789 51.6736Z" fill="#FFFF00"/>
<path d="M56.5907 50.1068L56.4316 51.582L57.3978 51.5841C57.407 50.3636 58.325 50.1606 58.3472 50.1651C58.368 50.1639 59.278 50.4349 59.3022 51.5841H60.2708L60.0959 50.0977L56.5908 50.1065L56.5907 50.1068Z" fill="#FFFF00" stroke="#000008" stroke-width="0.184167"/>
<path d="M56.3663 51.5879H60.3204C60.4037 51.5879 60.4718 51.6699 60.4718 51.7702C60.4718 51.8702 60.4037 51.9519 60.3204 51.9519H56.3663C56.283 51.9519 56.2148 51.8702 56.2148 51.7702C56.2148 51.6699 56.283 51.5879 56.3663 51.5879Z" fill="#FFFF00" stroke="#000008" stroke-width="0.184167"/>
<path d="M57.8037 51.581C57.808 50.8108 58.3315 50.5928 58.3342 50.5933C58.3344 50.5933 58.8808 50.818 58.8851 51.581H57.8037Z" fill="#FFFF00" stroke="#000008" stroke-width="0.184167"/>
<path d="M56.45 49.4932H60.2405C60.3203 49.4932 60.3857 49.5672 60.3857 49.657C60.3857 49.747 60.3203 49.8208 60.2405 49.8208H56.45C56.3701 49.8208 56.3047 49.7474 56.3047 49.657C56.3047 49.5672 56.3701 49.4932 56.45 49.4932Z" fill="#FFFF00" stroke="#000008" stroke-width="0.184167"/>
<path d="M56.5295 49.8232H60.1551C60.2314 49.8232 60.294 49.8969 60.294 49.9869C60.294 50.0771 60.2314 50.1507 60.1551 50.1507H56.5295C56.4532 50.1507 56.3906 50.0771 56.3906 49.9869C56.3906 49.8969 56.4532 49.8232 56.5295 49.8232Z" fill="#FFFF00" stroke="#000008" stroke-width="0.184167"/>
<path d="M57.7006 47.361L57.9868 47.3614V47.564H58.1956V47.3569L58.4889 47.3579V47.5641H58.6984V47.357H58.9918L58.9913 47.8248C58.9913 47.8982 58.9321 47.9457 58.8633 47.9457H57.834C57.7649 47.9457 57.7011 47.8906 57.7009 47.8233L57.7002 47.3611L57.7006 47.361Z" fill="#FFFF00" stroke="#000008" stroke-width="0.184167"/>
<path d="M58.7792 47.9863L58.8438 49.4863L57.8398 49.4826L57.9063 47.9824L58.7792 47.9863Z" fill="#FFFF00" stroke="#000008" stroke-width="0.184167"/>
<path d="M57.554 48.6816L57.5847 49.4902L56.6221 49.4906L56.6492 48.6817L57.554 48.6816Z" fill="#FFFF00" stroke="#000008" stroke-width="0.184167"/>
<path d="M60.0296 48.6816L60.0603 49.4902L59.0977 49.4906L59.1248 48.6817L60.0296 48.6816Z" fill="#FFFF00" stroke="#000008" stroke-width="0.184167"/>
<path d="M56.471 48.0958L56.7509 48.0965V48.2993H56.9557V48.0918L57.2425 48.0927V48.2994H57.4477V48.0919L57.7347 48.0924L57.7343 48.5601C57.7343 48.6331 57.6762 48.6807 57.6091 48.6807H56.6019C56.5344 48.6807 56.4716 48.6259 56.4714 48.5585L56.4707 48.0961L56.471 48.0958Z" fill="#FFFF00" stroke="#000008" stroke-width="0.184167"/>
<path d="M58.9466 48.0958L59.2265 48.0965V48.2993H59.4312V48.0918L59.7181 48.0927V48.2994H59.9233V48.0919L60.2103 48.0924L60.2098 48.5601C60.2098 48.6331 60.1518 48.6807 60.0847 48.6807H59.0775C59.01 48.6807 58.9472 48.6259 58.947 48.5585L58.9463 48.0961L58.9466 48.0958Z" fill="#FFFF00" stroke="#000008" stroke-width="0.184167"/>
<path d="M58.2453 48.4605C58.2391 48.3148 58.4498 48.3131 58.4473 48.4605V48.8178H58.2453L58.2453 48.4605Z" fill="#000008"/>
<path d="M57.001 48.9793C57.0003 48.8384 57.1963 48.8356 57.1938 48.9793V49.2553H57.0011L57.001 48.9793Z" fill="#000008"/>
<path d="M59.4834 48.9793C59.4827 48.8384 59.6787 48.8356 59.6762 48.9793V49.2553H59.4835L59.4834 48.9793Z" fill="#000008"/>
<path d="M61.5918 62.8835C60.6998 61.9568 61.1275 61.0963 61.1289 61.0885C61.1305 61.0808 62.0577 60.621 62.9645 61.5229L61.5918 62.8835Z" fill="#FFFF00"/>
<path d="M59.9204 62.3369L60.8588 63.4887L61.541 62.8071C60.6784 61.9406 61.1807 61.1485 61.1995 61.1359C61.2134 61.1204 62.0475 60.668 62.8829 61.4605L63.5654 60.7756L62.3837 59.852L59.9202 62.3365L59.9204 62.3369Z" fill="#FFFF00" stroke="#000008" stroke-width="0.184167"/>
<path d="M60.8167 63.5389L63.6028 60.7431C63.6615 60.6842 63.7679 60.6938 63.8393 60.7645C63.9105 60.835 63.9207 60.9407 63.8619 60.9996L61.0759 63.7954C61.0171 63.8543 60.911 63.8449 60.8398 63.7744C60.7684 63.7038 60.758 63.5978 60.8167 63.5389Z" fill="#FFFF00" stroke="#000008" stroke-width="0.184167"/>
<path d="M61.8245 62.5177C61.2791 61.972 61.4927 61.4483 61.4949 61.4467C61.495 61.4465 62.04 61.2186 62.5864 61.7531L61.8245 62.5177Z" fill="#FFFF00" stroke="#000008" stroke-width="0.184167"/>
<path d="M59.3846 62.0037L62.0554 59.3236C62.1117 59.2671 62.2105 59.273 62.2745 59.3363C62.3386 59.3997 62.345 59.498 62.2888 59.5545L59.6179 62.2346C59.5617 62.2911 59.4633 62.2856 59.3989 62.2219C59.3349 62.1586 59.3283 62.0602 59.3846 62.0037Z" fill="#FFFF00" stroke="#000008" stroke-width="0.184167"/>
<path d="M59.676 62.1801L62.2306 59.6166C62.2844 59.5626 62.3809 59.5703 62.445 59.6337C62.5092 59.6973 62.5176 59.7934 62.4638 59.8474L59.9092 62.4108C59.8554 62.4648 59.7589 62.4572 59.6947 62.3936C59.6305 62.3302 59.6222 62.2341 59.676 62.1801Z" fill="#FFFF00" stroke="#000008" stroke-width="0.184167"/>
<path d="M58.7473 59.6169L58.9493 59.4148L59.0936 59.5575L59.2407 59.4099L59.0932 59.2639L59.3005 59.0573L59.4474 59.2026L59.595 59.0545L59.4475 58.9086L59.6543 58.7011L59.987 59.031C60.0393 59.0827 60.0314 59.1581 59.983 59.2067L59.2578 59.9345C59.209 59.9834 59.1248 59.9896 59.0768 59.9424L58.7471 59.6172L58.7473 59.6169Z" fill="#FFFF00" stroke="#000008" stroke-width="0.184167"/>
<path d="M59.9528 59.2956L61.0665 60.3068L60.3564 61.014L59.3349 59.91L59.9528 59.2956Z" fill="#FFFF00" stroke="#000008" stroke-width="0.184167"/>
<path d="M59.5844 60.6516L60.1818 61.1996L59.5038 61.8806L58.9469 61.2914L59.5844 60.6516Z" fill="#FFFF00" stroke="#000008" stroke-width="0.184167"/>
<path d="M61.3286 58.9011L61.9259 59.4491L61.248 60.1301L60.691 59.5409L61.3286 58.9011Z" fill="#FFFF00" stroke="#000008" stroke-width="0.184167"/>
<path d="M58.4045 61.0041L58.6022 60.8067L58.7466 60.9496L58.8909 60.8048L58.7431 60.6586L58.9459 60.4564L59.0931 60.602L59.2376 60.457L59.0898 60.3108L59.2924 60.1081L59.6252 60.438C59.6772 60.4894 59.6701 60.564 59.6229 60.6114L58.9131 61.3236C58.8656 61.3714 58.7824 61.3772 58.7342 61.3298L58.4044 61.0045L58.4045 61.0041Z" fill="#FFFF00" stroke="#000008" stroke-width="0.184167"/>
<path d="M60.1486 59.2541L60.3463 59.0567L60.4907 59.1996L60.635 59.0548L60.4872 58.9086L60.69 58.7064L60.8372 58.852L60.9818 58.707L60.834 58.5608L61.0366 58.3581L61.3693 58.688C61.4213 58.7394 61.4143 58.814 61.367 58.8614L60.6573 59.5736C60.6097 59.6214 60.5265 59.6272 60.4783 59.5798L60.1485 59.2545L60.1486 59.2541Z" fill="#FFFF00" stroke="#000008" stroke-width="0.184167"/>
<path d="M59.9134 60.0076C59.8051 59.9092 59.9526 59.7589 60.056 59.8646L60.3107 60.1166L60.1681 60.2596L59.9134 60.0076Z" fill="#000008"/>
<path d="M59.4071 61.252C59.3062 61.1532 59.4424 61.0124 59.5432 61.1156L59.7399 61.3102L59.604 61.4467L59.4071 61.252Z" fill="#000008"/>
<path d="M61.1562 59.4967C61.0552 59.3978 61.1914 59.257 61.2922 59.3602L61.489 59.5549L61.353 59.6913L61.1562 59.4967Z" fill="#000008"/>
<path d="M68.0439 40.9041C68.0754 39.6204 68.9895 39.3166 68.9961 39.3121C69.0027 39.3078 69.9834 39.6393 69.9801 40.916L68.0439 40.9041Z" fill="#FFFF00"/>
<path d="M67.2557 39.3373L67.0967 40.8125L68.0628 40.8145C68.0721 39.5941 68.9901 39.3911 69.0123 39.3956C69.0331 39.3944 69.943 39.6654 69.9673 40.8145H70.9359L70.761 39.3281L67.2558 39.3369L67.2557 39.3373Z" fill="#FFFF00" stroke="#000008" stroke-width="0.184167"/>
<path d="M67.0313 40.8184H70.9854C71.0687 40.8184 71.1369 40.9004 71.1369 41.0006C71.1369 41.1007 71.0687 41.1823 70.9854 41.1823H67.0313C66.948 41.1823 66.8799 41.1007 66.8799 41.0006C66.8799 40.9004 66.948 40.8184 67.0313 40.8184Z" fill="#FFFF00" stroke="#000008" stroke-width="0.184167"/>
<path d="M68.4688 40.8115C68.4731 40.0413 68.9966 39.8233 68.9993 39.8237C68.9995 39.8237 69.5458 40.0485 69.5501 40.8115H68.4688Z" fill="#FFFF00" stroke="#000008" stroke-width="0.184167"/>
<path d="M67.115 38.7236H70.9055C70.9853 38.7236 71.0508 38.7977 71.0508 38.8875C71.0508 38.9775 70.9853 39.0513 70.9055 39.0513H67.115C67.0352 39.0513 66.9697 38.9779 66.9697 38.8875C66.9697 38.7977 67.0352 38.7236 67.115 38.7236Z" fill="#FFFF00" stroke="#000008" stroke-width="0.184167"/>
<path d="M67.1946 39.0537H70.8201C70.8964 39.0537 70.959 39.1273 70.959 39.2173C70.959 39.3076 70.8964 39.3812 70.8201 39.3812H67.1946C67.1182 39.3812 67.0557 39.3076 67.0557 39.2173C67.0557 39.1273 67.1182 39.0537 67.1946 39.0537Z" fill="#FFFF00" stroke="#000008" stroke-width="0.184167"/>
<path d="M68.3656 36.5915L68.6518 36.5919V36.7945H68.8607V36.5874L69.1539 36.5883V36.7946H69.3634V36.5875H69.6568L69.6564 37.0552C69.6564 37.1286 69.5971 37.1762 69.5284 37.1762H68.4991C68.4299 37.1762 68.3661 37.1211 68.3659 37.0538L68.3652 36.5916L68.3656 36.5915Z" fill="#FFFF00" stroke="#000008" stroke-width="0.184167"/>
<path d="M69.4443 37.2168L69.5089 38.7167L68.5049 38.713L68.5714 37.2129L69.4443 37.2168Z" fill="#FFFF00" stroke="#000008" stroke-width="0.184167"/>
<path d="M68.2191 37.9121L68.2497 38.7206L67.2871 38.7211L67.3143 37.9122L68.2191 37.9121Z" fill="#FFFF00" stroke="#000008" stroke-width="0.184167"/>
<path d="M70.6947 37.9121L70.7253 38.7206L69.7627 38.7211L69.7899 37.9122L70.6947 37.9121Z" fill="#FFFF00" stroke="#000008" stroke-width="0.184167"/>
<path d="M67.1361 37.3263L67.4159 37.327V37.5298H67.6207V37.3223L67.9076 37.3232V37.5299H68.1127V37.3224L68.3998 37.3228L68.3993 37.7906C68.3993 37.8636 68.3413 37.9111 68.2742 37.9111H67.2669C67.1994 37.9111 67.1367 37.8564 67.1364 37.7889L67.1357 37.3265L67.1361 37.3263Z" fill="#FFFF00" stroke="#000008" stroke-width="0.184167"/>
<path d="M69.6117 37.3263L69.8915 37.327V37.5298H70.0963V37.3223L70.3831 37.3232V37.5299H70.5883V37.3224L70.8753 37.3228L70.8749 37.7906C70.8749 37.8636 70.8169 37.9111 70.7498 37.9111H69.7425C69.675 37.9111 69.6122 37.8564 69.612 37.7889L69.6113 37.3265L69.6117 37.3263Z" fill="#FFFF00" stroke="#000008" stroke-width="0.184167"/>
<path d="M68.9103 37.691C68.9041 37.5452 69.1148 37.5436 69.1124 37.691V38.0482H68.9103L68.9103 37.691Z" fill="#000008"/>
<path d="M67.666 38.2098C67.6653 38.0689 67.8613 38.066 67.8588 38.2098V38.4858H67.6661L67.666 38.2098Z" fill="#000008"/>
<path d="M70.1484 38.2098C70.1477 38.0689 70.3437 38.066 70.3413 38.2098V38.4858H70.1485L70.1484 38.2098Z" fill="#000008"/>
<path d="M80.5742 40.9041C80.5427 39.6204 79.6287 39.3166 79.6221 39.3121C79.6155 39.3078 78.6348 39.6393 78.638 40.916L80.5742 40.9041Z" fill="#FFFF00"/>
<path d="M81.3624 39.3373L81.5215 40.8125L80.5553 40.8145C80.5461 39.5941 79.6281 39.3911 79.6059 39.3956C79.5851 39.3944 78.6751 39.6654 78.6509 40.8145H77.6823L77.8572 39.3281L81.3623 39.3369L81.3624 39.3373Z" fill="#FFFF00" stroke="#000008" stroke-width="0.184167"/>
<path d="M81.5868 40.8184H77.6328C77.5494 40.8184 77.4813 40.9004 77.4813 41.0006C77.4813 41.1007 77.5494 41.1823 77.6328 41.1823H81.5868C81.6702 41.1823 81.7383 41.1007 81.7383 41.0006C81.7383 40.9004 81.6702 40.8184 81.5868 40.8184Z" fill="#FFFF00" stroke="#000008" stroke-width="0.184167"/>
<path d="M80.1494 40.8115C80.1451 40.0413 79.6216 39.8233 79.6189 39.8237C79.6187 39.8237 79.0724 40.0485 79.068 40.8115H80.1494Z" fill="#FFFF00" stroke="#000008" stroke-width="0.184167"/>
<path d="M81.5032 38.7236H77.7127C77.6328 38.7236 77.5674 38.7977 77.5674 38.8875C77.5674 38.9775 77.6328 39.0513 77.7127 39.0513H81.5032C81.583 39.0513 81.6484 38.9779 81.6484 38.8875C81.6484 38.7977 81.583 38.7236 81.5032 38.7236Z" fill="#FFFF00" stroke="#000008" stroke-width="0.184167"/>
<path d="M81.4236 39.0537H77.7981C77.7217 39.0537 77.6592 39.1273 77.6592 39.2173C77.6592 39.3076 77.7217 39.3812 77.7981 39.3812H81.4236C81.4999 39.3812 81.5625 39.3076 81.5625 39.2173C81.5625 39.1273 81.4999 39.0537 81.4236 39.0537Z" fill="#FFFF00" stroke="#000008" stroke-width="0.184167"/>
<path d="M80.2526 36.5915L79.9663 36.5919V36.7945H79.7575V36.5874L79.4642 36.5883V36.7946H79.2548V36.5875H78.9613L78.9618 37.0552C78.9618 37.1286 79.0211 37.1762 79.0898 37.1762H80.1191C80.1882 37.1762 80.252 37.1211 80.2522 37.0538L80.2529 36.5916L80.2526 36.5915Z" fill="#FFFF00" stroke="#000008" stroke-width="0.184167"/>
<path d="M79.1739 37.2168L79.1093 38.7167L80.1133 38.713L80.0468 37.2129L79.1739 37.2168Z" fill="#FFFF00" stroke="#000008" stroke-width="0.184167"/>
<path d="M80.3991 37.9121L80.3684 38.7206L81.3311 38.7211L81.3039 37.9122L80.3991 37.9121Z" fill="#FFFF00" stroke="#000008" stroke-width="0.184167"/>
<path d="M77.9235 37.9121L77.8928 38.7206L78.8555 38.7211L78.8283 37.9122L77.9235 37.9121Z" fill="#FFFF00" stroke="#000008" stroke-width="0.184167"/>
<path d="M81.4821 37.3263L81.2022 37.327V37.5298H80.9975V37.3223L80.7106 37.3232V37.5299H80.5054V37.3224L80.2184 37.3228L80.2189 37.7906C80.2189 37.8636 80.2769 37.9111 80.344 37.9111H81.3513C81.4188 37.9111 81.4815 37.8564 81.4817 37.7889L81.4824 37.3265L81.4821 37.3263Z" fill="#FFFF00" stroke="#000008" stroke-width="0.184167"/>
<path d="M79.0065 37.3263L78.7266 37.327V37.5298H78.5219V37.3223L78.235 37.3232V37.5299H78.0299V37.3224L77.7428 37.3228L77.7433 37.7906C77.7433 37.8636 77.8013 37.9111 77.8684 37.9111H78.8757C78.9432 37.9111 79.0059 37.8564 79.0061 37.7889L79.0068 37.3265L79.0065 37.3263Z" fill="#FFFF00" stroke="#000008" stroke-width="0.184167"/>
<path d="M79.7079 37.691C79.7141 37.5452 79.5033 37.5436 79.5058 37.691V38.0482H79.7079L79.7079 37.691Z" fill="#000008"/>
<path d="M80.9521 38.2098C80.9528 38.0689 80.7569 38.066 80.7593 38.2098V38.4858H80.9521L80.9521 38.2098Z" fill="#000008"/>
<path d="M78.4697 38.2098C78.4704 38.0689 78.2744 38.066 78.2769 38.2098V38.4858H78.4696L78.4697 38.2098Z" fill="#000008"/>
<path d="M80.5742 51.6741C80.5427 50.3905 79.6287 50.0866 79.6221 50.0821C79.6155 50.0778 78.6348 50.4093 78.638 51.686L80.5742 51.6741Z" fill="#FFFF00"/>
<path d="M81.3634 50.1068L81.5225 51.582L80.5563 51.5841C80.5471 50.3636 79.6291 50.1606 79.6069 50.1651C79.5861 50.1639 78.6761 50.4349 78.6519 51.5841H77.6833L77.8582 50.0977L81.3633 50.1065L81.3634 50.1068Z" fill="#FFFF00" stroke="#000008" stroke-width="0.184167"/>
<path d="M81.5868 51.5879H77.6328C77.5494 51.5879 77.4813 51.6699 77.4813 51.7702C77.4813 51.8702 77.5494 51.9519 77.6328 51.9519H81.5868C81.6702 51.9519 81.7383 51.8702 81.7383 51.7702C81.7383 51.6699 81.6702 51.5879 81.5868 51.5879Z" fill="#FFFF00" stroke="#000008" stroke-width="0.184167"/>
<path d="M80.1494 51.581C80.1451 50.8108 79.6216 50.5928 79.6189 50.5933C79.6187 50.5933 79.0724 50.818 79.068 51.581H80.1494Z" fill="#FFFF00" stroke="#000008" stroke-width="0.184167"/>
<path d="M81.5032 49.4932H77.7127C77.6328 49.4932 77.5674 49.5672 77.5674 49.657C77.5674 49.747 77.6328 49.8208 77.7127 49.8208H81.5032C81.583 49.8208 81.6484 49.7474 81.6484 49.657C81.6484 49.5672 81.583 49.4932 81.5032 49.4932Z" fill="#FFFF00" stroke="#000008" stroke-width="0.184167"/>
<path d="M81.4236 49.8232H77.7981C77.7217 49.8232 77.6592 49.8969 77.6592 49.9869C77.6592 50.0771 77.7217 50.1507 77.7981 50.1507H81.4236C81.4999 50.1507 81.5625 50.0771 81.5625 49.9869C81.5625 49.8969 81.4999 49.8232 81.4236 49.8232Z" fill="#FFFF00" stroke="#000008" stroke-width="0.184167"/>
<path d="M80.2526 47.361L79.9663 47.3614V47.564H79.7575V47.3569L79.4642 47.3579V47.5641H79.2548V47.357H78.9613L78.9618 47.8248C78.9618 47.8982 79.0211 47.9457 79.0898 47.9457H80.1191C80.1882 47.9457 80.252 47.8906 80.2522 47.8233L80.2529 47.3611L80.2526 47.361Z" fill="#FFFF00" stroke="#000008" stroke-width="0.184167"/>
<path d="M79.1749 47.9863L79.1103 49.4863L80.1143 49.4826L80.0478 47.9824L79.1749 47.9863Z" fill="#FFFF00" stroke="#000008" stroke-width="0.184167"/>
<path d="M80.3991 48.6816L80.3684 49.4902L81.3311 49.4906L81.3039 48.6817L80.3991 48.6816Z" fill="#FFFF00" stroke="#000008" stroke-width="0.184167"/>
<path d="M77.9245 48.6816L77.8938 49.4902L78.8564 49.4906L78.8293 48.6817L77.9245 48.6816Z" fill="#FFFF00" stroke="#000008" stroke-width="0.184167"/>
<path d="M81.4821 48.0958L81.2022 48.0965V48.2993H80.9975V48.0918L80.7106 48.0927V48.2994H80.5054V48.0919L80.2184 48.0924L80.2189 48.5601C80.2189 48.6331 80.2769 48.6807 80.344 48.6807H81.3513C81.4188 48.6807 81.4815 48.6259 81.4817 48.5585L81.4824 48.0961L81.4821 48.0958Z" fill="#FFFF00" stroke="#000008" stroke-width="0.184167"/>
<path d="M79.0065 48.0958L78.7266 48.0965V48.2993H78.5219V48.0918L78.235 48.0927V48.2994H78.0299V48.0919L77.7428 48.0924L77.7433 48.5601C77.7433 48.6331 77.8013 48.6807 77.8684 48.6807H78.8757C78.9432 48.6807 79.0059 48.6259 79.0061 48.5585L79.0068 48.0961L79.0065 48.0958Z" fill="#FFFF00" stroke="#000008" stroke-width="0.184167"/>
<path d="M79.7089 48.4605C79.715 48.3148 79.5043 48.3131 79.5068 48.4605V48.8178H79.7088L79.7089 48.4605Z" fill="#000008"/>
<path d="M80.9521 48.9793C80.9528 48.8384 80.7569 48.8356 80.7593 48.9793V49.2553H80.9521L80.9521 48.9793Z" fill="#000008"/>
<path d="M78.4697 48.9793C78.4704 48.8384 78.2744 48.8356 78.2769 48.9793V49.2553H78.4696L78.4697 48.9793Z" fill="#000008"/>
<path d="M76.3594 62.8835C77.2513 61.9568 76.8237 61.0963 76.8222 61.0885C76.8207 61.0808 75.8935 60.621 74.9867 61.5229L76.3594 62.8835Z" fill="#FFFF00"/>
<path d="M78.0308 62.3369L77.0924 63.4887L76.4101 62.8071C77.2727 61.9406 76.7705 61.1485 76.7516 61.1359C76.7378 61.1204 75.9037 60.668 75.0682 61.4605L74.3857 60.7756L75.5675 59.852L78.031 62.3365L78.0308 62.3369Z" fill="#FFFF00" stroke="#000008" stroke-width="0.184167"/>
<path d="M77.1345 63.5389L74.3484 60.7431C74.2897 60.6842 74.1833 60.6938 74.1119 60.7645C74.0406 60.835 74.0305 60.9407 74.0892 60.9996L76.8753 63.7954C76.934 63.8543 77.0401 63.8449 77.1114 63.7744C77.1828 63.7038 77.1932 63.5978 77.1345 63.5389Z" fill="#FFFF00" stroke="#000008" stroke-width="0.184167"/>
<path d="M76.1267 62.5177C76.6721 61.972 76.4585 61.4483 76.4563 61.4467C76.4561 61.4465 75.9111 61.2186 75.3647 61.7531L76.1267 62.5177Z" fill="#FFFF00" stroke="#000008" stroke-width="0.184167"/>
<path d="M78.5666 62.0037L75.8958 59.3236C75.8395 59.2671 75.7407 59.273 75.6767 59.3363C75.6126 59.3997 75.6062 59.498 75.6624 59.5545L78.3332 62.2346C78.3895 62.2911 78.4879 62.2856 78.5523 62.2219C78.6162 62.1586 78.6228 62.0602 78.5666 62.0037Z" fill="#FFFF00" stroke="#000008" stroke-width="0.184167"/>
<path d="M78.2752 62.1801L75.7206 59.6166C75.6668 59.5626 75.5703 59.5703 75.5062 59.6337C75.4419 59.6973 75.4336 59.7934 75.4874 59.8474L78.042 62.4108C78.0958 62.4648 78.1923 62.4572 78.2565 62.3936C78.3206 62.3302 78.329 62.2341 78.2752 62.1801Z" fill="#FFFF00" stroke="#000008" stroke-width="0.184167"/>
<path d="M79.2039 59.6169L79.0019 59.4148L78.8576 59.5575L78.7104 59.4099L78.8579 59.2639L78.6507 59.0573L78.5038 59.2026L78.3561 59.0545L78.5036 58.9086L78.2969 58.7011L77.9641 59.031C77.9118 59.0827 77.9197 59.1581 77.9682 59.2067L78.6934 59.9345C78.7421 59.9834 78.8264 59.9896 78.8744 59.9424L79.204 59.6172L79.2039 59.6169Z" fill="#FFFF00" stroke="#000008" stroke-width="0.184167"/>
<path d="M77.9984 59.2956L76.8847 60.3068L77.5948 61.014L78.6163 59.91L77.9984 59.2956Z" fill="#FFFF00" stroke="#000008" stroke-width="0.184167"/>
<path d="M78.3668 60.6516L77.7694 61.1996L78.4473 61.8806L79.0043 61.2914L78.3668 60.6516Z" fill="#FFFF00" stroke="#000008" stroke-width="0.184167"/>
<path d="M76.6226 58.9011L76.0252 59.4491L76.7032 60.1301L77.2601 59.5409L76.6226 58.9011Z" fill="#FFFF00" stroke="#000008" stroke-width="0.184167"/>
<path d="M79.5467 61.0041L79.349 60.8067L79.2046 60.9496L79.0603 60.8048L79.2081 60.6586L79.0053 60.4564L78.8581 60.602L78.7136 60.457L78.8613 60.3108L78.6587 60.1081L78.326 60.438C78.274 60.4894 78.281 60.564 78.3283 60.6114L79.038 61.3236C79.0856 61.3714 79.1688 61.3772 79.217 61.3298L79.5468 61.0045L79.5467 61.0041Z" fill="#FFFF00" stroke="#000008" stroke-width="0.184167"/>
<path d="M77.8026 59.2541L77.6049 59.0567L77.4605 59.1996L77.3162 59.0548L77.464 58.9086L77.2612 58.7064L77.114 58.852L76.9694 58.707L77.1172 58.5608L76.9146 58.3581L76.5819 58.688C76.5299 58.7394 76.5369 58.814 76.5842 58.8614L77.2939 59.5736C77.3415 59.6214 77.4247 59.6272 77.4729 59.5798L77.8026 59.2545L77.8026 59.2541Z" fill="#FFFF00" stroke="#000008" stroke-width="0.184167"/>
<path d="M78.0377 60.0076C78.146 59.9092 77.9985 59.7589 77.8952 59.8646L77.6405 60.1166L77.783 60.2596L78.0377 60.0076Z" fill="#000008"/>
<path d="M78.544 61.252C78.6449 61.1532 78.5087 61.0124 78.408 61.1156L78.2112 61.3102L78.3472 61.4467L78.544 61.252Z" fill="#000008"/>
<path d="M76.795 59.4967C76.8959 59.3978 76.7597 59.257 76.659 59.3602L76.4622 59.5549L76.5982 59.6913L76.795 59.4967Z" fill="#000008"/>
<path d="M67.2814 52.0589V52.0601C67.2814 52.5743 67.4795 53.0429 67.7975 53.3828C68.116 53.7239 68.5547 53.9357 69.0346 53.9357C69.5169 53.9357 69.9548 53.7253 70.2719 53.3857C70.5888 53.0466 70.7858 52.5784 70.7858 52.0621V49.5585L67.2876 49.5557L67.2814 52.0589Z" fill="#003399"/>
<path d="M68.084 50.8531C68.2755 50.8531 68.4308 50.6984 68.4308 50.5076C68.4308 50.3168 68.2755 50.1621 68.084 50.1621C67.8925 50.1621 67.7373 50.3168 67.7373 50.5076C67.7373 50.6984 67.8925 50.8531 68.084 50.8531Z" fill="white"/>
<path d="M70.0245 50.8551C70.216 50.8551 70.3712 50.7004 70.3712 50.5096C70.3712 50.3187 70.216 50.1641 70.0245 50.1641C69.833 50.1641 69.6777 50.3187 69.6777 50.5096C69.6777 50.7004 69.833 50.8551 70.0245 50.8551Z" fill="white"/>
<path d="M69.0518 51.7833C69.2433 51.7833 69.3985 51.6286 69.3985 51.4378C69.3985 51.247 69.2433 51.0923 69.0518 51.0923C68.8603 51.0923 68.7051 51.247 68.7051 51.4378C68.7051 51.6286 68.8603 51.7833 69.0518 51.7833Z" fill="white"/>
<path d="M68.084 52.7554C68.2755 52.7554 68.4308 52.6008 68.4308 52.4099C68.4308 52.2191 68.2755 52.0645 68.084 52.0645C67.8925 52.0645 67.7373 52.2191 67.7373 52.4099C67.7373 52.6008 67.8925 52.7554 68.084 52.7554Z" fill="white"/>
<path d="M70.0225 52.753C70.214 52.753 70.3692 52.5983 70.3692 52.4075C70.3692 52.2167 70.214 52.062 70.0225 52.062C69.831 52.062 69.6758 52.2167 69.6758 52.4075C69.6758 52.5983 69.831 52.753 70.0225 52.753Z" fill="white"/>
<path d="M67.2814 46.0101V46.0112C67.2814 46.5255 67.4795 46.9941 67.7975 47.334C68.116 47.675 68.5547 47.8868 69.0346 47.8868C69.5169 47.8868 69.9548 47.6765 70.2719 47.3369C70.5888 46.9977 70.7858 46.5296 70.7858 46.0133V43.5097L67.2876 43.5068L67.2814 46.0101Z" fill="#003399"/>
<path d="M68.084 44.8043C68.2755 44.8043 68.4308 44.6496 68.4308 44.4588C68.4308 44.268 68.2755 44.1133 68.084 44.1133C67.8925 44.1133 67.7373 44.268 67.7373 44.4588C67.7373 44.6496 67.8925 44.8043 68.084 44.8043Z" fill="white"/>
<path d="M70.0245 44.8062C70.216 44.8062 70.3712 44.6515 70.3712 44.4607C70.3712 44.2699 70.216 44.1152 70.0245 44.1152C69.833 44.1152 69.6777 44.2699 69.6777 44.4607C69.6777 44.6515 69.833 44.8062 70.0245 44.8062Z" fill="white"/>
<path d="M69.0518 45.7344C69.2433 45.7344 69.3985 45.5798 69.3985 45.389C69.3985 45.1981 69.2433 45.0435 69.0518 45.0435C68.8603 45.0435 68.7051 45.1981 68.7051 45.389C68.7051 45.5798 68.8603 45.7344 69.0518 45.7344Z" fill="white"/>
<path d="M68.084 46.7066C68.2755 46.7066 68.4308 46.5519 68.4308 46.3611C68.4308 46.1703 68.2755 46.0156 68.084 46.0156C67.8925 46.0156 67.7373 46.1703 67.7373 46.3611C67.7373 46.5519 67.8925 46.7066 68.084 46.7066Z" fill="white"/>
<path d="M70.0225 46.7042C70.214 46.7042 70.3692 46.5495 70.3692 46.3587C70.3692 46.1679 70.214 46.0132 70.0225 46.0132C69.831 46.0132 69.6758 46.1679 69.6758 46.3587C69.6758 46.5495 69.831 46.7042 70.0225 46.7042Z" fill="white"/>
<path d="M62.4288 52.0589V52.0601C62.4288 52.5743 62.627 53.0429 62.9449 53.3828C63.2635 53.7239 63.7022 53.9357 64.182 53.9357C64.6644 53.9357 65.1023 53.7253 65.4194 53.3857C65.7363 53.0466 65.9332 52.5784 65.9332 52.0621V49.5585L62.4351 49.5557L62.4288 52.0589Z" fill="#003399"/>
<path d="M63.2315 50.8531C63.423 50.8531 63.5782 50.6984 63.5782 50.5076C63.5782 50.3168 63.423 50.1621 63.2315 50.1621C63.04 50.1621 62.8848 50.3168 62.8848 50.5076C62.8848 50.6984 63.04 50.8531 63.2315 50.8531Z" fill="white"/>
<path d="M65.1719 50.8551C65.3634 50.8551 65.5187 50.7004 65.5187 50.5096C65.5187 50.3187 65.3634 50.1641 65.1719 50.1641C64.9804 50.1641 64.8252 50.3187 64.8252 50.5096C64.8252 50.7004 64.9804 50.8551 65.1719 50.8551Z" fill="white"/>
<path d="M64.1993 51.7833C64.3908 51.7833 64.546 51.6286 64.546 51.4378C64.546 51.247 64.3908 51.0923 64.1993 51.0923C64.0078 51.0923 63.8525 51.247 63.8525 51.4378C63.8525 51.6286 64.0078 51.7833 64.1993 51.7833Z" fill="white"/>
<path d="M63.2315 52.7554C63.423 52.7554 63.5782 52.6008 63.5782 52.4099C63.5782 52.2191 63.423 52.0645 63.2315 52.0645C63.04 52.0645 62.8848 52.2191 62.8848 52.4099C62.8848 52.6008 63.04 52.7554 63.2315 52.7554Z" fill="white"/>
<path d="M65.17 52.753C65.3615 52.753 65.5167 52.5983 65.5167 52.4075C65.5167 52.2167 65.3615 52.062 65.17 52.062C64.9785 52.062 64.8232 52.2167 64.8232 52.4075C64.8232 52.5983 64.9785 52.753 65.17 52.753Z" fill="white"/>
<path d="M72.1222 52.0589V52.0601C72.1222 52.5743 72.3203 53.0429 72.6383 53.3828C72.9568 53.7239 73.3955 53.9357 73.8754 53.9357C74.3578 53.9357 74.7957 53.7253 75.1128 53.3857C75.4296 53.0466 75.6266 52.5784 75.6266 52.0621V49.5585L72.1284 49.5557L72.1222 52.0589Z" fill="#003399"/>
<path d="M72.9249 50.8531C73.1164 50.8531 73.2716 50.6984 73.2716 50.5076C73.2716 50.3168 73.1164 50.1621 72.9249 50.1621C72.7334 50.1621 72.5781 50.3168 72.5781 50.5076C72.5781 50.6984 72.7334 50.8531 72.9249 50.8531Z" fill="white"/>
<path d="M74.8653 50.8551C75.0568 50.8551 75.212 50.7004 75.212 50.5096C75.212 50.3187 75.0568 50.1641 74.8653 50.1641C74.6738 50.1641 74.5186 50.3187 74.5186 50.5096C74.5186 50.7004 74.6738 50.8551 74.8653 50.8551Z" fill="white"/>
<path d="M73.8926 51.7833C74.0841 51.7833 74.2394 51.6286 74.2394 51.4378C74.2394 51.247 74.0841 51.0923 73.8926 51.0923C73.7011 51.0923 73.5459 51.247 73.5459 51.4378C73.5459 51.6286 73.7011 51.7833 73.8926 51.7833Z" fill="white"/>
<path d="M72.9249 52.7554C73.1164 52.7554 73.2716 52.6008 73.2716 52.4099C73.2716 52.2191 73.1164 52.0645 72.9249 52.0645C72.7334 52.0645 72.5781 52.2191 72.5781 52.4099C72.5781 52.6008 72.7334 52.7554 72.9249 52.7554Z" fill="white"/>
<path d="M74.8633 52.753C75.0548 52.753 75.2101 52.5983 75.2101 52.4075C75.2101 52.2167 75.0548 52.062 74.8633 52.062C74.6718 52.062 74.5166 52.2167 74.5166 52.4075C74.5166 52.5983 74.6718 52.753 74.8633 52.753Z" fill="white"/>
<path d="M67.2814 58.054V58.0552C67.2814 58.5694 67.4795 59.038 67.7975 59.378C68.116 59.719 68.5547 59.9308 69.0346 59.9308C69.5169 59.9308 69.9548 59.7204 70.2719 59.3808C70.5888 59.0417 70.7858 58.5735 70.7858 58.0572V55.5536L67.2876 55.5508L67.2814 58.054Z" fill="#003399"/>
<path d="M68.084 56.8482C68.2755 56.8482 68.4308 56.6935 68.4308 56.5027C68.4308 56.3119 68.2755 56.1572 68.084 56.1572C67.8925 56.1572 67.7373 56.3119 67.7373 56.5027C67.7373 56.6935 67.8925 56.8482 68.084 56.8482Z" fill="white"/>
<path d="M70.0245 56.8502C70.216 56.8502 70.3712 56.6955 70.3712 56.5047C70.3712 56.3139 70.216 56.1592 70.0245 56.1592C69.833 56.1592 69.6777 56.3139 69.6777 56.5047C69.6777 56.6955 69.833 56.8502 70.0245 56.8502Z" fill="white"/>
<path d="M69.0518 57.7784C69.2433 57.7784 69.3985 57.6237 69.3985 57.4329C69.3985 57.2421 69.2433 57.0874 69.0518 57.0874C68.8603 57.0874 68.7051 57.2421 68.7051 57.4329C68.7051 57.6237 68.8603 57.7784 69.0518 57.7784Z" fill="white"/>
<path d="M68.084 58.7506C68.2755 58.7506 68.4308 58.5959 68.4308 58.4051C68.4308 58.2143 68.2755 58.0596 68.084 58.0596C67.8925 58.0596 67.7373 58.2143 67.7373 58.4051C67.7373 58.5959 67.8925 58.7506 68.084 58.7506Z" fill="white"/>
<path d="M70.0225 58.7481C70.214 58.7481 70.3692 58.5934 70.3692 58.4026C70.3692 58.2118 70.214 58.0571 70.0225 58.0571C69.831 58.0571 69.6758 58.2118 69.6758 58.4026C69.6758 58.5934 69.831 58.7481 70.0225 58.7481Z" fill="white"/>
</g>
<rect x="13" y="5" width="140" height="93" rx="10" stroke="#A8B7D4" stroke-width="0.498424" stroke-linejoin="round"/>
</g>
<defs>
<filter id="filter0_dd_41_2811" x="0.750977" y="0.750977" width="164.498" height="117.498" filterUnits="userSpaceOnUse" color-interpolation-filters="sRGB">
<feFlood flood-opacity="0" result="BackgroundImageFix"/>
<feColorMatrix in="SourceAlpha" type="matrix" values="0 0 0 0 0 0 0 0 0 0 0 0 0 0 0 0 0 0 127 0" result="hardAlpha"/>
<feOffset dy="8"/>
<feGaussianBlur stdDeviation="6"/>
<feComposite in2="hardAlpha" operator="out"/>
<feColorMatrix type="matrix" values="0 0 0 0 0.258824 0 0 0 0 0.278431 0 0 0 0 0.298039 0 0 0 0.08 0"/>
<feBlend mode="normal" in2="BackgroundImageFix" result="effect1_dropShadow_41_2811"/>
<feColorMatrix in="SourceAlpha" type="matrix" values="0 0 0 0 0 0 0 0 0 0 0 0 0 0 0 0 0 0 127 0" result="hardAlpha"/>
<feOffset/>
<feGaussianBlur stdDeviation="0.5"/>
<feComposite in2="hardAlpha" operator="out"/>
<feColorMatrix type="matrix" values="0 0 0 0 0.258824 0 0 0 0 0.278431 0 0 0 0 0.298039 0 0 0 0.32 0"/>
<feBlend mode="normal" in2="effect1_dropShadow_41_2811" result="effect2_dropShadow_41_2811"/>
<feBlend mode="normal" in="SourceGraphic" in2="effect2_dropShadow_41_2811" result="shape"/>
</filter>
<clipPath id="clip0_41_2811">
<rect x="13" y="5" width="140" height="93" rx="10" fill="white"/>
</clipPath>
</defs>
</svg>
