<svg width="83" height="64" viewBox="0 0 83 64" fill="none" xmlns="http://www.w3.org/2000/svg">
<path d="M62.2427 26.8082H41.4969V38.89H62.2427V26.8082Z" fill="#869414"/>
<path d="M82.9885 26.8082L72.627 38.8786V38.89H62.2541V26.8082H82.9885Z" fill="#D9392F"/>
<path d="M82.9998 14.7093H72.6269V26.8025H82.9998V14.7093Z" fill="#DB5481"/>
<path d="M10.3728 14.7093H-0.000114441V26.8025H10.3728V14.7093Z" fill="#4C83A9"/>
<path d="M62.2427 50.9718L51.8698 63.0536H41.4969V50.9718H62.2427Z" fill="#95867D"/>
<path d="M51.8756 38.89H31.1298V50.9718H51.8756V38.89Z" fill="#D9392F"/>
<path d="M31.1297 38.89V50.9718H20.7455V50.9604L10.3727 38.89H31.1297Z" fill="#DB5481"/>
<path d="M41.5025 26.8082H20.7454V38.89H41.5025V26.8082Z" fill="#EFEFEF"/>
<path d="M41.4968 50.9718V63.0536H31.1296L20.7567 50.9718H41.4968Z" fill="#024287"/>
<path d="M20.7456 26.8082V38.89H10.3728L-0.000114441 26.8082H20.7456Z" fill="#40423F"/>
<path d="M51.8756 14.7093H31.1298V26.8025H51.8756V14.7093Z" fill="#EA6534"/>
<path d="M72.6155 38.89L62.2539 50.9604V50.9718H51.8697V38.89H72.6155Z" fill="#EA6534"/>
<path d="M72.6268 14.7093H51.8697V26.8025H72.6268V14.7093Z" fill="#024287"/>
<path d="M31.1297 14.7093H10.3727V26.8025H31.1297V14.7093Z" fill="#224E1D"/>
<path d="M20.7456 2.62753V14.7093H-0.000114441L10.3728 2.62753H20.7456Z" fill="#F6B432"/>
<path d="M62.2427 2.62753V14.7093H41.4969L51.8698 2.63888V2.62753H62.2427Z" fill="#DB5481"/>
<path d="M82.9999 14.7093H62.2428V2.62753H72.6213L82.9999 14.7093Z" fill="#869414"/>
<path d="M41.4968 14.7093H20.7454V2.62753H31.1296L41.4968 14.7093Z" fill="#024287"/>
<path d="M18.151 0.163445H12.9617V2.6275H18.151V0.163445Z" fill="#F6B432"/>
<path d="M28.5237 0.163445H23.3344V2.6275H28.5237V0.163445Z" fill="#024287"/>
<path d="M59.648 0.163445H54.4587V2.6275H59.648V0.163445Z" fill="#DB5481"/>
<path d="M70.0321 0.163445H64.8428V2.6275H70.0321V0.163445Z" fill="#869414"/>
</svg>
