<svg width="147" height="111" viewBox="0 0 147 111" fill="none" xmlns="http://www.w3.org/2000/svg">
<g clip-path="url(#clip0_153_1567)">
<path d="M109.868 47.0176H73.2518V68.3418H109.868V47.0176Z" fill="#869414"/>
<path d="M146.474 47.0176L128.186 68.3217V68.3418H109.878V47.0176H146.474Z" fill="#D9392F"/>
<path d="M146.494 25.6733H128.186V47.0176H146.494V25.6733Z" fill="#DB5481"/>
<path d="M18.3079 25.6733H0V47.0176H18.3079V25.6733Z" fill="#4C83A9"/>
<path d="M109.858 89.6758L91.5497 111H73.2518V89.6758H109.858Z" fill="#95867D"/>
<path d="M91.5597 68.3418H54.9438V89.666H91.5597V68.3418Z" fill="#D9392F"/>
<path d="M54.9438 68.3418V89.676H36.6159V89.656L18.3079 68.3418H54.9438Z" fill="#DB5481"/>
<path d="M73.2518 47.0176H36.6159V68.3418H73.2518V47.0176Z" fill="#EFEFEF"/>
<path d="M73.2518 89.6758V111H54.9439L36.6359 89.6758H73.2518Z" fill="#024287"/>
<path d="M36.6159 47.0176V68.3418H18.3079L0 47.0176H36.6159Z" fill="#40423F"/>
<path d="M91.5597 25.6733H54.9438V47.0176H91.5597V25.6733Z" fill="#EA6534"/>
<path d="M128.166 68.3418L109.878 89.656V89.676H91.5497V68.3418H128.166Z" fill="#EA6534"/>
<path d="M128.186 25.6733H91.5497V47.0176H128.186V25.6733Z" fill="#024287"/>
<path d="M54.9438 25.6733H18.3079V47.0176H54.9438V25.6733Z" fill="#224E1D"/>
<path d="M36.6159 4.34912V25.6733H0L18.3079 4.34912H36.6159Z" fill="#F6B432"/>
<path d="M109.858 4.34912V25.6733H73.2518L91.5497 4.36916V4.34912H109.858Z" fill="#DB5481"/>
<path d="M146.494 25.6733H109.858V4.34912H128.176L146.494 25.6733Z" fill="#869414"/>
<path d="M73.2518 25.6733H36.6159V4.34912H54.9439L73.2518 25.6733Z" fill="#024287"/>
<path d="M32.0464 0H22.8774V4.34901H32.0464V0Z" fill="#F6B432"/>
<path d="M50.3443 0H41.1853V4.34901H50.3443V0Z" fill="#024287"/>
<path d="M105.288 0H96.1292V4.34901H105.288V0Z" fill="#DB5481"/>
<path d="M123.616 0H114.457V4.34901H123.616V0Z" fill="#869414"/>
</g>
<defs>
<clipPath id="clip0_153_1567">
<rect width="146.494" height="111" fill="white"/>
</clipPath>
</defs>
</svg>

