<svg width="80" height="80" viewBox="0 0 80 80" fill="none" xmlns="http://www.w3.org/2000/svg">
<path d="M40 79.9946C62.0884 79.9946 79.9946 62.0884 79.9946 40C79.9946 17.9116 62.0884 0.00540876 40 0.00540876C17.9116 0.00540876 0.00540924 17.9116 0.00540924 40C0.00540924 62.0884 17.9116 79.9946 40 79.9946Z" fill="white"/>
<path d="M49.9138 38.8116H39.9999V44.5852H49.9138V38.8116Z" fill="#869414"/>
<path d="M59.8277 38.8116L54.8762 44.5798V44.5852H49.9193V38.8116H59.8277Z" fill="#D9392F"/>
<path d="M59.8331 33.0299H54.8761V38.8089H59.8331V33.0299Z" fill="#DB5481"/>
<path d="M25.1265 33.0299H20.1696V38.8089H25.1265V33.0299Z" fill="#4C83A9"/>
<path d="M49.9138 50.3588L44.9569 56.1324H39.9999V50.3588H49.9138Z" fill="#95867D"/>
<path d="M44.9596 44.5852H35.0458V50.3588H44.9596V44.5852Z" fill="#D9392F"/>
<path d="M35.0457 44.5852V50.3588H30.0834V50.3534L25.1264 44.5852H35.0457Z" fill="#DB5481"/>
<path d="M40.0026 38.8116H30.0833V44.5852H40.0026V38.8116Z" fill="#EFEFEF"/>
<path d="M39.9999 50.3588V56.1324H35.0457L30.0887 50.3588H39.9999Z" fill="#024287"/>
<path d="M30.0834 38.8116V44.5852H25.1265L20.1696 38.8116H30.0834Z" fill="#40423F"/>
<path d="M44.9596 33.0299H35.0458V38.8089H44.9596V33.0299Z" fill="#EA6534"/>
<path d="M54.8707 44.5852L49.9192 50.3534V50.3588H44.9568V44.5852H54.8707Z" fill="#EA6534"/>
<path d="M54.8761 33.0299H44.9568V38.8089H54.8761V33.0299Z" fill="#024287"/>
<path d="M35.0457 33.0299H25.1264V38.8089H35.0457V33.0299Z" fill="#224E1D"/>
<path d="M30.0834 27.2563V33.0299H20.1696L25.1265 27.2563H30.0834Z" fill="#F6B432"/>
<path d="M49.9138 27.2563V33.0299H39.9999L44.9569 27.2617V27.2563H49.9138Z" fill="#DB5481"/>
<path d="M59.8331 33.0299H49.9139V27.2563H54.8735L59.8331 33.0299Z" fill="#869414"/>
<path d="M39.9999 33.0299H30.0833V27.2563H35.0457L39.9999 33.0299Z" fill="#024287"/>
<path d="M28.8435 26.0788H26.3637V27.2563H28.8435V26.0788Z" fill="#F6B432"/>
<path d="M33.8004 26.0788H31.3206V27.2563H33.8004V26.0788Z" fill="#024287"/>
<path d="M48.6739 26.0788H46.1941V27.2563H48.6739V26.0788Z" fill="#DB5481"/>
<path d="M53.6362 26.0788H51.1563V27.2563H53.6362V26.0788Z" fill="#869414"/>
<path d="M40.0001 67.647C24.7549 67.647 12.3531 55.2452 12.3531 40C12.3531 24.7548 24.7549 12.353 40.0001 12.353C55.2453 12.353 67.6471 24.7548 67.6471 40C67.6471 55.2452 55.2453 67.647 40.0001 67.647ZM40.0001 12.9255C25.0696 12.9255 12.9228 25.0722 12.9228 40.0027C12.9228 54.9332 25.0696 67.08 40.0001 67.08C54.9306 67.08 67.0773 54.9332 67.0773 40.0027C67.0773 25.0722 54.9306 12.9255 40.0001 12.9255Z" fill="black"/>
<path d="M40 80.0027C17.9448 80.0027 0 62.0579 0 40.0027C0 17.9475 17.9448 0 40 0C62.0552 0 80 17.9448 80 40.0027C80 62.0606 62.0552 80.0027 40 80.0027ZM40 0.553483C18.2487 0.553483 0.553483 18.2487 0.553483 40.0027C0.553483 61.7568 18.2514 79.452 40.0027 79.452C61.7541 79.452 79.452 61.7568 79.452 40.0027C79.452 18.2487 61.7541 0.553483 40 0.553483Z" fill="black"/>
<path d="M11.8564 28.2412C11.8591 28.5776 11.7994 28.9195 11.6773 29.2695C11.4603 29.8881 11.1347 30.3819 10.6952 30.7563C10.2583 31.1307 9.76455 31.364 9.21378 31.4536C8.66301 31.5458 8.10953 31.4915 7.55333 31.2962C6.95915 31.0873 6.46807 30.7698 6.0828 30.3493C5.69754 29.9261 5.45064 29.4404 5.3394 28.8923C5.22816 28.3443 5.27428 27.7827 5.47506 27.2102C5.59444 26.871 5.74909 26.5699 5.94172 26.3067C6.13435 26.0435 6.34327 25.8211 6.57117 25.6366L7.2169 26.228C6.7421 26.5807 6.42466 26.9904 6.25916 27.4571C6.1235 27.8451 6.09908 28.2439 6.18862 28.6454C6.27815 29.0497 6.46536 29.4106 6.74753 29.7334C7.03241 30.0563 7.38512 30.2896 7.80837 30.4388C8.24247 30.5908 8.66573 30.6396 9.08084 30.5826C9.49324 30.5257 9.85951 30.3629 10.1742 30.0943C10.489 29.8257 10.725 29.473 10.8797 29.0361C11.0696 28.4962 11.0804 27.9726 10.9149 27.4652L11.7614 27.3784C11.8211 27.6199 11.8537 27.9048 11.8564 28.2412Z" fill="black"/>
<path d="M7.48825 22.8637L12.3339 25.5905L13.9293 22.7552L14.6537 23.1622L12.6378 26.7463L7.06771 23.6126L7.48825 22.8665V22.8637Z" fill="black"/>
<path d="M14.5968 20.7583C14.8572 20.799 15.115 20.7719 15.3646 20.6769C15.6142 20.582 15.8312 20.4246 16.0103 20.2076C16.1975 19.9796 16.3169 19.7328 16.3712 19.4669C16.4227 19.201 16.4037 18.9405 16.3142 18.6909C16.2219 18.4413 16.07 18.2242 15.8502 18.0452L12.6677 15.4134L13.2022 14.7677L16.4064 17.4157C16.7564 17.706 16.9979 18.0425 17.1335 18.4304C17.2692 18.8184 17.2936 19.2118 17.2095 19.6161C17.1254 20.0203 16.9382 20.3948 16.6533 20.7393C16.3712 21.0785 16.0401 21.3308 15.6603 21.4909C15.2805 21.6509 14.8871 21.6998 14.4855 21.6374C14.084 21.575 13.7041 21.3986 13.3541 21.111L10.1499 18.463L10.6952 17.801L13.8778 20.4327C14.0948 20.6118 14.3363 20.7231 14.5968 20.7637V20.7583Z" fill="black"/>
<path d="M20.0827 13.5576C20.4137 13.62 20.6932 13.7855 20.9184 14.0487C21.1815 14.358 21.3253 14.6809 21.347 15.0119C21.3687 15.3429 21.3009 15.663 21.1381 15.9669C20.9753 16.2708 20.7474 16.5475 20.4544 16.7944L19.0056 18.0235L14.8707 13.1479L16.1324 12.079C16.6316 11.6557 17.1037 11.4305 17.5513 11.4034C17.999 11.3762 18.3951 11.5662 18.7424 11.9759C18.9595 12.2309 19.0924 12.5049 19.1385 12.7925C19.1874 13.0801 19.1494 13.3677 19.03 13.6553C19.399 13.5278 19.7517 13.4952 20.0827 13.5576ZM17.3289 14.727L18.0696 14.0975C18.3219 13.8832 18.4494 13.6526 18.4575 13.3975C18.463 13.1452 18.3707 12.9065 18.1808 12.6813C17.9719 12.4344 17.7385 12.315 17.4835 12.3231C17.2285 12.3313 16.9626 12.4507 16.6886 12.684L16.0537 13.2212L17.3289 14.7243V14.727ZM20.449 15.4243C20.525 15.1394 20.4571 14.8735 20.2482 14.6266C20.0312 14.3716 19.7707 14.2658 19.4668 14.3146C19.163 14.3634 18.8699 14.5072 18.5878 14.7487L17.8661 15.3619L19.1412 16.865L19.9091 16.2138C20.1912 15.9723 20.3703 15.7119 20.4463 15.427L20.449 15.4243Z" fill="black"/>
<path d="M25.5633 6.15072L25.9296 6.88598L23.3005 8.19372L24.2067 10.0142L26.5102 8.8693L26.8764 9.60456L24.573 10.7495L25.7803 13.1805L25.0125 13.5631L22.1691 7.8383L25.566 6.15072H25.5633Z" fill="black"/>
<path d="M31.4074 9.12431L29.066 9.86771L28.9249 11.6747L28.1164 11.9324L28.7621 4.74257L28.8137 4.72629L33.4939 10.2259L32.5497 10.5243L31.4102 9.12431H31.4074ZM30.9055 8.50571L29.3319 6.55767L29.1365 9.06733L30.9055 8.50571Z" fill="black"/>
<path d="M37.6666 9.59639C37.3682 9.75104 37.0372 9.85414 36.6682 9.90298C36.0197 9.9898 35.4283 9.92197 34.8965 9.70221C34.3647 9.48244 33.9333 9.14872 33.6023 8.69834C33.2713 8.24796 33.0678 7.73246 32.9891 7.14913C32.905 6.5251 32.9647 5.94449 33.1655 5.40729C33.3663 4.8728 33.6864 4.43055 34.126 4.08327C34.5628 3.73598 35.0837 3.52165 35.686 3.44296C36.0414 3.39413 36.3806 3.39684 36.7034 3.44839C37.0263 3.49994 37.3193 3.58676 37.5852 3.70343L37.3492 4.54722C36.8201 4.28404 36.31 4.18637 35.819 4.25148C35.4093 4.30575 35.0457 4.46582 34.7283 4.729C34.4108 4.99217 34.1721 5.32318 34.0147 5.72201C33.8574 6.12085 33.8085 6.54138 33.8682 6.98634C33.9279 7.44215 34.0798 7.84098 34.3186 8.18284C34.5573 8.5247 34.8666 8.77702 35.2492 8.9371C35.6318 9.09717 36.0523 9.14601 36.5135 9.08361C37.0806 9.00764 37.5527 8.78245 37.9298 8.40261L38.391 9.11616C38.2038 9.27895 37.9624 9.43632 37.6639 9.59368L37.6666 9.59639Z" fill="black"/>
<path d="M40.2984 3.26119L40.4015 9.65337L39.5442 9.66694L39.4411 3.27475L40.2984 3.26119Z" fill="black"/>
<path d="M43.4077 3.41042L42.7511 8.93168L45.9824 9.31424L45.8848 10.139L41.8015 9.65338L42.5557 3.3046L43.4077 3.40499V3.41042Z" fill="black"/>
<path d="M49.2083 4.43057L47.6836 10.6383L46.8506 10.4348L48.3754 4.22708L49.2083 4.43057Z" fill="black"/>
<path d="M54.8815 6.34062L54.5939 7.11116L52.9877 6.50884L51.0316 11.7235L50.2285 11.4224L52.1847 6.20768L50.6192 5.62164L50.9068 4.8511L54.8815 6.34062Z" fill="black"/>
<path d="M56.7292 12.665L54.5886 11.4576L53.1696 12.5863L52.4316 12.1685L58.1346 7.74331L58.1808 7.77044L57.3451 14.9413L56.4823 14.4556L56.7292 12.6677V12.665ZM56.8378 11.8754L57.1905 9.39562L55.2207 10.9638L56.8378 11.8754Z" fill="black"/>
<path d="M60.6579 17.5704C60.3405 17.4591 60.0393 17.2855 59.7517 17.0494C59.2471 16.6343 58.8917 16.1568 58.6909 15.6196C58.4874 15.0797 58.4386 14.5371 58.5417 13.989C58.6448 13.441 58.8835 12.939 59.2579 12.4832C59.6568 11.9948 60.1234 11.6421 60.6525 11.4251C61.1815 11.208 61.7215 11.1402 62.2749 11.2243C62.8284 11.3084 63.3385 11.5417 63.8079 11.927C64.0846 12.1549 64.3152 12.4045 64.497 12.6758C64.6788 12.9472 64.8172 13.2212 64.9121 13.4952L64.1362 13.8995C63.968 13.3351 63.6912 12.8929 63.3087 12.5809C62.9885 12.3204 62.6249 12.1603 62.2153 12.1088C61.8056 12.0545 61.4013 12.1088 61.0025 12.2634C60.6036 12.4208 60.2618 12.6704 59.9769 13.0177C59.6866 13.3731 59.4967 13.7557 59.4071 14.1627C59.3203 14.5723 59.3475 14.9685 59.4913 15.3564C59.6351 15.7444 59.8847 16.0863 60.2455 16.382C60.6878 16.7456 61.1761 16.9355 61.7106 16.9545L61.5017 17.7793C61.2575 17.7522 60.9754 17.6843 60.6579 17.5731V17.5704Z" fill="black"/>
<path d="M67.0935 15.1882L62.4323 19.5618L61.8463 18.9351L66.5075 14.5615L67.0935 15.1882Z" fill="black"/>
<path d="M67.4245 17.8145C68.0051 17.7738 68.5586 17.8742 69.0849 18.1184C69.6113 18.3626 70.0427 18.7261 70.3764 19.2118C70.7074 19.692 70.8892 20.2238 70.9272 20.8071C70.9651 21.3905 70.862 21.9439 70.6151 22.473C70.3682 23.0021 70.0074 23.4308 69.5272 23.7618C69.0415 24.0955 68.507 24.2827 67.9264 24.3207C67.3458 24.3614 66.795 24.2556 66.2687 24.0059C65.7423 23.7563 65.3164 23.3901 64.9854 22.9071C64.6516 22.4215 64.4617 21.8897 64.4183 21.3118C64.3722 20.7366 64.4726 20.1858 64.7195 19.6649C64.9664 19.1413 65.3353 18.7126 65.8319 18.3707C66.3121 18.0397 66.8439 17.8552 67.4245 17.8172V17.8145ZM65.5063 20.0529C65.3191 20.4381 65.2404 20.8451 65.2702 21.2711C65.2974 21.6998 65.4357 22.0932 65.6826 22.4513C65.9295 22.8094 66.2443 23.0808 66.6268 23.2571C67.0094 23.4335 67.4136 23.504 67.8423 23.4633C68.2683 23.4253 68.6644 23.2788 69.0307 23.0292C69.3942 22.7796 69.6737 22.4594 69.8636 22.0715C70.0535 21.6835 70.1376 21.2765 70.1105 20.8533C70.0834 20.4273 69.9477 20.0366 69.7008 19.6757C69.4539 19.3149 69.1365 19.049 68.7485 18.8727C68.3605 18.6963 67.9508 18.6285 67.5221 18.6692C67.0935 18.7099 66.6946 18.8564 66.3311 19.106C65.9702 19.3529 65.6989 19.6676 65.5117 20.0529H65.5063ZM70.7454 19.2688L70.4442 18.832L71.8361 18.7668L72.357 19.5238L70.7454 19.2688Z" fill="black"/>
<path d="M75.195 29.0823L69.0551 31.5132L69.0443 31.4888L71.7493 25.3707L67.5222 27.0637L67.202 26.2579L73.3256 23.835L73.3419 23.8757L70.5853 30.0047L74.8775 28.2873L75.1923 29.085L75.195 29.0823Z" fill="black"/>
<path d="M10.6383 49.1678L6.03412 50.7441L6.95659 53.4383L6.26745 53.6743L5.10079 50.272L10.3914 48.4596L10.6356 49.1705L10.6383 49.1678Z" fill="black"/>
<path d="M13.5657 55.8177L12.9282 56.1487L11.6014 53.5875L10.0902 54.3688L11.2758 56.656L10.6383 56.987L9.45261 54.6999L7.91968 55.4921L9.29524 58.151L8.64951 58.4847L6.92666 55.1611L11.8944 52.589L13.5657 55.8177Z" fill="black"/>
<path d="M11.8104 62.8013C11.5011 62.5762 11.2569 62.3428 11.0724 62.0932C10.7251 61.6265 10.5135 61.1436 10.4403 60.6444C10.367 60.1452 10.4267 59.6758 10.6193 59.2336C10.812 58.7913 11.1158 58.4142 11.5337 58.1049C12.022 57.7413 12.5213 57.5297 13.034 57.47C13.5468 57.4103 14.027 57.4863 14.4801 57.6952C14.9332 57.9041 15.3131 58.2188 15.6251 58.6367C15.8123 58.889 15.9588 59.1494 16.0673 59.418C16.1732 59.6866 16.2437 59.9471 16.2763 60.1967L15.5763 60.4083C15.5518 60.2211 15.4922 60.0041 15.3999 59.7626C15.3077 59.5211 15.1991 59.3177 15.0798 59.1576C14.822 58.8103 14.5208 58.5553 14.1817 58.3925C13.8426 58.2297 13.4871 58.1727 13.1209 58.2243C12.7519 58.2731 12.3937 58.4277 12.0464 58.6855C11.7236 58.927 11.4903 59.2118 11.3465 59.5456C11.2027 59.8793 11.1592 60.2293 11.2162 60.5956C11.2732 60.9645 11.4306 61.3173 11.6829 61.6564C11.7996 61.8138 11.9298 61.9548 12.0709 62.0796C12.212 62.2072 12.3503 62.2967 12.4806 62.3537L13.3678 61.6944L12.703 60.8018L13.2809 60.3731L14.3988 61.8762L12.5864 63.2246C12.3775 63.1676 12.117 63.0265 11.8104 62.8041V62.8013Z" fill="black"/>
<path d="M16.3956 61.9195C16.8812 61.773 17.375 61.7513 17.8715 61.8571C18.368 61.9602 18.8048 62.1881 19.1847 62.5381C19.5591 62.8854 19.8195 63.3032 19.9661 63.7916C20.1126 64.28 20.1316 64.7738 20.0257 65.273C19.9199 65.7722 19.692 66.209 19.3475 66.5834C18.9975 66.9633 18.5796 67.2265 18.0913 67.373C17.6056 67.5195 17.1118 67.5385 16.6153 67.4245C16.1188 67.3133 15.682 67.0827 15.3076 66.7381C14.9277 66.3881 14.6646 65.973 14.5126 65.4873C14.3634 65.0044 14.3417 64.516 14.4502 64.0222C14.5587 63.5284 14.7921 63.0889 15.1475 62.7036C15.4948 62.3292 15.9099 62.0688 16.3983 61.9195H16.3956ZM15.1936 64.2013C15.1095 64.5649 15.1204 64.9284 15.2289 65.2866C15.3347 65.6447 15.5301 65.954 15.8095 66.2145C16.089 66.4749 16.4091 66.6404 16.77 66.7191C17.1308 66.7951 17.489 66.7761 17.8471 66.6594C18.2025 66.5428 18.5145 66.342 18.775 66.0598C19.0382 65.7749 19.2118 65.4493 19.3013 65.0804C19.3882 64.7114 19.38 64.3505 19.2742 63.9924C19.1684 63.6343 18.9758 63.3277 18.6963 63.0672C18.4169 62.8067 18.094 62.6412 17.7277 62.5653C17.3614 62.4893 16.9979 62.511 16.6397 62.6304C16.2816 62.7498 15.9696 62.9505 15.7091 63.2327C15.4514 63.5122 15.2777 63.835 15.1936 64.2013Z" fill="black"/>
<path d="M23.4362 66.1792C23.5691 66.4342 23.6261 66.7083 23.6098 66.9959C23.5935 67.2834 23.5013 67.5521 23.3304 67.8071C23.1594 68.0594 22.9451 68.2466 22.6874 68.3687C22.4296 68.4908 22.1556 68.5396 21.8653 68.5152C21.575 68.4908 21.3091 68.3958 21.0595 68.2303C20.8126 68.0621 20.6226 67.8505 20.4951 67.5955C20.3676 67.3404 20.3106 67.0664 20.3242 66.7815C20.3378 66.4966 20.43 66.228 20.6009 65.9757C20.7719 65.7234 20.9862 65.5362 21.2467 65.4114C21.5071 65.2893 21.7785 65.2377 22.066 65.2622C22.3509 65.2866 22.6168 65.3815 22.8664 65.5497C23.1133 65.7152 23.3032 65.9269 23.4362 66.1846V66.1792ZM21.887 68.1028C22.0959 68.1191 22.2967 68.0811 22.4893 67.9862C22.6819 67.8912 22.8393 67.7501 22.9668 67.5602C23.0943 67.373 23.1649 67.1722 23.1812 66.9579C23.1974 66.7435 23.1567 66.5428 23.0618 66.3501C22.9668 66.1602 22.8257 66.0001 22.6439 65.878C22.4622 65.7559 22.2614 65.6854 22.0525 65.6718C21.8409 65.6583 21.6401 65.699 21.4502 65.7939C21.2575 65.8889 21.1002 66.03 20.9726 66.2199C20.8451 66.4098 20.7746 66.6079 20.761 66.8195C20.7475 67.0311 20.7854 67.2319 20.8777 67.4218C20.9699 67.6117 21.1083 67.7691 21.2928 67.8912C21.48 68.0187 21.6808 68.0893 21.8897 68.1055L21.887 68.1028ZM22.4567 67.1831C22.3672 67.2292 22.2722 67.2455 22.1746 67.2346L22.0633 67.9238L21.6781 67.666L21.8056 67.061L21.6835 66.9796L21.3633 67.4544L21.0296 67.2292L21.9494 65.8618L22.4812 66.2199C22.6385 66.3257 22.7362 66.4451 22.7688 66.5753C22.8013 66.7056 22.7688 66.8412 22.6765 66.985C22.6195 67.0718 22.5463 67.1369 22.4567 67.1804V67.1831ZM21.868 66.7218L21.9955 66.8087C22.123 66.8955 22.2288 66.8792 22.3075 66.7598C22.3455 66.7055 22.3591 66.6486 22.3536 66.5889C22.3455 66.5319 22.3129 66.4831 22.2533 66.4424L22.1176 66.3528L21.868 66.7245V66.7218Z" fill="black"/>
<path d="M28.6237 69.3699C28.4392 69.2207 28.2547 69.1067 28.0702 69.0307C27.7881 68.9141 27.5412 68.8842 27.3241 68.9412C27.1071 68.9982 26.9524 69.1366 26.8629 69.3563C26.7733 69.5707 26.7978 69.785 26.9334 70.0021C27.0691 70.2191 27.2888 70.4687 27.59 70.7509C27.8179 70.9571 27.9997 71.1551 28.1353 71.3424C28.271 71.5296 28.3605 71.7493 28.3985 71.9962C28.4365 72.2431 28.3931 72.5226 28.2656 72.8265C28.1489 73.1032 27.978 73.323 27.7447 73.4885C27.5113 73.654 27.2427 73.7489 26.9361 73.7706C26.6268 73.7923 26.3013 73.7326 25.9594 73.5888C25.6392 73.4559 25.3544 73.2768 25.102 73.0516C24.8497 72.8264 24.6435 72.5877 24.4862 72.3381L25.0234 71.9175C25.1427 72.1237 25.3082 72.3245 25.5172 72.5226C25.7261 72.7179 25.9377 72.8617 26.152 72.9513C26.4288 73.0652 26.7001 73.0951 26.966 73.0381C27.2319 72.9811 27.4245 72.8129 27.5412 72.5334C27.6416 72.2947 27.6334 72.0695 27.5168 71.8579C27.4028 71.6435 27.2129 71.4102 26.9497 71.1551C26.7055 70.9245 26.5075 70.7156 26.3582 70.5311C26.209 70.3466 26.1032 70.1323 26.0435 69.8908C25.9811 69.6493 26.0082 69.3916 26.1249 69.1149C26.2931 68.7106 26.5726 68.442 26.9606 68.3091C27.3485 68.1761 27.7718 68.1978 28.2276 68.3742C28.7838 68.6075 29.2423 68.9602 29.6032 69.435L29.1148 69.861C28.971 69.6846 28.8082 69.5218 28.6237 69.3699Z" fill="black"/>
<path d="M34.1722 70.2517L33.9931 70.9489L31.1986 70.23L30.7754 71.8795L33.2687 72.5199L33.0897 73.2171L30.5936 72.5768L30.1649 74.2481L33.0653 74.9942L32.8835 75.6997L29.2587 74.7663L30.6533 69.3509L34.1749 70.2571L34.1722 70.2517Z" fill="black"/>
<path d="M37.6558 76.2857L36.5543 74.0989C36.5136 74.0989 36.4512 74.0989 36.3698 74.0881L35.545 74.004L35.3388 76.0524L34.5927 75.9764L35.1516 70.4117L36.6384 70.561C37.0182 70.5989 37.3492 70.6993 37.6341 70.8621C37.919 71.0249 38.1333 71.2447 38.2744 71.5214C38.4182 71.7982 38.4725 72.1183 38.4345 72.4819C38.3992 72.8264 38.2934 73.133 38.1116 73.4043C37.9326 73.6757 37.6775 73.871 37.3492 73.9877L38.5268 76.3671L37.6558 76.2803V76.2857ZM37.3248 73.133C37.5229 72.9404 37.6368 72.7071 37.664 72.4358C37.6803 72.2703 37.6585 72.1047 37.6016 71.9392C37.5446 71.7737 37.4388 71.6299 37.2868 71.5079C37.1349 71.3858 36.9368 71.3125 36.6899 71.2881L35.8272 71.2013L35.6183 73.2795L36.4268 73.3609C36.8283 73.4016 37.1268 73.3257 37.3248 73.133Z" fill="black"/>
<path d="M40.6701 70.7346L40.7596 76.3264L40.0081 76.34L39.9185 70.7482L40.6674 70.7373L40.6701 70.7346Z" fill="black"/>
<path d="M42.1733 72.1427C42.3659 71.6733 42.6589 71.2772 43.055 70.957C43.4485 70.6369 43.9015 70.4415 44.4116 70.3683C44.9163 70.295 45.4046 70.3574 45.8767 70.5528C46.3488 70.7481 46.7422 71.0439 47.0624 71.44C47.3825 71.8361 47.5806 72.2865 47.6511 72.7938C47.7244 73.3039 47.6647 73.795 47.4721 74.2671C47.2794 74.7365 46.9837 75.1299 46.5821 75.4473C46.1833 75.762 45.7302 75.9574 45.2256 76.0306C44.7155 76.1039 44.2244 76.0469 43.755 75.8597C43.2857 75.6725 42.8923 75.3795 42.5775 74.9861C42.2628 74.5927 42.0675 74.1342 41.9942 73.6132C41.9209 73.1086 41.9806 72.6202 42.1733 72.1481V72.1427ZM43.188 74.5113C43.4186 74.807 43.7062 75.0268 44.0535 75.1679C44.4008 75.3117 44.7616 75.3551 45.1387 75.3008C45.5159 75.2465 45.8496 75.1027 46.1372 74.8721C46.4248 74.6415 46.6364 74.3485 46.7694 73.9985C46.905 73.6485 46.943 73.2822 46.8887 72.8997C46.8345 72.5171 46.6907 72.1753 46.4601 71.8741C46.2294 71.5729 45.9418 71.3505 45.5973 71.2094C45.2527 71.0656 44.8919 71.0222 44.5147 71.0764C44.1376 71.1307 43.8039 71.2772 43.5136 71.5132C43.2233 71.7493 43.0116 72.045 42.8787 72.3977C42.743 72.7504 42.705 73.1194 42.7593 73.502C42.8136 73.8791 42.9547 74.2155 43.1853 74.5113H43.188Z" fill="black"/>
<path d="M50.1526 73.5509C50.3289 73.7001 50.5324 73.7978 50.763 73.8412C50.9937 73.8846 51.2243 73.8683 51.4603 73.7896C51.7045 73.7082 51.908 73.578 52.0681 73.4043C52.2309 73.2307 52.334 73.0272 52.3828 72.7993C52.4316 72.5714 52.4154 72.3408 52.334 72.1048L51.1727 68.6835L51.87 68.4474L53.0394 71.8904C53.1669 72.2675 53.1913 72.6284 53.1153 72.9811C53.0394 73.3338 52.8739 73.6377 52.627 73.8981C52.3774 74.1586 52.0681 74.354 51.6964 74.4788C51.3301 74.6036 50.9692 74.6361 50.6111 74.5819C50.2557 74.5276 49.941 74.3811 49.6696 74.1505C49.3983 73.9198 49.1976 73.616 49.07 73.2388L47.9034 69.7959L48.6142 69.5544L49.7755 72.9757C49.8541 73.2117 49.9817 73.4016 50.158 73.5536L50.1526 73.5509Z" fill="black"/>
<path d="M55.2236 67.5711C54.9902 67.6172 54.7867 67.685 54.6077 67.7773C54.3364 67.9184 54.1546 68.0893 54.0596 68.2928C53.9646 68.4963 53.9728 68.7025 54.0813 68.9141C54.1898 69.1203 54.3689 69.2397 54.6212 69.2722C54.8736 69.3075 55.2046 69.2993 55.6142 69.2478C55.9181 69.2071 56.1867 69.1935 56.4173 69.2098C56.6507 69.2261 56.8732 69.2993 57.0875 69.4269C57.3018 69.5571 57.4863 69.766 57.6383 70.059C57.7766 70.3249 57.8363 70.599 57.8146 70.8838C57.7929 71.1687 57.6925 71.4346 57.5135 71.6869C57.3344 71.9392 57.0766 72.1482 56.7483 72.3191C56.4418 72.4792 56.1216 72.5823 55.7852 72.6338C55.4487 72.6826 55.1367 72.6881 54.8437 72.6501L54.8627 71.9691C55.0987 72.0098 55.3592 72.0125 55.6441 71.9772C55.929 71.942 56.1732 71.8714 56.3794 71.7656C56.6452 71.6272 56.8406 71.4373 56.9681 71.1986C57.0956 70.9571 57.0902 70.702 56.9491 70.4334C56.8297 70.2055 56.6507 70.0672 56.4146 70.0183C56.1786 69.9695 55.8774 69.9668 55.5139 70.0021C55.1801 70.0428 54.8925 70.059 54.6565 70.0563C54.4205 70.0536 54.1871 69.9966 53.9646 69.8881C53.7395 69.7823 53.5577 69.5951 53.422 69.3292C53.2185 68.9412 53.1914 68.5559 53.3406 68.1734C53.4871 67.7908 53.7747 67.4815 54.2034 67.2401C54.7379 66.9606 55.3049 66.8358 55.8991 66.8629L55.9127 67.5087C55.6848 67.506 55.4542 67.5277 55.2208 67.5711H55.2236Z" fill="black"/>
<path d="M60.9049 63.2029C61.3634 63.2191 61.765 63.4389 62.1123 63.8622C62.313 64.1063 62.4514 64.3722 62.5274 64.6625C62.6034 64.9529 62.5871 65.254 62.4785 65.566C62.37 65.8753 62.1503 66.1656 61.8192 66.4397L61.1789 66.966L62.4867 68.5559L61.9061 69.0334L58.3546 64.7141L59.5131 63.7618C59.9824 63.3738 60.4464 63.1893 60.9049 63.2083V63.2029ZM61.7514 65.33C61.8084 65.1373 61.8138 64.9529 61.7677 64.7819C61.7189 64.611 61.6483 64.4645 61.5479 64.3451C61.377 64.1389 61.1572 64.0087 60.8913 63.9598C60.6227 63.911 60.346 64.0032 60.0584 64.2393L59.3883 64.7901L60.715 66.4017L61.3553 65.8753C61.5615 65.7044 61.6944 65.5226 61.7514 65.33Z" fill="black"/>
<path d="M62.0634 61.4231L65.6447 64.7168L67.5711 62.6196L68.1056 63.1106L65.6719 65.7587L61.5533 61.9738L62.0607 61.4203L62.0634 61.4231Z" fill="black"/>
<path d="M69.5408 58.558L68.3416 60.3432L69.2315 61.6564L68.8164 62.2723L65.3409 56.9952L65.368 56.9572L71.5676 58.1727L71.0846 58.8917L69.5408 58.5553V58.558ZM68.8598 58.406L66.7192 57.9285L67.9536 59.7545L68.8598 58.406Z" fill="black"/>
<path d="M68.754 51.1755L71.1958 54.689L72.8725 55.503L72.5442 56.1785L70.8675 55.3646L66.6078 55.6033L67.0121 54.7677L70.2733 54.6375L68.3524 52.003L68.754 51.1755Z" fill="black"/>
<path d="M69.7091 48.8069C69.9207 48.6088 70.1649 48.4786 70.447 48.4162C70.7265 48.3538 71.0141 48.3674 71.3017 48.4623C71.592 48.5573 71.8308 48.7119 72.018 48.9263C72.2052 49.1433 72.3273 49.3929 72.3842 49.6751C72.4412 49.96 72.4222 50.2449 72.33 50.527C72.2377 50.8119 72.0858 51.0507 71.8715 51.246C71.6598 51.4387 71.4129 51.5689 71.1362 51.634C70.8567 51.6964 70.5746 51.6828 70.2843 51.5879C69.994 51.4929 69.7552 51.3383 69.5653 51.1212C69.3754 50.9042 69.2533 50.6573 69.199 50.3751C69.1447 50.0929 69.1637 49.8108 69.256 49.5259C69.3482 49.241 69.5002 48.9995 69.7091 48.8042V48.8069ZM71.9827 49.7728C71.942 49.5666 71.8498 49.3848 71.706 49.2274C71.5622 49.0701 71.3831 48.9561 71.166 48.8856C70.949 48.815 70.7374 48.8015 70.5284 48.8449C70.3195 48.8883 70.135 48.9805 69.9777 49.1243C69.8203 49.2681 69.7064 49.4445 69.6385 49.6561C69.5707 49.8677 69.5571 50.0766 69.6005 50.2828C69.644 50.489 69.7389 50.6708 69.8827 50.8309C70.0265 50.9883 70.2056 51.1022 70.4226 51.1728C70.6397 51.2433 70.8486 51.2569 71.0575 51.2135C71.2637 51.17 71.4455 51.0778 71.6029 50.9367C71.7602 50.7956 71.8742 50.6193 71.942 50.4076C72.0125 50.1906 72.0261 49.9817 71.9854 49.7755L71.9827 49.7728ZM70.9408 49.4743C71.0087 49.5476 71.0521 49.6344 71.0684 49.7321L71.7629 49.648L71.6191 50.0902L71.0032 50.1336L70.9571 50.2747L71.4998 50.4511L71.3749 50.8336L69.8067 50.3235L70.0048 49.7131C70.0645 49.5313 70.1513 49.4065 70.268 49.3387C70.3846 49.2708 70.523 49.2627 70.6858 49.317C70.7835 49.3495 70.8676 49.4011 70.9354 49.4743H70.9408ZM70.656 50.1662L70.7048 50.0197C70.7536 49.8732 70.7075 49.7755 70.5691 49.7321C70.5067 49.7104 70.4471 49.7131 70.3928 49.7348C70.3385 49.7565 70.3005 49.8026 70.2788 49.8732L70.2273 50.0278L70.6533 50.1662H70.656Z" fill="black"/>
<path d="M6.4708 40.4857C6.92033 40.4857 7.28474 40.1212 7.28474 39.6717C7.28474 39.2222 6.92033 38.8578 6.4708 38.8578C6.02127 38.8578 5.65685 39.2222 5.65685 39.6717C5.65685 40.1212 6.02127 40.4857 6.4708 40.4857Z" fill="black"/>
<path d="M73.5237 40.4857C73.9732 40.4857 74.3376 40.1212 74.3376 39.6717C74.3376 39.2222 73.9732 38.8578 73.5237 38.8578C73.0741 38.8578 72.7097 39.2222 72.7097 39.6717C72.7097 40.1212 73.0741 40.4857 73.5237 40.4857Z" fill="black"/>
</svg>
