<svg width="24" height="20" viewBox="0 0 24 20" fill="none" xmlns="http://www.w3.org/2000/svg">
<path d="M2.66667 3.00016L9.79224 8.38114L9.79462 8.38311C10.5858 8.96333 10.9817 9.25361 11.4152 9.36575C11.7984 9.46486 12.2013 9.46486 12.5845 9.36575C13.0184 9.25351 13.4154 8.96238 14.208 8.38114C14.208 8.38114 18.7784 4.87376 21.3333 3.00016M1.5 14.4337V5.56706C1.5 4.26027 1.5 3.60639 1.75432 3.10726C1.97802 2.66821 2.33472 2.31152 2.77376 2.08781C3.27289 1.8335 3.92677 1.8335 5.23356 1.8335H18.7669C20.0737 1.8335 20.7262 1.8335 21.2253 2.08781C21.6643 2.31152 22.0222 2.66821 22.2459 3.10726C22.5 3.6059 22.5 4.25899 22.5 5.56322V14.4377C22.5 15.7419 22.5 16.3941 22.2459 16.8927C22.0222 17.3317 21.6643 17.6891 21.2253 17.9128C20.7267 18.1668 20.0745 18.1668 18.7703 18.1668H5.22973C3.92549 18.1668 3.2724 18.1668 2.77376 17.9128C2.33472 17.6891 1.97802 17.3317 1.75432 16.8927C1.5 16.3936 1.5 15.7405 1.5 14.4337Z" stroke="white" stroke-width="2" stroke-linecap="round" stroke-linejoin="round"/>
</svg>
