<svg width="20" height="24" viewBox="0 0 20 24" fill="none" xmlns="http://www.w3.org/2000/svg">
<path d="M1.83331 9.57666C1.83331 15.2371 6.7852 19.9181 8.97703 21.7127C9.29072 21.9696 9.44944 22.0996 9.68347 22.1654C9.86571 22.2167 10.1339 22.2167 10.3161 22.1654C10.5506 22.0994 10.7082 21.9707 11.0231 21.7129C13.2149 19.9183 18.1666 15.2376 18.1666 9.57718C18.1666 7.43505 17.3062 5.38039 15.7746 3.86568C14.2431 2.35096 12.166 1.5 10.0001 1.5C7.83414 1.5 5.75682 2.35109 4.22527 3.8658C2.69373 5.38052 1.83331 7.43453 1.83331 9.57666Z" stroke="white" stroke-width="2" stroke-linecap="round" stroke-linejoin="round"/>
<path d="M7.66665 8.5C7.66665 9.78866 8.71132 10.8333 9.99998 10.8333C11.2886 10.8333 12.3333 9.78866 12.3333 8.5C12.3333 7.21134 11.2886 6.16667 9.99998 6.16667C8.71132 6.16667 7.66665 7.21134 7.66665 8.5Z" stroke="white" stroke-width="2" stroke-linecap="round" stroke-linejoin="round"/>
</svg>
